Castoro-Regular.ufo
<glyph name="exclam" format="2">
  <advance width="319"/>
  <unicode hex="0021"/>
  <outline>
    <contour>
      <point x="243" y="655" type="line"/>
      <point x="243" y="691"/>
      <point x="214" y="711"/>
      <point x="173" y="711" type="curve" smooth="yes"/>
      <point x="130" y="711"/>
      <point x="101" y="690"/>
      <point x="101" y="654" type="curve"/>
      <point x="155" y="207" type="line"/>
      <point x="166" y="206"/>
      <point x="180" y="206"/>
      <point x="191" y="207" type="curve"/>
    </contour>
    <contour>
      <point x="100" y="60" type="curve" smooth="yes"/>
      <point x="100" y="19"/>
      <point x="131" y="-12"/>
      <point x="171" y="-12" type="curve" smooth="yes"/>
      <point x="215" y="-12"/>
      <point x="244" y="21"/>
      <point x="244" y="60" type="curve" smooth="yes"/>
      <point x="244" y="99"/>
      <point x="215" y="133"/>
      <point x="171" y="133" type="curve" smooth="yes"/>
      <point x="131" y="133"/>
      <point x="100" y="101"/>
    </contour>
  </outline>
</glyph>
<glyph name="numbersign" format="2">
  <advance width="605"/>
  <unicode hex="0023"/>
  <outline>
    <contour>
      <point x="502" y="620" type="line"/>
      <point x="445" y="620" type="line"/>
      <point x="290" y="0" type="line"/>
      <point x="347" y="0" type="line"/>
    </contour>
    <contour>
      <point x="526" y="241" type="line"/>
      <point x="45" y="241" type="line"/>
      <point x="45" y="186" type="line"/>
      <point x="526" y="186" type="line"/>
    </contour>
    <contour>
      <point x="313" y="620" type="line"/>
      <point x="256" y="620" type="line"/>
      <point x="102" y="0" type="line"/>
      <point x="159" y="0" type="line"/>
    </contour>
    <contour>
      <point x="560" y="436" type="line"/>
      <point x="80" y="436" type="line"/>
      <point x="80" y="381" type="line"/>
      <point x="560" y="381" type="line"/>
    </contour>
  </outline>
</glyph>
<glyph name="quotesingle" format="2">
  <advance width="239"/>
  <unicode hex="0027"/>
  <outline>
    <contour>
      <point x="179" y="674" type="line"/>
      <point x="179" y="697"/>
      <point x="148" y="711"/>
      <point x="119" y="711" type="curve" smooth="yes"/>
      <point x="89" y="711"/>
      <point x="60" y="697"/>
      <point x="60" y="674" type="curve"/>
      <point x="103" y="418" type="line"/>
      <point x="134" y="418" type="line"/>
    </contour>
  </outline>
</glyph>
<glyph name="parenright" format="2">
  <advance width="397"/>
  <unicode hex="0029"/>
  <outline>
    <contour>
      <point x="97" y="-184" type="line"/>
      <point x="257" y="-76"/>
      <point x="337" y="82"/>
      <point x="337" y="283" type="curve" smooth="yes"/>
      <point x="337" y="482"/>
      <point x="258" y="639"/>
      <point x="97" y="754" type="curve"/>
      <point x="75" y="733" type="line"/>
      <point x="190" y="642"/>
      <point x="249" y="492"/>
      <point x="249" y="285" type="curve" smooth="yes"/>
      <point x="249" y="78"/>
      <point x="190" y="-71"/>
      <point x="75" y="-162" type="curve"/>
    </contour>
  </outline>
</glyph>
<glyph name="asterisk" format="2">
  <advance width="458"/>
  <unicode hex="002A"/>
  <outline>
    <contour>
      <point x="106" y="358" type="curve" smooth="yes"/>
      <point x="124" y="358"/>
      <point x="145" y="365"/>
      <point x="160" y="379" type="curve" smooth="yes"/>
      <point x="167" y="386"/>
      <point x="180" y="441"/>
      <point x="229" y="503" type="curve"/>
      <point x="212" y="512" type="line"/>
      <point x="168" y="477"/>
      <point x="120" y="457"/>
      <point x="101" y="447" type="curve" smooth="yes"/>
      <point x="83" y="437"/>
      <point x="75" y="406"/>
      <point x="75" y="388" type="curve" smooth="yes"/>
      <point x="75" y="368"/>
      <point x="87" y="358"/>
    </contour>
    <contour>
      <point x="220" y="523" type="line"/>
      <point x="169" y="557"/>
      <point x="146" y="588"/>
      <point x="129" y="604" type="curve" smooth="yes"/>
      <point x="116" y="617"/>
      <point x="103" y="620"/>
      <point x="84" y="620" type="curve" smooth="yes"/>
      <point x="63" y="620"/>
      <point x="40" y="609"/>
      <point x="40" y="588" type="curve" smooth="yes"/>
      <point x="40" y="568"/>
      <point x="56" y="542"/>
      <point x="79" y="530" type="curve" smooth="yes"/>
      <point x="97" y="521"/>
      <point x="145" y="531"/>
      <point x="223" y="502" type="curve"/>
    </contour>
    <contour>
      <point x="305" y="331" type="curve" smooth="yes"/>
      <point x="324" y="331"/>
      <point x="335" y="350"/>
      <point x="335" y="372" type="curve" smooth="yes"/>
      <point x="335" y="384"/>
      <point x="332" y="398"/>
      <point x="326" y="411" type="curve" smooth="yes"/>
      <point x="321" y="421"/>
      <point x="276" y="451"/>
      <point x="234" y="511" type="curve"/>
      <point x="219" y="501" type="line"/>
      <point x="237" y="448"/>
      <point x="240" y="398"/>
      <point x="244" y="379" type="curve"/>
      <point x="251" y="354"/>
      <point x="284" y="331"/>
    </contour>
    <contour>
      <point x="361" y="489" type="curve" smooth="yes"/>
      <point x="386" y="489"/>
      <point x="423" y="517"/>
      <point x="423" y="541" type="curve" smooth="yes"/>
      <point x="423" y="562"/>
      <point x="392" y="579"/>
      <point x="362" y="579" type="curve" smooth="yes"/>
      <point x="334" y="579"/>
      <point x="311" y="543"/>
      <point x="217" y="518" type="curve"/>
      <point x="223" y="504" type="line"/>
      <point x="290" y="507"/>
      <point x="343" y="489"/>
    </contour>
    <contour>
      <point x="233" y="517" type="line"/>
      <point x="249" y="574"/>
      <point x="289" y="628"/>
      <point x="289" y="648" type="curve" smooth="yes"/>
      <point x="289" y="678"/>
      <point x="272" y="711"/>
      <point x="249" y="711" type="curve" smooth="yes"/>
      <point x="221" y="711"/>
      <point x="198" y="667"/>
      <point x="198" y="649" type="curve" smooth="yes"/>
      <point x="198" y="637"/>
      <point x="217" y="580"/>
      <point x="216" y="518" type="curve"/>
    </contour>
  </outline>
</glyph>
<glyph name="hyphen" format="2">
  <advance width="353"/>
  <unicode hex="002D"/>
  <outline>
    <contour>
      <point x="308" y="213" type="line"/>
      <point x="309" y="239"/>
      <point x="309" y="266"/>
      <point x="308" y="291" type="curve"/>
      <point x="44" y="291" type="line"/>
      <point x="43" y="265"/>
      <point x="43" y="239"/>
      <point x="44" y="213" type="curve"/>
    </contour>
  </outline>
</glyph>
<glyph name="period" format="2">
  <advance width="297"/>
  <unicode hex="002E"/>
  <outline>
    <contour>
      <point x="75" y="62" type="curve" smooth="yes"/>
      <point x="75" y="20"/>
      <point x="107" y="-12"/>
      <point x="147" y="-12" type="curve" smooth="yes"/>
      <point x="192" y="-12"/>
      <point x="222" y="22"/>
      <point x="222" y="62" type="curve" smooth="yes"/>
      <point x="222" y="101"/>
      <point x="192" y="136"/>
      <point x="147" y="136" type="curve" smooth="yes"/>
      <point x="107" y="136"/>
      <point x="75" y="103"/>
    </contour>
  </outline>
</glyph>
<glyph name="slash" format="2">
  <advance width="377"/>
  <unicode hex="002F"/>
  <outline>
    <contour>
      <point x="298" y="748" type="line"/>
      <point x="-29" y="-177" type="line"/>
      <point x="34" y="-177" type="line"/>
      <point x="362" y="748" type="line"/>
    </contour>
  </outline>
</glyph>
<glyph name="zero" format="2">
  <advance width="563"/>
  <unicode hex="0030"/>
  <outline>
    <contour>
      <point x="278" y="591" type="curve" smooth="yes"/>
      <point x="385" y="591"/>
      <point x="417" y="442"/>
      <point x="417" y="299" type="curve" smooth="yes"/>
      <point x="417" y="154"/>
      <point x="385" y="26"/>
      <point x="286" y="26" type="curve" smooth="yes"/>
      <point x="180" y="26"/>
      <point x="147" y="178"/>
      <point x="147" y="321" type="curve" smooth="yes"/>
      <point x="147" y="462"/>
      <point x="179" y="591"/>
    </contour>
    <contour>
      <point x="522" y="314" type="curve" smooth="yes"/>
      <point x="522" y="481"/>
      <point x="456" y="630"/>
      <point x="287" y="630" type="curve" smooth="yes"/>
      <point x="116" y="630"/>
      <point x="41" y="475"/>
      <point x="41" y="303" type="curve" smooth="yes"/>
      <point x="41" y="123"/>
      <point x="123" y="-12"/>
      <point x="279" y="-12" type="curve" smooth="yes"/>
      <point x="438" y="-12"/>
      <point x="522" y="126"/>
    </contour>
  </outline>
</glyph>
<glyph name="two" format="2">
  <advance width="530"/>
  <unicode hex="0032"/>
  <outline>
    <contour>
      <point x="448" y="-1" type="curve"/>
      <point x="458" y="52"/>
      <point x="471" y="113"/>
      <point x="487" y="169" type="curve"/>
      <point x="477" y="173"/>
      <point x="464" y="174"/>
      <point x="456" y="174" type="curve"/>
      <point x="414" y="92"/>
      <point x="405" y="91"/>
      <point x="352" y="89" type="curve"/>
      <point x="350" y="89"/>
      <point x="242" y="86"/>
      <point x="123" y="86" type="curve"/>
      <point x="130" y="72" type="line"/>
      <point x="325" y="239"/>
      <point x="441" y="348"/>
      <point x="441" y="469" type="curve" smooth="yes"/>
      <point x="441" y="568"/>
      <point x="348" y="630"/>
      <point x="245" y="630" type="curve" smooth="yes"/>
      <point x="170" y="630"/>
      <point x="99" y="599"/>
      <point x="42" y="537" type="curve"/>
      <point x="47" y="528"/>
      <point x="54" y="520"/>
      <point x="61" y="513" type="curve"/>
      <point x="102" y="543"/>
      <point x="152" y="562"/>
      <point x="202" y="562" type="curve" smooth="yes"/>
      <point x="275" y="562"/>
      <point x="333" y="520"/>
      <point x="333" y="436" type="curve" smooth="yes"/>
      <point x="333" y="337"/>
      <point x="261" y="215"/>
      <point x="20" y="27" type="curve"/>
      <point x="20" y="17"/>
      <point x="21" y="10"/>
      <point x="25" y="0" type="curve"/>
      <point x="53" y="1"/>
      <point x="105" y="1"/>
      <point x="181" y="1" type="curve" smooth="yes"/>
      <point x="260" y="1"/>
      <point x="366" y="1"/>
    </contour>
  </outline>
</glyph>
<glyph name="three" format="2">
  <advance width="523"/>
  <unicode hex="0033"/>
  <outline>
    <contour>
      <point x="139" y="254" type="line"/>
      <point x="141" y="243"/>
      <point x="143" y="234"/>
      <point x="149" y="224" type="curve"/>
      <point x="169" y="229"/>
      <point x="190" y="232"/>
      <point x="211" y="232" type="curve" smooth="yes"/>
      <point x="323" y="232"/>
      <point x="377" y="148"/>
      <point x="377" y="68" type="curve" smooth="yes"/>
      <point x="377" y="-22"/>
      <point x="312" y="-103"/>
      <point x="204" y="-103" type="curve" smooth="yes"/>
      <point x="188" y="-103"/>
      <point x="169" y="-101"/>
      <point x="153" y="-98" type="curve"/>
      <point x="169" y="-117" type="line"/>
      <point x="154" y="-38"/>
      <point x="115" y="6"/>
      <point x="71" y="6" type="curve" smooth="yes"/>
      <point x="41" y="6"/>
      <point x="20" y="-16"/>
      <point x="20" y="-43" type="curve" smooth="yes"/>
      <point x="20" y="-85"/>
      <point x="73" y="-139"/>
      <point x="187" y="-139" type="curve" smooth="yes"/>
      <point x="332" y="-139"/>
      <point x="479" y="-56"/>
      <point x="479" y="97" type="curve" smooth="yes"/>
      <point x="479" y="201"/>
      <point x="410" y="276"/>
      <point x="279" y="291" type="curve"/>
    </contour>
    <contour>
      <point x="281" y="278" type="line"/>
      <point x="383" y="332"/>
      <point x="431" y="415"/>
      <point x="431" y="484" type="curve" smooth="yes"/>
      <point x="431" y="562"/>
      <point x="369" y="630"/>
      <point x="247" y="630" type="curve" smooth="yes"/>
      <point x="167" y="630"/>
      <point x="103" y="602"/>
      <point x="45" y="537" type="curve"/>
      <point x="48" y="529"/>
      <point x="54" y="521"/>
      <point x="62" y="513" type="curve"/>
      <point x="103" y="544"/>
      <point x="152" y="562"/>
      <point x="202" y="562" type="curve" smooth="yes"/>
      <point x="286" y="562"/>
      <point x="326" y="510"/>
      <point x="326" y="448" type="curve" smooth="yes"/>
      <point x="326" y="377"/>
      <point x="272" y="295"/>
      <point x="139" y="254" type="curve"/>
    </contour>
  </outline>
</glyph>
<glyph name="four" format="2">
  <advance width="581"/>
  <unicode hex="0034"/>
  <outline>
    <contour>
      <point x="445" y="-116" type="curve"/>
      <point x="445" y="529" type="line" smooth="yes"/>
      <point x="445" y="548"/>
      <point x="445" y="569"/>
      <point x="447" y="620" type="curve"/>
      <point x="424" y="624"/>
      <point x="397" y="626"/>
      <point x="370" y="626" type="curve"/>
      <point x="249" y="473"/>
      <point x="136" y="324"/>
      <point x="20" y="165" type="curve"/>
      <point x="20" y="147"/>
      <point x="21" y="127"/>
      <point x="23" y="109" type="curve"/>
      <point x="551" y="109" type="line"/>
      <point x="553" y="133"/>
      <point x="555" y="160"/>
      <point x="556" y="187" type="curve"/>
      <point x="56" y="187" type="line"/>
      <point x="70" y="161" type="line"/>
      <point x="167" y="297"/>
      <point x="259" y="421"/>
      <point x="365" y="555" type="curve"/>
      <point x="345" y="576" type="line"/>
      <point x="345" y="-116" type="line"/>
      <point x="378" y="-118"/>
      <point x="412" y="-118"/>
    </contour>
  </outline>
</glyph>
<glyph name="five" format="2">
  <advance width="547"/>
  <unicode hex="0035"/>
  <outline>
    <contour>
      <point x="206" y="-139" type="curve" smooth="yes"/>
      <point x="362" y="-139"/>
      <point x="497" y="-28"/>
      <point x="497" y="133" type="curve" smooth="yes"/>
      <point x="497" y="256"/>
      <point x="419" y="364"/>
      <point x="234" y="364" type="curve" smooth="yes"/>
      <point x="201" y="364"/>
      <point x="165" y="361"/>
      <point x="126" y="354" type="curve"/>
      <point x="137" y="344" type="line"/>
      <point x="165" y="534" type="line"/>
      <point x="153" y="520" type="line"/>
      <point x="459" y="520" type="line"/>
      <point x="467" y="550"/>
      <point x="474" y="589"/>
      <point x="478" y="620" type="curve"/>
      <point x="133" y="613" type="line"/>
      <point x="81" y="265" type="line"/>
      <point x="88" y="262" type="line"/>
      <point x="128" y="273"/>
      <point x="170" y="277"/>
      <point x="201" y="277" type="curve" smooth="yes"/>
      <point x="347" y="277"/>
      <point x="399" y="190"/>
      <point x="399" y="100" type="curve" smooth="yes"/>
      <point x="399" y="-4"/>
      <point x="333" y="-101"/>
      <point x="210" y="-101" type="curve" smooth="yes"/>
      <point x="194" y="-101"/>
      <point x="179" y="-100"/>
      <point x="154" y="-96" type="curve"/>
      <point x="172" y="-116" type="line"/>
      <point x="164" y="-31"/>
      <point x="118" y="10"/>
      <point x="76" y="10" type="curve" smooth="yes"/>
      <point x="50" y="10"/>
      <point x="30" y="-7"/>
      <point x="30" y="-36" type="curve" smooth="yes"/>
      <point x="30" y="-68"/>
      <point x="66" y="-139"/>
    </contour>
  </outline>
</glyph>
<glyph name="six" format="2">
  <advance width="571"/>
  <unicode hex="0036"/>
  <outline>
    <contour>
      <point x="293" y="-12" type="curve" smooth="yes"/>
      <point x="413" y="-12"/>
      <point x="533" y="70"/>
      <point x="533" y="236" type="curve" smooth="yes"/>
      <point x="533" y="392"/>
      <point x="427" y="460"/>
      <point x="318" y="460" type="curve" smooth="yes"/>
      <point x="261" y="460"/>
      <point x="203" y="443"/>
      <point x="157" y="410" type="curve"/>
      <point x="148" y="362" type="line"/>
      <point x="187" y="392"/>
      <point x="231" y="407"/>
      <point x="270" y="407" type="curve" smooth="yes"/>
      <point x="348" y="407"/>
      <point x="420" y="348"/>
      <point x="420" y="207" type="curve" smooth="yes"/>
      <point x="420" y="76"/>
      <point x="357" y="26"/>
      <point x="299" y="26" type="curve" smooth="yes"/>
      <point x="227" y="26"/>
      <point x="155" y="100"/>
      <point x="155" y="293" type="curve" smooth="yes"/>
      <point x="155" y="521"/>
      <point x="267" y="707"/>
      <point x="472" y="707" type="curve" smooth="yes"/>
      <point x="491" y="707"/>
      <point x="501" y="706"/>
      <point x="508" y="705" type="curve"/>
      <point x="511" y="718"/>
      <point x="512" y="729"/>
      <point x="512" y="742" type="curve"/>
      <point x="499" y="744"/>
      <point x="483" y="744"/>
      <point x="478" y="744" type="curve" smooth="yes"/>
      <point x="185" y="744"/>
      <point x="44" y="499"/>
      <point x="44" y="280" type="curve" smooth="yes"/>
      <point x="44" y="71"/>
      <point x="172" y="-12"/>
    </contour>
  </outline>
</glyph>
<glyph name="seven" format="2">
  <advance width="503"/>
  <unicode hex="0037"/>
  <outline>
    <contour>
      <point x="167" y="-117" type="curve" smooth="yes"/>
      <point x="184" y="-117"/>
      <point x="207" y="-117"/>
      <point x="222" y="-116" type="curve"/>
      <point x="285" y="100"/>
      <point x="392" y="371"/>
      <point x="481" y="589" type="curve"/>
      <point x="480" y="602"/>
      <point x="479" y="608"/>
      <point x="477" y="618" type="curve"/>
      <point x="453" y="615"/>
      <point x="376" y="615"/>
      <point x="320" y="615" type="curve" smooth="yes"/>
      <point x="220" y="615"/>
      <point x="133" y="616"/>
      <point x="47" y="620" type="curve"/>
      <point x="41" y="561"/>
      <point x="31" y="498"/>
      <point x="17" y="432" type="curve"/>
      <point x="28" y="427"/>
      <point x="40" y="427"/>
      <point x="49" y="427" type="curve"/>
      <point x="82" y="520"/>
      <point x="95" y="524"/>
      <point x="152" y="526" type="curve" smooth="yes"/>
      <point x="181" y="527"/>
      <point x="207" y="527"/>
      <point x="228" y="527" type="curve" smooth="yes"/>
      <point x="343" y="527"/>
      <point x="458" y="526"/>
      <point x="435" y="526" type="curve"/>
      <point x="426" y="555" type="line"/>
      <point x="321" y="332"/>
      <point x="214" y="118"/>
      <point x="114" y="-103" type="curve"/>
      <point x="119" y="-116" type="line"/>
      <point x="136" y="-117"/>
      <point x="151" y="-117"/>
    </contour>
  </outline>
</glyph>
<glyph name="greater" format="2">
  <advance width="581"/>
  <unicode hex="003E"/>
  <outline>
    <contour>
      <point x="520" y="219" type="line"/>
      <point x="523" y="232"/>
      <point x="523" y="245"/>
      <point x="520" y="258" type="curve"/>
      <point x="77" y="464" type="line"/>
      <point x="69" y="450"/>
      <point x="59" y="429"/>
      <point x="54" y="415" type="curve"/>
      <point x="453" y="233" type="line"/>
      <point x="453" y="243" type="line"/>
      <point x="54" y="62" type="line"/>
      <point x="60" y="47"/>
      <point x="70" y="26"/>
      <point x="77" y="13" type="curve"/>
    </contour>
  </outline>
</glyph>
<glyph name="question" format="2">
  <advance width="412"/>
  <unicode hex="003F"/>
  <outline>
    <contour>
      <point x="148" y="202" type="line"/>
      <point x="160" y="201"/>
      <point x="174" y="201"/>
      <point x="185" y="202" type="curve"/>
      <point x="194" y="309" type="line"/>
      <point x="175" y="297" type="line"/>
      <point x="322" y="294"/>
      <point x="377" y="328"/>
      <point x="377" y="437" type="curve" smooth="yes"/>
      <point x="377" y="489"/>
      <point x="365" y="531"/>
      <point x="342" y="570" type="curve" smooth="yes"/>
      <point x="296" y="648"/>
      <point x="207" y="711"/>
      <point x="137" y="711" type="curve" smooth="yes"/>
      <point x="95" y="711"/>
      <point x="65" y="689"/>
      <point x="65" y="657" type="curve" smooth="yes"/>
      <point x="65" y="625"/>
      <point x="94" y="607"/>
      <point x="131" y="607" type="curve" smooth="yes"/>
      <point x="161" y="607"/>
      <point x="195" y="619"/>
      <point x="226" y="639" type="curve"/>
      <point x="203" y="637" type="line"/>
      <point x="278" y="607"/>
      <point x="328" y="531"/>
      <point x="328" y="461" type="curve" smooth="yes"/>
      <point x="328" y="408"/>
      <point x="298" y="394"/>
      <point x="157" y="394" type="curve"/>
      <point x="156" y="394"/>
      <point x="149" y="394"/>
      <point x="128" y="395" type="curve"/>
    </contour>
    <contour>
      <point x="170" y="-12" type="curve" smooth="yes"/>
      <point x="212" y="-12"/>
      <point x="242" y="21"/>
      <point x="242" y="60" type="curve" smooth="yes"/>
      <point x="242" y="99"/>
      <point x="212" y="133"/>
      <point x="170" y="133" type="curve" smooth="yes"/>
      <point x="128" y="133"/>
      <point x="98" y="101"/>
      <point x="98" y="60" type="curve" smooth="yes"/>
      <point x="98" y="19"/>
      <point x="128" y="-12"/>
    </contour>
  </outline>
</glyph>
<glyph name="at" format="2">
  <advance width="916"/>
  <unicode hex="0040"/>
  <outline>
    <contour>
      <point x="442" y="-193" type="curve" smooth="yes"/>
      <point x="553" y="-193"/>
      <point x="667" y="-158"/>
      <point x="748" y="-77" type="curve"/>
      <point x="743" y="-70"/>
      <point x="735" y="-60"/>
      <point x="727" y="-54" type="curve"/>
      <point x="650" y="-119"/>
      <point x="554" y="-151"/>
      <point x="458" y="-151" type="curve" smooth="yes"/>
      <point x="260" y="-151"/>
      <point x="118" y="-18"/>
      <point x="118" y="190" type="curve" smooth="yes"/>
      <point x="118" y="412"/>
      <point x="283" y="583"/>
      <point x="502" y="583" type="curve" smooth="yes"/>
      <point x="668" y="583"/>
      <point x="803" y="485"/>
      <point x="803" y="300" type="curve" smooth="yes"/>
      <point x="803" y="126"/>
      <point x="686" y="33"/>
      <point x="620" y="33" type="curve" smooth="yes"/>
      <point x="589" y="33"/>
      <point x="581" y="54"/>
      <point x="581" y="78" type="curve" smooth="yes"/>
      <point x="581" y="95"/>
      <point x="585" y="111"/>
      <point x="586" y="118" type="curve" smooth="yes"/>
      <point x="593" y="160"/>
      <point x="663" y="436"/>
      <point x="664" y="438" type="curve"/>
      <point x="662" y="441" type="line"/>
      <point x="583" y="425" type="line"/>
      <point x="559" y="367" type="line"/>
      <point x="521" y="215" type="line"/>
      <point x="508" y="125" type="line"/>
      <point x="503" y="100"/>
      <point x="500" y="90"/>
      <point x="500" y="76" type="curve" smooth="yes"/>
      <point x="500" y="21"/>
      <point x="536" y="-8"/>
      <point x="593" y="-8" type="curve" smooth="yes"/>
      <point x="703" y="-8"/>
      <point x="865" y="99"/>
      <point x="865" y="302" type="curve" smooth="yes"/>
      <point x="865" y="505"/>
      <point x="703" y="623"/>
      <point x="504" y="623" type="curve" smooth="yes"/>
      <point x="261" y="623"/>
      <point x="50" y="444"/>
      <point x="50" y="184" type="curve" smooth="yes"/>
      <point x="50" y="-47"/>
      <point x="215" y="-193"/>
    </contour>
    <contour>
      <point x="337" y="-8" type="curve" smooth="yes"/>
      <point x="403" y="-8"/>
      <point x="464" y="48"/>
      <point x="500" y="103" type="curve"/>
      <point x="518" y="97" type="line"/>
      <point x="521" y="215" type="line"/>
      <point x="501" y="135"/>
      <point x="434" y="50"/>
      <point x="380" y="50" type="curve" smooth="yes"/>
      <point x="348" y="50"/>
      <point x="335" y="80"/>
      <point x="335" y="130" type="curve" smooth="yes"/>
      <point x="335" y="232"/>
      <point x="390" y="402"/>
      <point x="480" y="402" type="curve" smooth="yes"/>
      <point x="507" y="402"/>
      <point x="541" y="386"/>
      <point x="573" y="354" type="curve"/>
      <point x="599" y="417" type="line"/>
      <point x="563" y="435"/>
      <point x="534" y="445"/>
      <point x="502" y="445" type="curve" smooth="yes"/>
      <point x="357" y="445"/>
      <point x="244" y="239"/>
      <point x="244" y="109" type="curve" smooth="yes"/>
      <point x="244" y="38"/>
      <point x="278" y="-8"/>
    </contour>
  </outline>
</glyph>
<glyph name="C" format="2">
  <advance width="721"/>
  <unicode hex="0043"/>
  <outline>
    <contour>
      <point x="414" y="-14" type="curve" smooth="yes"/>
      <point x="501" y="-14"/>
      <point x="574" y="7"/>
      <point x="648" y="28" type="curve"/>
      <point x="652" y="90"/>
      <point x="658" y="149"/>
      <point x="666" y="207" type="curve"/>
      <point x="653" y="208"/>
      <point x="642" y="208"/>
      <point x="631" y="208" type="curve"/>
      <point x="602" y="84"/>
      <point x="538" y="27"/>
      <point x="427" y="27" type="curve" smooth="yes"/>
      <point x="250" y="27"/>
      <point x="175" y="174"/>
      <point x="175" y="351" type="curve" smooth="yes"/>
      <point x="175" y="515"/>
      <point x="241" y="671"/>
      <point x="420" y="671" type="curve" smooth="yes"/>
      <point x="532" y="671"/>
      <point x="599" y="611"/>
      <point x="625" y="490" type="curve"/>
      <point x="635" y="489"/>
      <point x="647" y="490"/>
      <point x="659" y="492" type="curve"/>
      <point x="654" y="560"/>
      <point x="651" y="622"/>
      <point x="649" y="681" type="curve"/>
      <point x="643" y="680"/>
      <point x="635" y="679"/>
      <point x="628" y="679" type="curve" smooth="yes"/>
      <point x="607" y="679"/>
      <point x="588" y="685"/>
      <point x="562" y="691" type="curve" smooth="yes"/>
      <point x="503" y="704"/>
      <point x="469" y="711"/>
      <point x="415" y="711" type="curve" smooth="yes"/>
      <point x="193" y="711"/>
      <point x="50" y="559"/>
      <point x="50" y="341" type="curve" smooth="yes"/>
      <point x="50" y="125"/>
      <point x="192" y="-14"/>
    </contour>
  </outline>
</glyph>
<glyph name="D" format="2">
  <advance width="774"/>
  <unicode hex="0044"/>
  <outline>
    <contour>
      <point x="33" y="-1" type="curve"/>
      <point x="72" y="-1"/>
      <point x="155" y="1"/>
      <point x="187" y="1" type="curve" smooth="yes"/>
      <point x="222" y="1"/>
      <point x="292" y="-1"/>
      <point x="321" y="-1" type="curve" smooth="yes"/>
      <point x="557" y="-1"/>
      <point x="724" y="135"/>
      <point x="724" y="372" type="curve" smooth="yes"/>
      <point x="724" y="587"/>
      <point x="587" y="701"/>
      <point x="325" y="701" type="curve" smooth="yes"/>
      <point x="290" y="701"/>
      <point x="229" y="699"/>
      <point x="188" y="699" type="curve" smooth="yes"/>
      <point x="149" y="699"/>
      <point x="75" y="701"/>
      <point x="33" y="701" type="curve"/>
      <point x="32" y="690"/>
      <point x="32" y="679"/>
      <point x="33" y="669" type="curve"/>
      <point x="125" y="661"/>
      <point x="130" y="659"/>
      <point x="130" y="576" type="curve" smooth="yes"/>
      <point x="130" y="111" type="line" smooth="yes"/>
      <point x="130" y="39"/>
      <point x="126" y="40"/>
      <point x="33" y="31" type="curve"/>
      <point x="32" y="20"/>
      <point x="32" y="9"/>
    </contour>
    <contour>
      <point x="340" y="40" type="curve" smooth="yes"/>
      <point x="306" y="40"/>
      <point x="272" y="45"/>
      <point x="241" y="54" type="curve"/>
      <point x="240" y="68"/>
      <point x="240" y="91"/>
      <point x="240" y="124" type="curve" smooth="yes"/>
      <point x="240" y="655" type="line"/>
      <point x="253" y="656"/>
      <point x="286" y="660"/>
      <point x="320" y="660" type="curve" smooth="yes"/>
      <point x="507" y="660"/>
      <point x="603" y="541"/>
      <point x="603" y="354" type="curve" smooth="yes"/>
      <point x="603" y="174"/>
      <point x="514" y="40"/>
    </contour>
  </outline>
</glyph>
<glyph name="G" format="2">
  <advance width="788"/>
  <unicode hex="0047"/>
  <outline>
    <contour>
      <point x="424" y="-15" type="curve" smooth="yes"/>
      <point x="503" y="-15"/>
      <point x="592" y="1"/>
      <point x="684" y="32" type="curve"/>
      <point x="584" y="57" type="line"/>
      <point x="539" y="37"/>
      <point x="484" y="28"/>
      <point x="442" y="28" type="curve" smooth="yes"/>
      <point x="261" y="28"/>
      <point x="175" y="162"/>
      <point x="175" y="352" type="curve" smooth="yes"/>
      <point x="175" y="524"/>
      <point x="245" y="671"/>
      <point x="433" y="671" type="curve" smooth="yes"/>
      <point x="550" y="671"/>
      <point x="620" y="613"/>
      <point x="647" y="490" type="curve"/>
      <point x="657" y="489"/>
      <point x="670" y="490"/>
      <point x="682" y="492" type="curve"/>
      <point x="677" y="560"/>
      <point x="674" y="622"/>
      <point x="672" y="681" type="curve"/>
      <point x="664" y="679"/>
      <point x="656" y="678"/>
      <point x="648" y="678" type="curve" smooth="yes"/>
      <point x="627" y="678"/>
      <point x="606" y="684"/>
      <point x="581" y="691" type="curve" smooth="yes"/>
      <point x="539" y="703"/>
      <point x="476" y="711"/>
      <point x="426" y="711" type="curve" smooth="yes"/>
      <point x="197" y="711"/>
      <point x="50" y="565"/>
      <point x="50" y="341" type="curve" smooth="yes"/>
      <point x="50" y="116"/>
      <point x="198" y="-15"/>
    </contour>
    <contour>
      <point x="684" y="32" type="line"/>
      <point x="681" y="50"/>
      <point x="677" y="94"/>
      <point x="677" y="157" type="curve" smooth="yes"/>
      <point x="677" y="189" type="line" smooth="yes"/>
      <point x="677" y="260"/>
      <point x="680" y="260"/>
      <point x="762" y="270" type="curve"/>
      <point x="763" y="280"/>
      <point x="763" y="291"/>
      <point x="762" y="301" type="curve"/>
      <point x="723" y="301"/>
      <point x="662" y="299"/>
      <point x="621" y="299" type="curve" smooth="yes"/>
      <point x="580" y="299"/>
      <point x="501" y="301"/>
      <point x="459" y="301" type="curve"/>
      <point x="457" y="291"/>
      <point x="457" y="279"/>
      <point x="459" y="269" type="curve"/>
      <point x="564" y="261"/>
      <point x="569" y="260"/>
      <point x="569" y="177" type="curve" smooth="yes"/>
      <point x="569" y="35" type="line"/>
    </contour>
  </outline>
</glyph>
<glyph name="J" format="2">
  <advance width="329"/>
  <unicode hex="004A"/>
  <outline>
    <contour>
      <point x="3" y="-242" type="curve" smooth="yes"/>
      <point x="61" y="-242"/>
      <point x="118" y="-215"/>
      <point x="160" y="-163" type="curve" smooth="yes"/>
      <point x="203" y="-109"/>
      <point x="224" y="-35"/>
      <point x="224" y="74" type="curve" smooth="yes"/>
      <point x="224" y="589" type="line" smooth="yes"/>
      <point x="224" y="661"/>
      <point x="228" y="660"/>
      <point x="324" y="669" type="curve"/>
      <point x="325" y="680"/>
      <point x="325" y="691"/>
      <point x="324" y="701" type="curve"/>
      <point x="282" y="701"/>
      <point x="213" y="699"/>
      <point x="171" y="699" type="curve" smooth="yes"/>
      <point x="131" y="699"/>
      <point x="55" y="701"/>
      <point x="16" y="701" type="curve"/>
      <point x="14" y="690"/>
      <point x="14" y="679"/>
      <point x="16" y="669" type="curve"/>
      <point x="111" y="661"/>
      <point x="115" y="659"/>
      <point x="115" y="576" type="curve" smooth="yes"/>
      <point x="115" y="26" type="line" smooth="yes"/>
      <point x="115" y="-101"/>
      <point x="115" y="-196"/>
      <point x="38" y="-191" type="curve"/>
      <point x="68" y="-202" type="line"/>
      <point x="48" y="-153"/>
      <point x="13" y="-123"/>
      <point x="-28" y="-123" type="curve" smooth="yes"/>
      <point x="-63" y="-123"/>
      <point x="-90" y="-144"/>
      <point x="-90" y="-178" type="curve" smooth="yes"/>
      <point x="-90" y="-223"/>
      <point x="-44" y="-242"/>
    </contour>
  </outline>
</glyph>
<glyph name="Q" format="2">
  <advance width="802"/>
  <unicode hex="0051"/>
  <outline>
    <contour>
      <point x="672" y="-242" type="curve" smooth="yes"/>
      <point x="734" y="-242"/>
      <point x="800" y="-216"/>
      <point x="856" y="-169" type="curve"/>
      <point x="852" y="-160"/>
      <point x="846" y="-149"/>
      <point x="841" y="-142" type="curve"/>
      <point x="815" y="-152"/>
      <point x="789" y="-157"/>
      <point x="756" y="-157" type="curve" smooth="yes"/>
      <point x="661" y="-157"/>
      <point x="594" y="-122"/>
      <point x="470" y="-9" type="curve"/>
      <point x="470" y="4" type="line"/>
      <point x="454" y="-8" type="line"/>
      <point x="635" y="13"/>
      <point x="752" y="156"/>
      <point x="752" y="354" type="curve" smooth="yes"/>
      <point x="752" y="568"/>
      <point x="614" y="711"/>
      <point x="407" y="711" type="curve" smooth="yes"/>
      <point x="194" y="711"/>
      <point x="50" y="561"/>
      <point x="50" y="340" type="curve" smooth="yes"/>
      <point x="50" y="154"/>
      <point x="153" y="23"/>
      <point x="323" y="-9" type="curve" smooth="yes"/>
      <point x="376" y="-19"/>
      <point x="393" y="-10"/>
      <point x="424" y="-47" type="curve" smooth="yes"/>
      <point x="438" y="-63"/>
      <point x="450" y="-81"/>
      <point x="463" y="-100" type="curve" smooth="yes"/>
      <point x="512" y="-169"/>
      <point x="563" y="-242"/>
    </contour>
    <contour>
      <point x="406" y="25" type="curve" smooth="yes"/>
      <point x="266" y="25"/>
      <point x="175" y="153"/>
      <point x="175" y="350" type="curve" smooth="yes"/>
      <point x="175" y="545"/>
      <point x="264" y="670"/>
      <point x="403" y="670" type="curve" smooth="yes"/>
      <point x="541" y="670"/>
      <point x="628" y="544"/>
      <point x="628" y="344" type="curve" smooth="yes"/>
      <point x="628" y="146"/>
      <point x="544" y="25"/>
    </contour>
  </outline>
</glyph>
<glyph name="U" format="2">
  <advance width="767"/>
  <unicode hex="0055"/>
  <outline>
    <contour>
      <point x="382" y="-11" type="curve" smooth="yes"/>
      <point x="569" y="-11"/>
      <point x="660" y="93"/>
      <point x="660" y="271" type="curve" smooth="yes"/>
      <point x="660" y="579" type="line" smooth="yes"/>
      <point x="660" y="660"/>
      <point x="666" y="659"/>
      <point x="759" y="669" type="curve"/>
      <point x="761" y="680"/>
      <point x="761" y="690"/>
      <point x="759" y="700" type="curve"/>
      <point x="722" y="700"/>
      <point x="664" y="698"/>
      <point x="631" y="698" type="curve" smooth="yes"/>
      <point x="600" y="698"/>
      <point x="541" y="700"/>
      <point x="505" y="700" type="curve"/>
      <point x="503" y="689"/>
      <point x="503" y="679"/>
      <point x="505" y="669" type="curve"/>
      <point x="605" y="659"/>
      <point x="611" y="659"/>
      <point x="611" y="566" type="curve" smooth="yes"/>
      <point x="611" y="292" type="line" smooth="yes"/>
      <point x="611" y="121"/>
      <point x="544" y="42"/>
      <point x="413" y="42" type="curve" smooth="yes"/>
      <point x="289" y="42"/>
      <point x="223" y="113"/>
      <point x="223" y="263" type="curve" smooth="yes"/>
      <point x="223" y="590" type="line" smooth="yes"/>
      <point x="223" y="661"/>
      <point x="228" y="661"/>
      <point x="321" y="670" type="curve"/>
      <point x="323" y="681"/>
      <point x="323" y="691"/>
      <point x="321" y="701" type="curve"/>
      <point x="281" y="701"/>
      <point x="205" y="699"/>
      <point x="167" y="699" type="curve" smooth="yes"/>
      <point x="128" y="699"/>
      <point x="54" y="701"/>
      <point x="14" y="701" type="curve"/>
      <point x="12" y="690"/>
      <point x="12" y="680"/>
      <point x="14" y="670" type="curve"/>
      <point x="108" y="662"/>
      <point x="113" y="660"/>
      <point x="113" y="577" type="curve" smooth="yes"/>
      <point x="113" y="233" type="line" smooth="yes"/>
      <point x="113" y="66"/>
      <point x="222" y="-11"/>
    </contour>
  </outline>
</glyph>
<glyph name="V" format="2">
  <advance width="678"/>
  <unicode hex="0056"/>
  <outline>
    <contour>
      <point x="311" y="-7" type="line"/>
      <point x="326" y="-7"/>
      <point x="349" y="-4"/>
      <point x="365" y="1" type="curve"/>
      <point x="586" y="558" type="line" smooth="yes"/>
      <point x="627" y="662"/>
      <point x="638" y="662"/>
      <point x="716" y="669" type="curve"/>
      <point x="718" y="679"/>
      <point x="718" y="691"/>
      <point x="716" y="701" type="curve"/>
      <point x="674" y="701"/>
      <point x="644" y="699"/>
      <point x="602" y="699" type="curve" smooth="yes"/>
      <point x="571" y="699"/>
      <point x="486" y="701"/>
      <point x="456" y="701" type="curve"/>
      <point x="454" y="691"/>
      <point x="454" y="680"/>
      <point x="456" y="669" type="curve"/>
      <point x="530" y="663"/>
      <point x="553" y="657"/>
      <point x="553" y="630" type="curve" smooth="yes"/>
      <point x="553" y="618"/>
      <point x="547" y="600"/>
      <point x="538" y="575" type="curve" smooth="yes"/>
      <point x="363" y="114" type="line"/>
      <point x="379" y="113" type="line"/>
      <point x="200" y="593" type="line" smooth="yes"/>
      <point x="193" y="611"/>
      <point x="188" y="625"/>
      <point x="188" y="635" type="curve" smooth="yes"/>
      <point x="188" y="659"/>
      <point x="212" y="664"/>
      <point x="283" y="669" type="curve"/>
      <point x="285" y="680"/>
      <point x="285" y="691"/>
      <point x="283" y="701" type="curve"/>
      <point x="239" y="701"/>
      <point x="168" y="699"/>
      <point x="125" y="699" type="curve" smooth="yes"/>
      <point x="77" y="699"/>
      <point x="24" y="701"/>
      <point x="-23" y="701" type="curve"/>
      <point x="-25" y="691"/>
      <point x="-25" y="679"/>
      <point x="-23" y="669" type="curve"/>
      <point x="55" y="661"/>
      <point x="59" y="659"/>
      <point x="95" y="563" type="curve" smooth="yes"/>
    </contour>
  </outline>
</glyph>
<glyph name="X" format="2">
  <advance width="696"/>
  <unicode hex="0058"/>
  <outline>
    <contour>
      <point x="380" y="-1" type="curve"/>
      <point x="424" y="-1"/>
      <point x="502" y="1"/>
      <point x="545" y="1" type="curve" smooth="yes"/>
      <point x="595" y="1"/>
      <point x="647" y="-1"/>
      <point x="696" y="-1" type="curve"/>
      <point x="697" y="9"/>
      <point x="697" y="21"/>
      <point x="696" y="31" type="curve"/>
      <point x="619" y="39"/>
      <point x="604" y="46"/>
      <point x="548" y="134" type="curve" smooth="yes"/>
      <point x="252" y="598" type="line" smooth="yes"/>
      <point x="239" y="619"/>
      <point x="232" y="631"/>
      <point x="232" y="641" type="curve" smooth="yes"/>
      <point x="232" y="658"/>
      <point x="253" y="664"/>
      <point x="310" y="669" type="curve"/>
      <point x="311" y="680"/>
      <point x="311" y="691"/>
      <point x="310" y="701" type="curve"/>
      <point x="267" y="701"/>
      <point x="192" y="699"/>
      <point x="149" y="699" type="curve" smooth="yes"/>
      <point x="100" y="699"/>
      <point x="45" y="701"/>
      <point x="-3" y="701" type="curve"/>
      <point x="-5" y="691"/>
      <point x="-5" y="679"/>
      <point x="-3" y="669" type="curve"/>
      <point x="73" y="661"/>
      <point x="88" y="653"/>
      <point x="144" y="566" type="curve" smooth="yes"/>
      <point x="442" y="101" type="line" smooth="yes"/>
      <point x="454" y="82"/>
      <point x="462" y="69"/>
      <point x="462" y="59" type="curve" smooth="yes"/>
      <point x="462" y="42"/>
      <point x="439" y="36"/>
      <point x="380" y="31" type="curve"/>
      <point x="379" y="20"/>
      <point x="379" y="9"/>
    </contour>
    <contour>
      <point x="142" y="141" type="line" smooth="yes"/>
      <point x="76" y="52"/>
      <point x="59" y="39"/>
      <point x="-19" y="31" type="curve"/>
      <point x="-20" y="21"/>
      <point x="-20" y="9"/>
      <point x="-19" y="-1" type="curve"/>
      <point x="11" y="-1"/>
      <point x="52" y="1"/>
      <point x="95" y="1" type="curve" smooth="yes"/>
      <point x="123" y="1"/>
      <point x="217" y="-1"/>
      <point x="246" y="-1" type="curve"/>
      <point x="247" y="9"/>
      <point x="247" y="20"/>
      <point x="246" y="31" type="curve"/>
      <point x="184" y="37"/>
      <point x="156" y="43"/>
      <point x="156" y="62" type="curve" smooth="yes"/>
      <point x="156" y="72"/>
      <point x="164" y="85"/>
      <point x="178" y="105" type="curve" smooth="yes"/>
      <point x="324" y="307" type="line"/>
      <point x="296" y="349" type="line"/>
    </contour>
    <contour>
      <point x="522" y="559" type="line" smooth="yes"/>
      <point x="589" y="649"/>
      <point x="606" y="661"/>
      <point x="683" y="669" type="curve"/>
      <point x="685" y="679"/>
      <point x="685" y="691"/>
      <point x="683" y="701" type="curve"/>
      <point x="660" y="701"/>
      <point x="613" y="699"/>
      <point x="570" y="699" type="curve" smooth="yes"/>
      <point x="542" y="699"/>
      <point x="452" y="701"/>
      <point x="424" y="701" type="curve"/>
      <point x="422" y="691"/>
      <point x="422" y="680"/>
      <point x="424" y="669" type="curve"/>
      <point x="483" y="662"/>
      <point x="509" y="657"/>
      <point x="509" y="638" type="curve" smooth="yes"/>
      <point x="509" y="628"/>
      <point x="502" y="616"/>
      <point x="488" y="596" type="curve" smooth="yes"/>
      <point x="356" y="414" type="line"/>
      <point x="383" y="372" type="line"/>
    </contour>
  </outline>
</glyph>
<glyph name="asciicircum" format="2">
  <advance width="584"/>
  <unicode hex="005E"/>
  <outline>
    <contour>
      <point x="75" y="348" type="line"/>
      <point x="88" y="341"/>
      <point x="105" y="333"/>
      <point x="119" y="327" type="curve"/>
      <point x="298" y="653" type="line"/>
      <point x="286" y="653" type="line"/>
      <point x="465" y="327" type="line"/>
      <point x="479" y="333"/>
      <point x="495" y="341"/>
      <point x="509" y="348" type="curve"/>
      <point x="311" y="710" type="line"/>
      <point x="300" y="711"/>
      <point x="284" y="712"/>
      <point x="273" y="711" type="curve"/>
    </contour>
  </outline>
</glyph>
<glyph name="underscore" format="2">
  <advance width="400"/>
  <unicode hex="005F"/>
  <outline>
    <contour>
      <point x="-35" y="-133" type="line"/>
      <point x="435" y="-133" type="line"/>
      <point x="435" y="-88" type="line"/>
      <point x="-35" y="-88" type="line"/>
    </contour>
  </outline>
</glyph>
<glyph name="b" format="2">
  <advance width="580"/>
  <unicode hex="0062"/>
  <outline>
    <contour>
      <point x="284" y="-12" type="curve" smooth="yes"/>
      <point x="436" y="-12"/>
      <point x="540" y="114"/>
      <point x="540" y="257" type="curve" smooth="yes"/>
      <point x="540" y="378"/>
      <point x="467" y="492"/>
      <point x="341" y="492" type="curve" smooth="yes"/>
      <point x="285" y="492"/>
      <point x="228" y="470"/>
      <point x="165" y="404" type="curve"/>
      <point x="171" y="365" type="line"/>
      <point x="207" y="410"/>
      <point x="250" y="430"/>
      <point x="295" y="430" type="curve" smooth="yes"/>
      <point x="400" y="430"/>
      <point x="436" y="321"/>
      <point x="436" y="223" type="curve" smooth="yes"/>
      <point x="436" y="122"/>
      <point x="398" y="27"/>
      <point x="296" y="27" type="curve" smooth="yes"/>
      <point x="248" y="27"/>
      <point x="207" y="49"/>
      <point x="174" y="93" type="curve"/>
      <point x="120" y="35" type="line"/>
      <point x="174" y="5"/>
      <point x="228" y="-12"/>
    </contour>
    <contour>
      <point x="108" y="-7" type="curve"/>
      <point x="119" y="9"/>
      <point x="132" y="22"/>
      <point x="146" y="41" type="curve"/>
      <point x="185" y="63" type="line"/>
      <point x="185" y="392" type="line"/>
      <point x="186" y="410" type="line"/>
      <point x="186" y="638" type="line" smooth="yes"/>
      <point x="186" y="682"/>
      <point x="186" y="719"/>
      <point x="188" y="749" type="curve"/>
      <point x="171" y="755" type="line"/>
      <point x="112" y="730"/>
      <point x="56" y="717"/>
      <point x="3" y="710" type="curve"/>
      <point x="1" y="700"/>
      <point x="1" y="692"/>
      <point x="3" y="683" type="curve"/>
      <point x="43" y="680"/>
      <point x="64" y="675"/>
      <point x="75" y="660" type="curve" smooth="yes"/>
      <point x="83" y="648"/>
      <point x="85" y="631"/>
      <point x="85" y="605" type="curve" smooth="yes"/>
      <point x="85" y="114" type="line" smooth="yes"/>
      <point x="85" y="60"/>
      <point x="85" y="21"/>
      <point x="83" y="-3" type="curve"/>
      <point x="90" y="-5"/>
      <point x="99" y="-6"/>
    </contour>
  </outline>
</glyph>
<glyph name="d" format="2">
  <advance width="589"/>
  <unicode hex="0064"/>
  <outline>
    <contour>
      <point x="416" y="-13" type="line"/>
      <point x="463" y="1"/>
      <point x="513" y="10"/>
      <point x="567" y="18" type="curve"/>
      <point x="569" y="27"/>
      <point x="569" y="36"/>
      <point x="567" y="45" type="curve"/>
      <point x="495" y="56"/>
      <point x="495" y="66"/>
      <point x="495" y="142" type="curve" smooth="yes"/>
      <point x="495" y="638" type="line" smooth="yes"/>
      <point x="495" y="682"/>
      <point x="495" y="719"/>
      <point x="497" y="749" type="curve"/>
      <point x="480" y="755" type="line"/>
      <point x="421" y="730"/>
      <point x="365" y="717"/>
      <point x="312" y="710" type="curve"/>
      <point x="310" y="700"/>
      <point x="310" y="692"/>
      <point x="312" y="683" type="curve"/>
      <point x="349" y="680"/>
      <point x="370" y="676"/>
      <point x="381" y="663" type="curve" smooth="yes"/>
      <point x="391" y="652"/>
      <point x="394" y="634"/>
      <point x="394" y="605" type="curve" smooth="yes"/>
      <point x="394" y="461" type="line"/>
      <point x="395" y="408" type="line"/>
      <point x="395" y="80" type="line"/>
      <point x="400" y="-6" type="line"/>
    </contour>
    <contour>
      <point x="244" y="-12" type="curve" smooth="yes"/>
      <point x="307" y="-12"/>
      <point x="355" y="16"/>
      <point x="405" y="73" type="curve"/>
      <point x="402" y="120" type="line"/>
      <point x="375" y="75"/>
      <point x="338" y="51"/>
      <point x="288" y="51" type="curve" smooth="yes"/>
      <point x="181" y="51"/>
      <point x="143" y="157"/>
      <point x="143" y="261" type="curve" smooth="yes"/>
      <point x="143" y="380"/>
      <point x="190" y="451"/>
      <point x="282" y="451" type="curve" smooth="yes"/>
      <point x="334" y="451"/>
      <point x="375" y="427"/>
      <point x="405" y="377" type="curve"/>
      <point x="411" y="471" type="line"/>
      <point x="368" y="487"/>
      <point x="330" y="492"/>
      <point x="294" y="492" type="curve" smooth="yes"/>
      <point x="139" y="492"/>
      <point x="39" y="371"/>
      <point x="39" y="226" type="curve" smooth="yes"/>
      <point x="39" y="100"/>
      <point x="119" y="-12"/>
    </contour>
  </outline>
</glyph>
<glyph name="e" format="2">
  <advance width="497"/>
  <unicode hex="0065"/>
  <outline>
    <contour>
      <point x="259" y="-12" type="curve" smooth="yes"/>
      <point x="334" y="-12"/>
      <point x="400" y="19"/>
      <point x="457" y="81" type="curve"/>
      <point x="453" y="90"/>
      <point x="448" y="97"/>
      <point x="442" y="104" type="curve"/>
      <point x="397" y="74"/>
      <point x="354" y="60"/>
      <point x="308" y="60" type="curve" smooth="yes"/>
      <point x="200" y="60"/>
      <point x="137" y="139"/>
      <point x="137" y="270" type="curve" smooth="yes"/>
      <point x="137" y="392"/>
      <point x="189" y="454"/>
      <point x="255" y="454" type="curve" smooth="yes"/>
      <point x="316" y="454"/>
      <point x="348" y="400"/>
      <point x="348" y="328" type="curve" smooth="yes"/>
      <point x="348" y="318"/>
      <point x="347" y="312"/>
      <point x="344" y="305" type="curve"/>
      <point x="388" y="319" type="line"/>
      <point x="128" y="314" type="line"/>
      <point x="128" y="277" type="line"/>
      <point x="452" y="274" type="line"/>
      <point x="453" y="280"/>
      <point x="454" y="291"/>
      <point x="454" y="304" type="curve" smooth="yes"/>
      <point x="454" y="415"/>
      <point x="384" y="492"/>
      <point x="267" y="492" type="curve" smooth="yes"/>
      <point x="120" y="492"/>
      <point x="39" y="369"/>
      <point x="39" y="232" type="curve" smooth="yes"/>
      <point x="39" y="97"/>
      <point x="117" y="-12"/>
    </contour>
  </outline>
</glyph>
<glyph name="f" format="2">
  <advance width="329"/>
  <unicode hex="0066"/>
  <outline>
    <contour>
      <point x="26" y="-1" type="curve"/>
      <point x="68" y="-1"/>
      <point x="99" y="1"/>
      <point x="153" y="1" type="curve" smooth="yes"/>
      <point x="207" y="1"/>
      <point x="253" y="-1"/>
      <point x="298" y="-1" type="curve"/>
      <point x="299" y="10"/>
      <point x="299" y="21"/>
      <point x="298" y="30" type="curve"/>
      <point x="212" y="34"/>
      <point x="204" y="36"/>
      <point x="204" y="114" type="curve" smooth="yes"/>
      <point x="204" y="531" type="line" smooth="yes"/>
      <point x="204" y="661"/>
      <point x="232" y="711"/>
      <point x="295" y="711" type="curve" smooth="yes"/>
      <point x="313" y="711"/>
      <point x="325" y="707"/>
      <point x="337" y="702" type="curve"/>
      <point x="328" y="717" type="line"/>
      <point x="321" y="677"/>
      <point x="351" y="625"/>
      <point x="402" y="625" type="curve" smooth="yes"/>
      <point x="436" y="625"/>
      <point x="455" y="646"/>
      <point x="455" y="677" type="curve" smooth="yes"/>
      <point x="455" y="734"/>
      <point x="385" y="755"/>
      <point x="328" y="755" type="curve" smooth="yes"/>
      <point x="271" y="755"/>
      <point x="214" y="735"/>
      <point x="173" y="696" type="curve" smooth="yes"/>
      <point x="112" y="637"/>
      <point x="105" y="551"/>
      <point x="103" y="509" type="curve" smooth="yes"/>
      <point x="101" y="470"/>
      <point x="93" y="465"/>
      <point x="19" y="454" type="curve"/>
      <point x="17" y="446"/>
      <point x="17" y="437"/>
      <point x="19" y="427" type="curve"/>
      <point x="102" y="427" type="line"/>
      <point x="102" y="104" type="line" smooth="yes"/>
      <point x="102" y="38"/>
      <point x="95" y="34"/>
      <point x="26" y="30" type="curve"/>
      <point x="25" y="19"/>
      <point x="25" y="9"/>
    </contour>
    <contour>
      <point x="329" y="427" type="line"/>
      <point x="331" y="443"/>
      <point x="331" y="458"/>
      <point x="329" y="473" type="curve"/>
      <point x="193" y="473" type="line"/>
      <point x="193" y="427" type="line"/>
    </contour>
  </outline>
</glyph>
<glyph name="h" format="2">
  <advance width="596"/>
  <unicode hex="0068"/>
  <outline>
    <contour>
      <point x="20" y="-1" type="curve"/>
      <point x="60" y="-1"/>
      <point x="95" y="1"/>
      <point x="145" y="1" type="curve" smooth="yes"/>
      <point x="194" y="1"/>
      <point x="233" y="-1"/>
      <point x="267" y="-1" type="curve"/>
      <point x="270" y="9"/>
      <point x="270" y="20"/>
      <point x="267" y="30" type="curve"/>
      <point x="205" y="34"/>
      <point x="198" y="36"/>
      <point x="198" y="114" type="curve" smooth="yes"/>
      <point x="198" y="639" type="line" smooth="yes"/>
      <point x="198" y="683"/>
      <point x="198" y="719"/>
      <point x="200" y="749" type="curve"/>
      <point x="183" y="755" type="line"/>
      <point x="121" y="729"/>
      <point x="68" y="717"/>
      <point x="15" y="710" type="curve"/>
      <point x="13" y="700"/>
      <point x="13" y="692"/>
      <point x="15" y="683" type="curve"/>
      <point x="59" y="679"/>
      <point x="75" y="674"/>
      <point x="86" y="660" type="curve" smooth="yes"/>
      <point x="96" y="647"/>
      <point x="96" y="624"/>
      <point x="96" y="586" type="curve" smooth="yes"/>
      <point x="96" y="104" type="line" smooth="yes"/>
      <point x="96" y="38"/>
      <point x="88" y="34"/>
      <point x="20" y="30" type="curve"/>
      <point x="18" y="20"/>
      <point x="18" y="9"/>
    </contour>
    <contour>
      <point x="333" y="-1" type="curve"/>
      <point x="370" y="-1"/>
      <point x="404" y="1"/>
      <point x="453" y="1" type="curve" smooth="yes"/>
      <point x="504" y="1"/>
      <point x="538" y="-1"/>
      <point x="578" y="-1" type="curve"/>
      <point x="579" y="9"/>
      <point x="579" y="20"/>
      <point x="578" y="30" type="curve"/>
      <point x="512" y="34"/>
      <point x="506" y="36"/>
      <point x="506" y="114" type="curve" smooth="yes"/>
      <point x="506" y="341" type="line" smooth="yes"/>
      <point x="506" y="438"/>
      <point x="458" y="492"/>
      <point x="370" y="492" type="curve" smooth="yes"/>
      <point x="308" y="492"/>
      <point x="238" y="465"/>
      <point x="167" y="386" type="curve"/>
      <point x="171" y="349" type="line"/>
      <point x="226" y="408"/>
      <point x="266" y="425"/>
      <point x="312" y="425" type="curve" smooth="yes"/>
      <point x="385" y="425"/>
      <point x="404" y="386"/>
      <point x="404" y="306" type="curve" smooth="yes"/>
      <point x="404" y="104" type="line" smooth="yes"/>
      <point x="404" y="38"/>
      <point x="395" y="34"/>
      <point x="333" y="30" type="curve"/>
      <point x="332" y="20"/>
      <point x="332" y="9"/>
    </contour>
  </outline>
</glyph>
<glyph name="i" format="2">
  <advance width="298"/>
  <unicode hex="0069"/>
  <outline>
    <contour>
      <point x="27" y="-1" type="curve"/>
      <point x="67" y="-1"/>
      <point x="111" y="1"/>
      <point x="154" y="1" type="curve" smooth="yes"/>
      <point x="200" y="1"/>
      <point x="239" y="-1"/>
      <point x="277" y="-1" type="curve"/>
      <point x="279" y="9"/>
      <point x="279" y="20"/>
      <point x="277" y="30" type="curve"/>
      <point x="210" y="34"/>
      <point x="204" y="36"/>
      <point x="204" y="114" type="curve" smooth="yes"/>
      <point x="204" y="382" type="line" smooth="yes"/>
      <point x="204" y="414"/>
      <point x="205" y="449"/>
      <point x="206" y="491" type="curve"/>
      <point x="189" y="497" type="line"/>
      <point x="140" y="478"/>
      <point x="86" y="462"/>
      <point x="28" y="451" type="curve"/>
      <point x="26" y="443"/>
      <point x="26" y="434"/>
      <point x="28" y="425" type="curve"/>
      <point x="103" y="415"/>
      <point x="103" y="406"/>
      <point x="103" y="328" type="curve" smooth="yes"/>
      <point x="103" y="104" type="line" smooth="yes"/>
      <point x="103" y="38"/>
      <point x="95" y="34"/>
      <point x="27" y="30" type="curve"/>
      <point x="25" y="20"/>
      <point x="25" y="9"/>
    </contour>
    <contour>
      <point x="145" y="599" type="curve" smooth="yes"/>
      <point x="186" y="599"/>
      <point x="216" y="633"/>
      <point x="216" y="668" type="curve" smooth="yes"/>
      <point x="216" y="705"/>
      <point x="184" y="736"/>
      <point x="147" y="736" type="curve" smooth="yes"/>
      <point x="108" y="736"/>
      <point x="77" y="705"/>
      <point x="77" y="667" type="curve" smooth="yes"/>
      <point x="77" y="630"/>
      <point x="107" y="599"/>
    </contour>
  </outline>
</glyph>
<glyph name="o" format="2">
  <advance width="571"/>
  <unicode hex="006F"/>
  <outline>
    <contour>
      <point x="281" y="-12" type="curve"/>
      <point x="431" y="-12"/>
      <point x="531" y="98"/>
      <point x="531" y="245" type="curve" smooth="yes"/>
      <point x="531" y="387"/>
      <point x="435" y="492"/>
      <point x="290" y="492" type="curve" smooth="yes"/>
      <point x="141" y="492"/>
      <point x="39" y="389"/>
      <point x="39" y="234" type="curve" smooth="yes"/>
      <point x="39" y="89"/>
      <point x="134" y="-12"/>
    </contour>
    <contour>
      <point x="286" y="25" type="curve" smooth="yes"/>
      <point x="197" y="25"/>
      <point x="152" y="110"/>
      <point x="152" y="246" type="curve" smooth="yes"/>
      <point x="152" y="376"/>
      <point x="199" y="454"/>
      <point x="285" y="454" type="curve" smooth="yes"/>
      <point x="372" y="454"/>
      <point x="418" y="368"/>
      <point x="418" y="233" type="curve" smooth="yes"/>
      <point x="418" y="106"/>
      <point x="371" y="25"/>
    </contour>
  </outline>
</glyph>
<glyph name="r" format="2">
  <advance width="410"/>
  <unicode hex="0072"/>
  <outline>
    <contour>
      <point x="27" y="-1" type="curve"/>
      <point x="68" y="-1"/>
      <point x="102" y="1"/>
      <point x="152" y="1" type="curve" smooth="yes"/>
      <point x="202" y="1"/>
      <point x="250" y="-1"/>
      <point x="296" y="-1" type="curve"/>
      <point x="297" y="10"/>
      <point x="297" y="21"/>
      <point x="296" y="30" type="curve"/>
      <point x="208" y="34"/>
      <point x="204" y="36"/>
      <point x="204" y="114" type="curve" smooth="yes"/>
      <point x="204" y="329" type="line"/>
      <point x="203" y="387" type="line"/>
      <point x="203" y="491" type="line"/>
      <point x="186" y="497" type="line"/>
      <point x="130" y="474"/>
      <point x="81" y="461"/>
      <point x="28" y="451" type="curve"/>
      <point x="26" y="443"/>
      <point x="26" y="434"/>
      <point x="28" y="425" type="curve"/>
      <point x="102" y="415"/>
      <point x="103" y="406"/>
      <point x="103" y="328" type="curve" smooth="yes"/>
      <point x="103" y="104" type="line" smooth="yes"/>
      <point x="103" y="38"/>
      <point x="95" y="34"/>
      <point x="27" y="30" type="curve"/>
      <point x="25" y="20"/>
      <point x="25" y="9"/>
    </contour>
    <contour>
      <point x="204" y="329" type="line"/>
      <point x="204" y="376"/>
      <point x="245" y="417"/>
      <point x="291" y="417" type="curve"/>
      <point x="303" y="389"/>
      <point x="330" y="376"/>
      <point x="356" y="376" type="curve" smooth="yes"/>
      <point x="387" y="376"/>
      <point x="415" y="396"/>
      <point x="415" y="432" type="curve" smooth="yes"/>
      <point x="415" y="463"/>
      <point x="392" y="492"/>
      <point x="346" y="492" type="curve" smooth="yes"/>
      <point x="294" y="492"/>
      <point x="240" y="456"/>
      <point x="190" y="386" type="curve"/>
    </contour>
  </outline>
</glyph>
<glyph name="v" format="2">
  <advance width="502"/>
  <unicode hex="0076"/>
  <outline>
    <contour>
      <point x="277" y="5" type="line"/>
      <point x="438" y="380" type="line" smooth="yes"/>
      <point x="456" y="421"/>
      <point x="468" y="441"/>
      <point x="524" y="445" type="curve"/>
      <point x="525" y="455"/>
      <point x="525" y="466"/>
      <point x="524" y="477" type="curve"/>
      <point x="475" y="475"/>
      <point x="465" y="475"/>
      <point x="445" y="475" type="curve" smooth="yes"/>
      <point x="401" y="475"/>
      <point x="373" y="477"/>
      <point x="339" y="477" type="curve"/>
      <point x="338" y="466"/>
      <point x="338" y="456"/>
      <point x="339" y="445" type="curve"/>
      <point x="384" y="441"/>
      <point x="399" y="435"/>
      <point x="399" y="416" type="curve" smooth="yes"/>
      <point x="399" y="406"/>
      <point x="394" y="391"/>
      <point x="387" y="372" type="curve" smooth="yes"/>
      <point x="346" y="268"/>
      <point x="297" y="160"/>
      <point x="270" y="97" type="curve"/>
      <point x="285" y="104" type="line"/>
      <point x="271" y="131"/>
      <point x="189" y="346"/>
      <point x="177" y="377" type="curve" smooth="yes"/>
      <point x="173" y="388"/>
      <point x="167" y="406"/>
      <point x="167" y="417" type="curve" smooth="yes"/>
      <point x="167" y="438"/>
      <point x="180" y="442"/>
      <point x="226" y="445" type="curve"/>
      <point x="228" y="456"/>
      <point x="228" y="466"/>
      <point x="226" y="477" type="curve"/>
      <point x="195" y="477"/>
      <point x="145" y="475"/>
      <point x="106" y="475" type="curve" smooth="yes"/>
      <point x="64" y="475"/>
      <point x="21" y="477"/>
      <point x="-17" y="477" type="curve"/>
      <point x="-18" y="465"/>
      <point x="-18" y="454"/>
      <point x="-17" y="445" type="curve"/>
      <point x="38" y="438"/>
      <point x="49" y="428"/>
      <point x="66" y="385" type="curve" smooth="yes"/>
      <point x="222" y="-6" type="line"/>
    </contour>
  </outline>
</glyph>
<glyph name="w" format="2">
  <advance width="764"/>
  <unicode hex="0077"/>
  <outline>
    <contour>
      <point x="538" y="4" type="line"/>
      <point x="700" y="380" type="line" smooth="yes"/>
      <point x="718" y="421"/>
      <point x="731" y="441"/>
      <point x="786" y="445" type="curve"/>
      <point x="787" y="455"/>
      <point x="787" y="466"/>
      <point x="786" y="477" type="curve"/>
      <point x="755" y="476"/>
      <point x="739" y="475"/>
      <point x="705" y="475" type="curve" smooth="yes"/>
      <point x="666" y="475"/>
      <point x="634" y="477"/>
      <point x="602" y="477" type="curve"/>
      <point x="601" y="466"/>
      <point x="601" y="456"/>
      <point x="602" y="445" type="curve"/>
      <point x="648" y="441"/>
      <point x="662" y="434"/>
      <point x="662" y="416" type="curve" smooth="yes"/>
      <point x="662" y="406"/>
      <point x="657" y="391"/>
      <point x="650" y="373" type="curve" smooth="yes"/>
      <point x="614" y="277"/>
      <point x="574" y="186"/>
      <point x="530" y="87" type="curve"/>
      <point x="555" y="86" type="line"/>
      <point x="515" y="187"/>
      <point x="486" y="280"/>
      <point x="453" y="376" type="curve" smooth="yes"/>
      <point x="446" y="395"/>
      <point x="443" y="409"/>
      <point x="443" y="418" type="curve" smooth="yes"/>
      <point x="443" y="438"/>
      <point x="458" y="442"/>
      <point x="502" y="445" type="curve"/>
      <point x="504" y="456"/>
      <point x="504" y="466"/>
      <point x="502" y="477" type="curve"/>
      <point x="473" y="477"/>
      <point x="426" y="475"/>
      <point x="392" y="475" type="curve" smooth="yes"/>
      <point x="351" y="475"/>
      <point x="312" y="477"/>
      <point x="274" y="477" type="curve"/>
      <point x="273" y="465"/>
      <point x="273" y="454"/>
      <point x="274" y="445" type="curve"/>
      <point x="325" y="438"/>
      <point x="332" y="428"/>
      <point x="348" y="385" type="curve" smooth="yes"/>
      <point x="490" y="-6" type="line"/>
    </contour>
    <contour>
      <point x="272" y="5" type="line"/>
      <point x="316" y="116"/>
      <point x="358" y="208"/>
      <point x="401" y="311" type="curve"/>
      <point x="380" y="357" type="line"/>
      <point x="257" y="74" type="line"/>
      <point x="289" y="86" type="line"/>
      <point x="247" y="187"/>
      <point x="214" y="281"/>
      <point x="179" y="376" type="curve" smooth="yes"/>
      <point x="172" y="395"/>
      <point x="169" y="409"/>
      <point x="169" y="418" type="curve" smooth="yes"/>
      <point x="169" y="438"/>
      <point x="184" y="442"/>
      <point x="227" y="445" type="curve"/>
      <point x="228" y="456"/>
      <point x="228" y="466"/>
      <point x="227" y="477" type="curve"/>
      <point x="197" y="477"/>
      <point x="148" y="475"/>
      <point x="111" y="475" type="curve" smooth="yes"/>
      <point x="67" y="475"/>
      <point x="26" y="477"/>
      <point x="-13" y="477" type="curve"/>
      <point x="-14" y="465"/>
      <point x="-14" y="454"/>
      <point x="-13" y="445" type="curve"/>
      <point x="41" y="438"/>
      <point x="53" y="428"/>
      <point x="69" y="385" type="curve" smooth="yes"/>
      <point x="217" y="-6" type="line"/>
    </contour>
  </outline>
</glyph>
<glyph name="x" format="2">
  <advance width="520"/>
  <unicode hex="0078"/>
  <outline>
    <contour>
      <point x="272" y="-1" type="curve"/>
      <point x="303" y="-1"/>
      <point x="355" y="1"/>
      <point x="397" y="1" type="curve" smooth="yes"/>
      <point x="440" y="1"/>
      <point x="480" y="-1"/>
      <point x="521" y="-1" type="curve"/>
      <point x="523" y="10"/>
      <point x="523" y="21"/>
      <point x="521" y="30" type="curve"/>
      <point x="463" y="37"/>
      <point x="453" y="50"/>
      <point x="426" y="88" type="curve" smooth="yes"/>
      <point x="362" y="180"/>
      <point x="331" y="226"/>
      <point x="290" y="288" type="curve" smooth="yes"/>
      <point x="266" y="325"/>
      <point x="241" y="363"/>
      <point x="217" y="402" type="curve" smooth="yes"/>
      <point x="210" y="413"/>
      <point x="205" y="422"/>
      <point x="205" y="428" type="curve" smooth="yes"/>
      <point x="205" y="438"/>
      <point x="218" y="442"/>
      <point x="259" y="445" type="curve"/>
      <point x="261" y="456"/>
      <point x="261" y="466"/>
      <point x="259" y="477" type="curve"/>
      <point x="228" y="477"/>
      <point x="169" y="475"/>
      <point x="131" y="475" type="curve" smooth="yes"/>
      <point x="83" y="475"/>
      <point x="48" y="477"/>
      <point x="9" y="477" type="curve"/>
      <point x="7" y="465"/>
      <point x="7" y="454"/>
      <point x="9" y="445" type="curve"/>
      <point x="67" y="438"/>
      <point x="79" y="425"/>
      <point x="104" y="388" type="curve" smooth="yes"/>
      <point x="146" y="326"/>
      <point x="189" y="263"/>
      <point x="221" y="215" type="curve" smooth="yes"/>
      <point x="257" y="162"/>
      <point x="282" y="123"/>
      <point x="308" y="82" type="curve" smooth="yes"/>
      <point x="318" y="66"/>
      <point x="326" y="51"/>
      <point x="326" y="46" type="curve" smooth="yes"/>
      <point x="326" y="36"/>
      <point x="315" y="33"/>
      <point x="272" y="30" type="curve"/>
      <point x="270" y="19"/>
      <point x="270" y="9"/>
    </contour>
    <contour>
      <point x="-4" y="-1" type="curve"/>
      <point x="27" y="-1"/>
      <point x="56" y="1"/>
      <point x="91" y="1" type="curve" smooth="yes"/>
      <point x="123" y="1"/>
      <point x="161" y="-1"/>
      <point x="194" y="-1" type="curve"/>
      <point x="196" y="8"/>
      <point x="196" y="20"/>
      <point x="194" y="30" type="curve"/>
      <point x="149" y="33"/>
      <point x="133" y="38"/>
      <point x="133" y="49" type="curve" smooth="yes"/>
      <point x="133" y="56"/>
      <point x="138" y="62"/>
      <point x="142" y="68" type="curve" smooth="yes"/>
      <point x="171" y="108"/>
      <point x="207" y="155"/>
      <point x="243" y="201" type="curve"/>
      <point x="219" y="238" type="line"/>
      <point x="105" y="94" type="line" smooth="yes"/>
      <point x="70" y="50"/>
      <point x="57" y="37"/>
      <point x="-4" y="30" type="curve"/>
      <point x="-6" y="21"/>
      <point x="-6" y="10"/>
    </contour>
    <contour>
      <point x="299" y="249" type="line"/>
      <point x="345" y="309"/>
      <point x="383" y="355"/>
      <point x="405" y="382" type="curve" smooth="yes"/>
      <point x="440" y="424"/>
      <point x="452" y="438"/>
      <point x="510" y="445" type="curve"/>
      <point x="512" y="457"/>
      <point x="512" y="468"/>
      <point x="510" y="477" type="curve"/>
      <point x="478" y="477"/>
      <point x="453" y="475"/>
      <point x="418" y="475" type="curve" smooth="yes"/>
      <point x="387" y="475"/>
      <point x="351" y="477"/>
      <point x="319" y="477" type="curve"/>
      <point x="317" y="466"/>
      <point x="317" y="456"/>
      <point x="319" y="445" type="curve"/>
      <point x="360" y="441"/>
      <point x="375" y="438"/>
      <point x="375" y="426" type="curve" smooth="yes"/>
      <point x="375" y="421"/>
      <point x="372" y="415"/>
      <point x="367" y="408" type="curve" smooth="yes"/>
      <point x="341" y="369"/>
      <point x="308" y="326"/>
      <point x="266" y="275" type="curve"/>
    </contour>
  </outline>
</glyph>
<glyph name="asciitilde" format="2">
  <advance width="581"/>
  <unicode hex="007E"/>
  <outline>
    <contour>
      <point x="415" y="196" type="curve" smooth="yes"/>
      <point x="453" y="196"/>
      <point x="491" y="206"/>
      <point x="529" y="236" type="curve"/>
      <point x="530" y="251"/>
      <point x="530" y="274"/>
      <point x="529" y="289" type="curve"/>
      <point x="491" y="258"/>
      <point x="453" y="249"/>
      <point x="415" y="249" type="curve" smooth="yes"/>
      <point x="385" y="249"/>
      <point x="355" y="256"/>
      <point x="291" y="279" type="curve" smooth="yes"/>
      <point x="250" y="294"/>
      <point x="208" y="309"/>
      <point x="166" y="309" type="curve" smooth="yes"/>
      <point x="127" y="309"/>
      <point x="90" y="299"/>
      <point x="52" y="268" type="curve"/>
      <point x="49" y="252"/>
      <point x="49" y="231"/>
      <point x="52" y="216" type="curve"/>
      <point x="90" y="246"/>
      <point x="127" y="255"/>
      <point x="166" y="255" type="curve" smooth="yes"/>
      <point x="205" y="255"/>
      <point x="246" y="241"/>
      <point x="292" y="224" type="curve" smooth="yes"/>
      <point x="329" y="211"/>
      <point x="372" y="196"/>
    </contour>
  </outline>
</glyph>
<glyph name="exclamdown" format="2">
  <advance width="319"/>
  <unicode hex="00A1"/>
  <outline>
    <contour>
      <point x="146" y="-242" type="curve" smooth="yes"/>
      <point x="189" y="-242"/>
      <point x="218" y="-221"/>
      <point x="218" y="-185" type="curve"/>
      <point x="164" y="262" type="line"/>
      <point x="153" y="263"/>
      <point x="139" y="263"/>
      <point x="128" y="262" type="curve"/>
      <point x="76" y="-186" type="line"/>
      <point x="76" y="-222"/>
      <point x="105" y="-242"/>
    </contour>
    <contour>
      <point x="148" y="336" type="curve" smooth="yes"/>
      <point x="188" y="336"/>
      <point x="219" y="368"/>
      <point x="219" y="409" type="curve" smooth="yes"/>
      <point x="219" y="450"/>
      <point x="188" y="481"/>
      <point x="148" y="481" type="curve" smooth="yes"/>
      <point x="104" y="481"/>
      <point x="75" y="448"/>
      <point x="75" y="409" type="curve" smooth="yes"/>
      <point x="75" y="370"/>
      <point x="104" y="336"/>
    </contour>
  </outline>
</glyph>
<glyph name="brokenbar" format="2">
  <advance width="307"/>
  <unicode hex="00A6"/>
  <outline>
    <contour>
      <point x="125" y="-183" type="line"/>
      <point x="182" y="-183" type="line"/>
      <point x="182" y="199" type="line"/>
      <point x="125" y="199" type="line"/>
    </contour>
    <contour>
      <point x="182" y="711" type="line"/>
      <point x="125" y="711" type="line"/>
      <point x="125" y="329" type="line"/>
      <point x="182" y="329" type="line"/>
    </contour>
  </outline>
</glyph>
<glyph name="section" format="2">
  <advance width="550"/>
  <unicode hex="00A7"/>
  <outline>
    <contour>
      <point x="391" y="-88" type="line"/>
      <point x="388" y="39"/>
      <point x="312" y="128"/>
      <point x="238" y="212" type="curve" smooth="yes"/>
      <point x="170" y="291"/>
      <point x="105" y="366"/>
      <point x="105" y="465" type="curve" smooth="yes"/>
      <point x="105" y="577"/>
      <point x="188" y="673"/>
      <point x="292" y="673" type="curve" smooth="yes"/>
      <point x="308" y="673"/>
      <point x="321" y="671"/>
      <point x="338" y="664" type="curve"/>
      <point x="325" y="689" type="line"/>
      <point x="324" y="617"/>
      <point x="355" y="576"/>
      <point x="398" y="576" type="curve" smooth="yes"/>
      <point x="429" y="576"/>
      <point x="448" y="596"/>
      <point x="448" y="625" type="curve" smooth="yes"/>
      <point x="448" y="679"/>
      <point x="377" y="711"/>
      <point x="300" y="711" type="curve" smooth="yes"/>
      <point x="141" y="711"/>
      <point x="50" y="574"/>
      <point x="50" y="414" type="curve" smooth="yes"/>
      <point x="50" y="252"/>
      <point x="141" y="161"/>
      <point x="225" y="77" type="curve" smooth="yes"/>
      <point x="287" y="15"/>
      <point x="345" y="-43"/>
      <point x="360" y="-123" type="curve"/>
    </contour>
    <contour>
      <point x="229" y="-200" type="curve" smooth="yes"/>
      <point x="390" y="-200"/>
      <point x="480" y="-62"/>
      <point x="480" y="98" type="curve" smooth="yes"/>
      <point x="480" y="259"/>
      <point x="389" y="350"/>
      <point x="307" y="431" type="curve" smooth="yes"/>
      <point x="242" y="496"/>
      <point x="184" y="554"/>
      <point x="170" y="634" type="curve"/>
      <point x="139" y="599" type="line"/>
      <point x="142" y="472"/>
      <point x="218" y="384"/>
      <point x="289" y="302" type="curve" smooth="yes"/>
      <point x="359" y="221"/>
      <point x="424" y="146"/>
      <point x="424" y="46" type="curve" smooth="yes"/>
      <point x="424" y="-64"/>
      <point x="344" y="-162"/>
      <point x="237" y="-162" type="curve" smooth="yes"/>
      <point x="218" y="-162"/>
      <point x="204" y="-159"/>
      <point x="183" y="-150" type="curve"/>
      <point x="204" y="-177" type="line"/>
      <point x="205" y="-106"/>
      <point x="175" y="-65"/>
      <point x="132" y="-65" type="curve" smooth="yes"/>
      <point x="100" y="-65"/>
      <point x="82" y="-88"/>
      <point x="82" y="-115" type="curve" smooth="yes"/>
      <point x="82" y="-168"/>
      <point x="153" y="-200"/>
    </contour>
  </outline>
</glyph>
<glyph name="ordfeminine" format="2">
  <advance width="390"/>
  <unicode hex="00AA"/>
  <outline>
    <contour>
      <point x="293" y="299" type="curve" smooth="yes"/>
      <point x="322" y="299"/>
      <point x="353" y="311"/>
      <point x="380" y="341" type="curve"/>
      <point x="379" y="346"/>
      <point x="377" y="351"/>
      <point x="373" y="357" type="curve"/>
      <point x="353" y="350"/>
      <point x="337" y="347"/>
      <point x="327" y="347" type="curve" smooth="yes"/>
      <point x="311" y="347"/>
      <point x="304" y="356"/>
      <point x="304" y="373" type="curve" smooth="yes"/>
      <point x="304" y="387"/>
      <point x="307" y="531"/>
      <point x="307" y="554" type="curve" smooth="yes"/>
      <point x="307" y="602"/>
      <point x="270" y="630"/>
      <point x="208" y="630" type="curve" smooth="yes"/>
      <point x="135" y="630"/>
      <point x="50" y="590"/>
      <point x="50" y="545" type="curve" smooth="yes"/>
      <point x="50" y="527"/>
      <point x="65" y="514"/>
      <point x="84" y="514" type="curve" smooth="yes"/>
      <point x="119" y="514"/>
      <point x="146" y="551"/>
      <point x="139" y="603" type="curve"/>
      <point x="133" y="581" type="line"/>
      <point x="139" y="590"/>
      <point x="159" y="594"/>
      <point x="174" y="594" type="curve" smooth="yes"/>
      <point x="208" y="594"/>
      <point x="230" y="577"/>
      <point x="230" y="550" type="curve" smooth="yes"/>
      <point x="230" y="533"/>
      <point x="229" y="495"/>
      <point x="229" y="470" type="curve" smooth="yes"/>
      <point x="227" y="356" type="line"/>
      <point x="234" y="319"/>
      <point x="255" y="299"/>
    </contour>
    <contour>
      <point x="346" y="200" type="line"/>
      <point x="347" y="212"/>
      <point x="347" y="224"/>
      <point x="346" y="237" type="curve"/>
      <point x="53" y="237" type="line"/>
      <point x="52" y="224"/>
      <point x="52" y="212"/>
      <point x="53" y="200" type="curve"/>
    </contour>
    <contour>
      <point x="126" y="298" type="curve" smooth="yes"/>
      <point x="165" y="298"/>
      <point x="199" y="317"/>
      <point x="232" y="355" type="curve"/>
      <point x="234" y="376" type="line"/>
      <point x="203" y="356"/>
      <point x="183" y="348"/>
      <point x="164" y="348" type="curve" smooth="yes"/>
      <point x="138" y="348"/>
      <point x="122" y="363"/>
      <point x="122" y="391" type="curve" smooth="yes"/>
      <point x="122" y="452"/>
      <point x="189" y="460"/>
      <point x="236" y="464" type="curve"/>
      <point x="240" y="492" type="line"/>
      <point x="106" y="481"/>
      <point x="40" y="443"/>
      <point x="40" y="377" type="curve" smooth="yes"/>
      <point x="40" y="328"/>
      <point x="75" y="298"/>
    </contour>
  </outline>
</glyph>
<glyph name="degree" format="2">
  <advance width="463"/>
  <unicode hex="00B0"/>
  <outline>
    <contour>
      <point x="50" y="449" type="curve" smooth="yes"/>
      <point x="50" y="349"/>
      <point x="132" y="267"/>
      <point x="231" y="267" type="curve" smooth="yes"/>
      <point x="330" y="267"/>
      <point x="413" y="350"/>
      <point x="413" y="449" type="curve" smooth="yes"/>
      <point x="413" y="548"/>
      <point x="331" y="630"/>
      <point x="231" y="630" type="curve" smooth="yes"/>
      <point x="131" y="630"/>
      <point x="50" y="549"/>
    </contour>
    <contour>
      <point x="106" y="449" type="curve" smooth="yes"/>
      <point x="106" y="519"/>
      <point x="160" y="578"/>
      <point x="231" y="578" type="curve" smooth="yes"/>
      <point x="303" y="578"/>
      <point x="357" y="521"/>
      <point x="357" y="449" type="curve" smooth="yes"/>
      <point x="357" y="376"/>
      <point x="302" y="319"/>
      <point x="231" y="319" type="curve" smooth="yes"/>
      <point x="161" y="319"/>
      <point x="106" y="378"/>
    </contour>
  </outline>
</glyph>
<glyph name="plusminus" format="2">
  <advance width="581"/>
  <unicode hex="00B1"/>
  <outline>
    <contour>
      <point x="529" y="261" type="line"/>
      <point x="530" y="276"/>
      <point x="530" y="300"/>
      <point x="529" y="316" type="curve"/>
      <point x="52" y="316" type="line"/>
      <point x="50" y="300"/>
      <point x="50" y="276"/>
      <point x="52" y="261" type="curve"/>
    </contour>
    <contour>
      <point x="529" y="1" type="line"/>
      <point x="530" y="16"/>
      <point x="530" y="40"/>
      <point x="529" y="56" type="curve"/>
      <point x="52" y="56" type="line"/>
      <point x="50" y="40"/>
      <point x="50" y="16"/>
      <point x="52" y="1" type="curve"/>
    </contour>
    <contour>
      <point x="263" y="110" type="line"/>
      <point x="277" y="109"/>
      <point x="304" y="109"/>
      <point x="318" y="110" type="curve"/>
      <point x="318" y="477" type="line"/>
      <point x="304" y="478"/>
      <point x="277" y="478"/>
      <point x="263" y="477" type="curve"/>
    </contour>
  </outline>
</glyph>
<glyph name="micro" format="2">
  <advance width="587"/>
  <unicode hex="00B5"/>
  <outline>
    <contour>
      <point x="234" y="-12" type="curve" smooth="yes"/>
      <point x="304" y="-12"/>
      <point x="351" y="72"/>
      <point x="381" y="136" type="curve"/>
      <point x="446" y="242"/>
      <point x="491" y="366"/>
      <point x="491" y="437" type="curve" smooth="yes"/>
      <point x="491" y="449"/>
      <point x="421" y="476"/>
      <point x="401" y="476" type="curve" smooth="yes"/>
      <point x="385" y="476"/>
      <point x="369" y="319"/>
      <point x="369" y="230" type="curve" smooth="yes"/>
      <point x="369" y="212" type="line"/>
      <point x="336" y="143"/>
      <point x="292" y="88"/>
      <point x="227" y="88" type="curve" smooth="yes"/>
      <point x="146" y="88"/>
      <point x="145" y="167"/>
      <point x="146" y="226" type="curve"/>
      <point x="105" y="98" type="line"/>
      <point x="123" y="104" type="line"/>
      <point x="136" y="50"/>
      <point x="171" y="-12"/>
    </contour>
    <contour>
      <point x="129" y="-255" type="curve" smooth="yes"/>
      <point x="151" y="-255"/>
      <point x="176" y="-245"/>
      <point x="196" y="-228" type="curve"/>
      <point x="137" y="-149"/>
      <point x="114" y="-67"/>
      <point x="114" y="22" type="curve" smooth="yes"/>
      <point x="114" y="29"/>
      <point x="117" y="100"/>
      <point x="126" y="152" type="curve"/>
      <point x="171" y="275"/>
      <point x="209" y="381"/>
      <point x="209" y="441" type="curve" smooth="yes"/>
      <point x="209" y="453"/>
      <point x="144" y="479"/>
      <point x="119" y="479" type="curve" smooth="yes"/>
      <point x="100" y="479"/>
      <point x="94" y="382"/>
      <point x="94" y="306" type="curve" smooth="yes"/>
      <point x="94" y="272"/>
      <point x="95" y="242"/>
      <point x="98" y="225" type="curve"/>
      <point x="80" y="162"/>
      <point x="47" y="27"/>
      <point x="47" y="-83" type="curve" smooth="yes"/>
      <point x="47" y="-153"/>
      <point x="65" y="-255"/>
    </contour>
    <contour>
      <point x="480" y="-9" type="curve" smooth="yes"/>
      <point x="538" y="-9"/>
      <point x="572" y="39"/>
      <point x="572" y="89" type="curve" smooth="yes"/>
      <point x="572" y="99"/>
      <point x="570" y="109"/>
      <point x="567" y="121" type="curve"/>
      <point x="561" y="123" type="line"/>
      <point x="546" y="97"/>
      <point x="519" y="84"/>
      <point x="485" y="84" type="curve" smooth="yes"/>
      <point x="433" y="84"/>
      <point x="405" y="121"/>
      <point x="405" y="164" type="curve" smooth="yes"/>
      <point x="405" y="175"/>
      <point x="405" y="176"/>
      <point x="416" y="211" type="curve"/>
      <point x="371" y="146" type="line"/>
      <point x="381" y="40"/>
      <point x="417" y="-9"/>
    </contour>
  </outline>
</glyph>
<glyph name="paragraph" format="2">
  <advance width="576"/>
  <unicode hex="00B6"/>
  <outline>
    <contour>
      <point x="317" y="-189" type="line"/>
      <point x="317" y="657" type="line"/>
      <point x="391" y="655" type="line"/>
      <point x="391" y="-173" type="line"/>
      <point x="438" y="-162" type="line"/>
      <point x="438" y="588" type="line" smooth="yes"/>
      <point x="438" y="661"/>
      <point x="443" y="661"/>
      <point x="540" y="670" type="curve"/>
      <point x="541" y="680"/>
      <point x="541" y="691"/>
      <point x="540" y="701" type="curve"/>
      <point x="498" y="701"/>
      <point x="427" y="699"/>
      <point x="389" y="699" type="curve" smooth="yes"/>
      <point x="349" y="699"/>
      <point x="278" y="701"/>
      <point x="234" y="701" type="curve" smooth="yes"/>
      <point x="114" y="701"/>
      <point x="20" y="630"/>
      <point x="20" y="507" type="curve" smooth="yes"/>
      <point x="20" y="365"/>
      <point x="136" y="308"/>
      <point x="270" y="308" type="curve"/>
      <point x="270" y="-200" type="line"/>
    </contour>
  </outline>
</glyph>
<glyph name="AE" format="2">
  <advance width="951"/>
  <unicode hex="00C6"/>
  <outline>
    <contour>
      <point x="345" y="-1" type="curve"/>
      <point x="397" y="-1"/>
      <point x="438" y="1"/>
      <point x="533" y="1" type="curve" smooth="yes"/>
      <point x="600" y="1"/>
      <point x="774" y="0"/>
      <point x="892" y="0" type="curve"/>
      <point x="898" y="44"/>
      <point x="907" y="104"/>
      <point x="921" y="179" type="curve"/>
      <point x="911" y="180"/>
      <point x="901" y="180"/>
      <point x="891" y="179" type="curve"/>
      <point x="869" y="131"/>
      <point x="843" y="94"/>
      <point x="822" y="76" type="curve" smooth="yes"/>
      <point x="796" y="54"/>
      <point x="758" y="43"/>
      <point x="691" y="43" type="curve" smooth="yes"/>
      <point x="554" y="43" type="line"/>
      <point x="552" y="51"/>
      <point x="552" y="79"/>
      <point x="552" y="124" type="curve" smooth="yes"/>
      <point x="552" y="674" type="line"/>
      <point x="442" y="674" type="line"/>
      <point x="442" y="111" type="line" smooth="yes"/>
      <point x="442" y="39"/>
      <point x="438" y="40"/>
      <point x="345" y="31" type="curve"/>
      <point x="344" y="20"/>
      <point x="344" y="9"/>
    </contour>
    <contour>
      <point x="-56" y="-1" type="curve"/>
      <point x="-13" y="-1"/>
      <point x="25" y="1"/>
      <point x="62" y="1" type="curve" smooth="yes"/>
      <point x="99" y="1"/>
      <point x="171" y="-1"/>
      <point x="202" y="-1" type="curve"/>
      <point x="204" y="9"/>
      <point x="204" y="20"/>
      <point x="202" y="31" type="curve"/>
      <point x="137" y="35"/>
      <point x="111" y="45"/>
      <point x="111" y="70" type="curve" smooth="yes"/>
      <point x="111" y="84"/>
      <point x="119" y="100"/>
      <point x="133" y="125" type="curve" smooth="yes"/>
      <point x="435" y="669" type="line"/>
      <point x="385" y="671" type="line"/>
      <point x="88" y="145" type="line" smooth="yes"/>
      <point x="33" y="47"/>
      <point x="24" y="39"/>
      <point x="-56" y="31" type="curve"/>
      <point x="-57" y="21"/>
      <point x="-57" y="9"/>
    </contour>
    <contour>
      <point x="736" y="223" type="curve"/>
      <point x="748" y="222"/>
      <point x="759" y="222"/>
      <point x="769" y="223" type="curve"/>
      <point x="767" y="307"/>
      <point x="767" y="330"/>
      <point x="767" y="351" type="curve" smooth="yes"/>
      <point x="767" y="374"/>
      <point x="767" y="396"/>
      <point x="769" y="479" type="curve"/>
      <point x="759" y="480"/>
      <point x="747" y="480"/>
      <point x="736" y="479" type="curve"/>
      <point x="722" y="380"/>
      <point x="701" y="371"/>
      <point x="606" y="371" type="curve" smooth="yes"/>
      <point x="256" y="371" type="line"/>
      <point x="234" y="328" type="line"/>
      <point x="615" y="328" type="line" smooth="yes"/>
      <point x="701" y="328"/>
      <point x="723" y="322"/>
    </contour>
    <contour>
      <point x="855" y="542" type="curve"/>
      <point x="865" y="541"/>
      <point x="876" y="541"/>
      <point x="886" y="542" type="curve"/>
      <point x="878" y="600"/>
      <point x="870" y="652"/>
      <point x="865" y="701" type="curve"/>
      <point x="720" y="699"/>
      <point x="591" y="699"/>
      <point x="542" y="699" type="curve" smooth="yes"/>
      <point x="515" y="699"/>
      <point x="441" y="699"/>
      <point x="293" y="701" type="curve"/>
      <point x="291" y="690"/>
      <point x="291" y="679"/>
      <point x="293" y="669" type="curve"/>
      <point x="335" y="667"/>
      <point x="366" y="663"/>
      <point x="388" y="658" type="curve"/>
      <point x="685" y="658" type="line" smooth="yes"/>
      <point x="738" y="658"/>
      <point x="769" y="648"/>
      <point x="793" y="630" type="curve" smooth="yes"/>
      <point x="817" y="611"/>
      <point x="839" y="580"/>
    </contour>
  </outline>
</glyph>
<glyph name="multiply" format="2">
  <advance width="581"/>
  <unicode hex="00D7"/>
  <outline>
    <contour>
      <point x="62" y="428" type="curve"/>
      <point x="480" y="11" type="line"/>
      <point x="490" y="20"/>
      <point x="509" y="39"/>
      <point x="518" y="50" type="curve"/>
      <point x="101" y="467" type="line"/>
      <point x="91" y="458"/>
      <point x="71" y="439"/>
    </contour>
    <contour>
      <point x="518" y="428" type="line"/>
      <point x="509" y="439"/>
      <point x="492" y="456"/>
      <point x="480" y="467" type="curve"/>
      <point x="62" y="50" type="line"/>
      <point x="72" y="37"/>
      <point x="89" y="20"/>
      <point x="101" y="11" type="curve"/>
    </contour>
  </outline>
</glyph>
<glyph name="Thorn" format="2">
  <advance width="603"/>
  <unicode hex="00DE"/>
  <outline>
    <contour>
      <point x="31" y="-1" type="curve"/>
      <point x="74" y="-1"/>
      <point x="147" y="1"/>
      <point x="186" y="1" type="curve" smooth="yes"/>
      <point x="224" y="1"/>
      <point x="299" y="-1"/>
      <point x="340" y="-1" type="curve"/>
      <point x="342" y="9"/>
      <point x="342" y="21"/>
      <point x="340" y="31" type="curve"/>
      <point x="242" y="39"/>
      <point x="241" y="40"/>
      <point x="241" y="124" type="curve" smooth="yes"/>
      <point x="241" y="589" type="line" smooth="yes"/>
      <point x="241" y="660"/>
      <point x="245" y="660"/>
      <point x="340" y="669" type="curve"/>
      <point x="342" y="680"/>
      <point x="342" y="691"/>
      <point x="340" y="701" type="curve"/>
      <point x="301" y="701"/>
      <point x="225" y="699"/>
      <point x="188" y="699" type="curve" smooth="yes"/>
      <point x="150" y="699"/>
      <point x="72" y="701"/>
      <point x="31" y="701" type="curve"/>
      <point x="30" y="690"/>
      <point x="30" y="679"/>
      <point x="31" y="669" type="curve"/>
      <point x="126" y="661"/>
      <point x="131" y="659"/>
      <point x="131" y="576" type="curve" smooth="yes"/>
      <point x="131" y="111" type="line" smooth="yes"/>
      <point x="131" y="40"/>
      <point x="127" y="40"/>
      <point x="31" y="31" type="curve"/>
      <point x="30" y="20"/>
      <point x="30" y="9"/>
    </contour>
    <contour>
      <point x="333" y="168" type="curve" smooth="yes"/>
      <point x="466" y="168"/>
      <point x="568" y="240"/>
      <point x="568" y="375" type="curve" smooth="yes"/>
      <point x="568" y="496"/>
      <point x="486" y="560"/>
      <point x="315" y="560" type="curve" smooth="yes"/>
      <point x="292" y="560"/>
      <point x="263" y="558"/>
      <point x="228" y="553" type="curve"/>
      <point x="228" y="512" type="line"/>
      <point x="254" y="516"/>
      <point x="274" y="518"/>
      <point x="294" y="518" type="curve" smooth="yes"/>
      <point x="395" y="518"/>
      <point x="446" y="463"/>
      <point x="446" y="369" type="curve" smooth="yes"/>
      <point x="446" y="273"/>
      <point x="392" y="210"/>
      <point x="301" y="210" type="curve" smooth="yes"/>
      <point x="285" y="210"/>
      <point x="260" y="212"/>
      <point x="229" y="221" type="curve"/>
      <point x="229" y="181" type="line"/>
      <point x="272" y="170"/>
      <point x="303" y="168"/>
    </contour>
  </outline>
</glyph>
<glyph name="germandbls" format="2">
  <advance width="595"/>
  <unicode hex="00DF"/>
  <outline>
    <contour>
      <point x="397" y="-10" type="curve" smooth="yes"/>
      <point x="489" y="-10"/>
      <point x="562" y="54"/>
      <point x="562" y="144" type="curve" smooth="yes"/>
      <point x="562" y="224"/>
      <point x="510" y="255"/>
      <point x="459" y="285" type="curve" smooth="yes"/>
      <point x="385" y="328"/>
      <point x="367" y="345"/>
      <point x="367" y="398" type="curve" smooth="yes"/>
      <point x="367" y="499"/>
      <point x="513" y="491"/>
      <point x="513" y="620" type="curve" smooth="yes"/>
      <point x="513" y="714"/>
      <point x="429" y="755"/>
      <point x="342" y="755" type="curve" smooth="yes"/>
      <point x="274" y="755"/>
      <point x="215" y="733"/>
      <point x="174" y="697" type="curve" smooth="yes"/>
      <point x="130" y="657"/>
      <point x="108" y="602"/>
      <point x="103" y="507" type="curve" smooth="yes"/>
      <point x="101" y="469"/>
      <point x="94" y="466"/>
      <point x="19" y="454" type="curve"/>
      <point x="17" y="446"/>
      <point x="17" y="437"/>
      <point x="19" y="427" type="curve"/>
      <point x="102" y="427" type="line"/>
      <point x="102" y="104" type="line" smooth="yes"/>
      <point x="102" y="38"/>
      <point x="95" y="34"/>
      <point x="26" y="30" type="curve"/>
      <point x="25" y="20"/>
      <point x="25" y="9"/>
      <point x="26" y="-1" type="curve"/>
      <point x="71" y="-1"/>
      <point x="92" y="1"/>
      <point x="159" y="1" type="curve" smooth="yes"/>
      <point x="167" y="1"/>
      <point x="188" y="1"/>
      <point x="204" y="0" type="curve"/>
      <point x="208" y="4" type="line"/>
      <point x="206" y="31"/>
      <point x="204" y="68"/>
      <point x="204" y="119" type="curve" smooth="yes"/>
      <point x="204" y="509" type="line" smooth="yes"/>
      <point x="204" y="583"/>
      <point x="213" y="637"/>
      <point x="232" y="668" type="curve" smooth="yes"/>
      <point x="252" y="700"/>
      <point x="283" y="717"/>
      <point x="322" y="717" type="curve" smooth="yes"/>
      <point x="383" y="717"/>
      <point x="415" y="675"/>
      <point x="415" y="610" type="curve" smooth="yes"/>
      <point x="415" y="465"/>
      <point x="274" y="482"/>
      <point x="274" y="358" type="curve" smooth="yes"/>
      <point x="274" y="277"/>
      <point x="328" y="244"/>
      <point x="380" y="213" type="curve" smooth="yes"/>
      <point x="434" y="181"/>
      <point x="473" y="158"/>
      <point x="473" y="99" type="curve" smooth="yes"/>
      <point x="473" y="53"/>
      <point x="444" y="23"/>
      <point x="405" y="23" type="curve" smooth="yes"/>
      <point x="388" y="23"/>
      <point x="372" y="28"/>
      <point x="363" y="37" type="curve"/>
      <point x="370" y="16" type="line"/>
      <point x="376" y="77"/>
      <point x="345" y="125"/>
      <point x="302" y="125" type="curve" smooth="yes"/>
      <point x="276" y="125"/>
      <point x="257" y="108"/>
      <point x="257" y="78" type="curve" smooth="yes"/>
      <point x="257" y="18"/>
      <point x="340" y="-10"/>
    </contour>
  </outline>
</glyph>
<glyph name="ae" format="2">
  <advance width="741"/>
  <unicode hex="00E6"/>
  <outline>
    <contour>
      <point x="509" y="-12" type="curve" smooth="yes"/>
      <point x="582" y="-12"/>
      <point x="646" y="19"/>
      <point x="701" y="81" type="curve"/>
      <point x="697" y="90"/>
      <point x="692" y="97"/>
      <point x="686" y="104" type="curve"/>
      <point x="642" y="74"/>
      <point x="600" y="60"/>
      <point x="556" y="60" type="curve" smooth="yes"/>
      <point x="432" y="60"/>
      <point x="389" y="163"/>
      <point x="389" y="272" type="curve" smooth="yes"/>
      <point x="389" y="341"/>
      <point x="413" y="454"/>
      <point x="502" y="454" type="curve" smooth="yes"/>
      <point x="562" y="454"/>
      <point x="592" y="400"/>
      <point x="592" y="328" type="curve" smooth="yes"/>
      <point x="592" y="327"/>
      <point x="592" y="321"/>
      <point x="591" y="318" type="curve"/>
      <point x="377" y="314" type="line"/>
      <point x="374" y="277" type="line"/>
      <point x="696" y="274" type="line"/>
      <point x="697" y="280"/>
      <point x="698" y="291"/>
      <point x="698" y="304" type="curve" smooth="yes"/>
      <point x="698" y="415"/>
      <point x="630" y="492"/>
      <point x="517" y="492" type="curve" smooth="yes"/>
      <point x="447" y="492"/>
      <point x="392" y="463"/>
      <point x="355" y="416" type="curve"/>
      <point x="388" y="410" type="line"/>
      <point x="372" y="463"/>
      <point x="322" y="492"/>
      <point x="262" y="492" type="curve" smooth="yes"/>
      <point x="183" y="492"/>
      <point x="45" y="441"/>
      <point x="45" y="376" type="curve" smooth="yes"/>
      <point x="45" y="352"/>
      <point x="63" y="333"/>
      <point x="92" y="333" type="curve" smooth="yes"/>
      <point x="145" y="333"/>
      <point x="177" y="400"/>
      <point x="171" y="448" type="curve"/>
      <point x="165" y="432" type="line"/>
      <point x="174" y="440"/>
      <point x="192" y="445"/>
      <point x="214" y="445" type="curve" smooth="yes"/>
      <point x="260" y="445"/>
      <point x="297" y="418"/>
      <point x="297" y="371" type="curve" smooth="yes"/>
      <point x="297" y="338"/>
      <point x="296" y="304"/>
      <point x="296" y="271" type="curve" smooth="yes"/>
      <point x="296" y="218" type="line" smooth="yes"/>
      <point x="296" y="182"/>
      <point x="307" y="140"/>
      <point x="322" y="108" type="curve" smooth="yes"/>
      <point x="358" y="30"/>
      <point x="423" y="-12"/>
    </contour>
    <contour>
      <point x="158" y="-12" type="curve" smooth="yes"/>
      <point x="221" y="-12"/>
      <point x="288" y="21"/>
      <point x="352" y="88" type="curve"/>
      <point x="345" y="109" type="line"/>
      <point x="287" y="67"/>
      <point x="239" y="53"/>
      <point x="208" y="53" type="curve" smooth="yes"/>
      <point x="167" y="53"/>
      <point x="141" y="78"/>
      <point x="141" y="125" type="curve" smooth="yes"/>
      <point x="141" y="185"/>
      <point x="185" y="222"/>
      <point x="322" y="236" type="curve"/>
      <point x="320" y="272" type="line"/>
      <point x="126" y="251"/>
      <point x="33" y="197"/>
      <point x="33" y="102" type="curve" smooth="yes"/>
      <point x="33" y="31"/>
      <point x="86" y="-12"/>
    </contour>
  </outline>
</glyph>
<glyph name="divide" format="2">
  <advance width="581"/>
  <unicode hex="00F7"/>
  <outline>
    <contour>
      <point x="234" y="402" type="curve" smooth="yes"/>
      <point x="234" y="373"/>
      <point x="260" y="348"/>
      <point x="289" y="348" type="curve" smooth="yes"/>
      <point x="322" y="348"/>
      <point x="345" y="374"/>
      <point x="345" y="402" type="curve" smooth="yes"/>
      <point x="345" y="431"/>
      <point x="322" y="457"/>
      <point x="289" y="457" type="curve" smooth="yes"/>
      <point x="259" y="457"/>
      <point x="234" y="432"/>
    </contour>
    <contour>
      <point x="234" y="75" type="curve" smooth="yes"/>
      <point x="234" y="44"/>
      <point x="259" y="20"/>
      <point x="289" y="20" type="curve" smooth="yes"/>
      <point x="322" y="20"/>
      <point x="345" y="45"/>
      <point x="345" y="75" type="curve" smooth="yes"/>
      <point x="345" y="103"/>
      <point x="322" y="129"/>
      <point x="289" y="129" type="curve" smooth="yes"/>
      <point x="260" y="129"/>
      <point x="234" y="104"/>
    </contour>
    <contour>
      <point x="529" y="211" type="line"/>
      <point x="530" y="226"/>
      <point x="530" y="250"/>
      <point x="529" y="266" type="curve"/>
      <point x="52" y="266" type="line"/>
      <point x="50" y="250"/>
      <point x="50" y="226"/>
      <point x="52" y="211" type="curve"/>
    </contour>
  </outline>
</glyph>
<glyph name="thorn" format="2">
  <advance width="580"/>
  <unicode hex="00FE"/>
  <outline>
    <contour>
      <point x="9" y="-247" type="curve"/>
      <point x="50" y="-247"/>
      <point x="83" y="-245"/>
      <point x="137" y="-245" type="curve" smooth="yes"/>
      <point x="190" y="-245"/>
      <point x="236" y="-247"/>
      <point x="281" y="-247" type="curve"/>
      <point x="282" y="-238"/>
      <point x="282" y="-223"/>
      <point x="281" y="-215" type="curve"/>
      <point x="194" y="-211"/>
      <point x="186" y="-209"/>
      <point x="186" y="-130" type="curve" smooth="yes"/>
      <point x="186" y="638" type="line" smooth="yes"/>
      <point x="186" y="682"/>
      <point x="186" y="719"/>
      <point x="188" y="749" type="curve"/>
      <point x="171" y="755" type="line"/>
      <point x="112" y="730"/>
      <point x="56" y="717"/>
      <point x="3" y="710" type="curve"/>
      <point x="1" y="700"/>
      <point x="1" y="692"/>
      <point x="3" y="683" type="curve"/>
      <point x="73" y="677"/>
      <point x="85" y="667"/>
      <point x="85" y="605" type="curve" smooth="yes"/>
      <point x="85" y="-142" type="line" smooth="yes"/>
      <point x="85" y="-207"/>
      <point x="78" y="-211"/>
      <point x="9" y="-215" type="curve"/>
      <point x="8" y="-224"/>
      <point x="8" y="-238"/>
    </contour>
    <contour>
      <point x="284" y="-7" type="curve" smooth="yes"/>
      <point x="437" y="-7"/>
      <point x="540" y="111"/>
      <point x="540" y="256" type="curve" smooth="yes"/>
      <point x="540" y="377"/>
      <point x="467" y="492"/>
      <point x="342" y="492" type="curve" smooth="yes"/>
      <point x="285" y="492"/>
      <point x="230" y="469"/>
      <point x="177" y="415" type="curve"/>
      <point x="177" y="372" type="line"/>
      <point x="211" y="410"/>
      <point x="250" y="430"/>
      <point x="295" y="430" type="curve" smooth="yes"/>
      <point x="400" y="430"/>
      <point x="436" y="321"/>
      <point x="436" y="222" type="curve" smooth="yes"/>
      <point x="436" y="121"/>
      <point x="398" y="30"/>
      <point x="297" y="30" type="curve" smooth="yes"/>
      <point x="247" y="30"/>
      <point x="207" y="53"/>
      <point x="174" y="106" type="curve"/>
      <point x="173" y="13" type="line"/>
      <point x="203" y="0"/>
      <point x="248" y="-7"/>
    </contour>
  </outline>
</glyph>
<glyph name="Hbar" format="2">
  <advance width="840"/>
  <unicode hex="0126"/>
  <outline>
    <contour>
      <point x="806" y="487" type="line"/>
      <point x="808" y="503"/>
      <point x="808" y="518"/>
      <point x="806" y="532" type="curve"/>
      <point x="33" y="532" type="line"/>
      <point x="32" y="518"/>
      <point x="32" y="503"/>
      <point x="33" y="487" type="curve"/>
    </contour>
    <contour>
      <point x="32" y="-1" type="curve"/>
      <point x="72" y="-1"/>
      <point x="147" y="1"/>
      <point x="184" y="1" type="curve" smooth="yes"/>
      <point x="221" y="1"/>
      <point x="298" y="-1"/>
      <point x="338" y="-1" type="curve"/>
      <point x="339" y="9"/>
      <point x="339" y="20"/>
      <point x="338" y="31" type="curve"/>
      <point x="244" y="39"/>
      <point x="240" y="40"/>
      <point x="240" y="124" type="curve" smooth="yes"/>
      <point x="240" y="589" type="line" smooth="yes"/>
      <point x="240" y="659"/>
      <point x="245" y="661"/>
      <point x="338" y="669" type="curve"/>
      <point x="340" y="680"/>
      <point x="340" y="691"/>
      <point x="338" y="701" type="curve"/>
      <point x="301" y="701"/>
      <point x="221" y="699"/>
      <point x="186" y="699" type="curve" smooth="yes"/>
      <point x="149" y="699"/>
      <point x="71" y="701"/>
      <point x="31" y="701" type="curve"/>
      <point x="29" y="690"/>
      <point x="29" y="679"/>
      <point x="31" y="669" type="curve"/>
      <point x="125" y="661"/>
      <point x="130" y="660"/>
      <point x="130" y="576" type="curve" smooth="yes"/>
      <point x="130" y="111" type="line" smooth="yes"/>
      <point x="130" y="40"/>
      <point x="124" y="39"/>
      <point x="32" y="31" type="curve"/>
      <point x="30" y="20"/>
      <point x="30" y="9"/>
    </contour>
    <contour>
      <point x="631" y="338" type="line"/>
      <point x="631" y="382" type="line"/>
      <point x="219" y="382" type="line"/>
      <point x="219" y="338" type="line"/>
    </contour>
    <contour>
      <point x="504" y="-1" type="curve"/>
      <point x="544" y="-1"/>
      <point x="617" y="1"/>
      <point x="654" y="1" type="curve" smooth="yes"/>
      <point x="692" y="1"/>
      <point x="767" y="-1"/>
      <point x="809" y="-1" type="curve"/>
      <point x="810" y="9"/>
      <point x="810" y="20"/>
      <point x="809" y="31" type="curve"/>
      <point x="713" y="39"/>
      <point x="710" y="41"/>
      <point x="710" y="124" type="curve" smooth="yes"/>
      <point x="710" y="589" type="line" smooth="yes"/>
      <point x="710" y="659"/>
      <point x="715" y="661"/>
      <point x="809" y="669" type="curve"/>
      <point x="810" y="680"/>
      <point x="810" y="691"/>
      <point x="809" y="701" type="curve"/>
      <point x="768" y="701"/>
      <point x="695" y="699"/>
      <point x="656" y="699" type="curve" smooth="yes"/>
      <point x="619" y="699"/>
      <point x="541" y="701"/>
      <point x="503" y="701" type="curve"/>
      <point x="502" y="690"/>
      <point x="502" y="679"/>
      <point x="503" y="669" type="curve"/>
      <point x="596" y="661"/>
      <point x="600" y="660"/>
      <point x="600" y="576" type="curve" smooth="yes"/>
      <point x="600" y="111" type="line" smooth="yes"/>
      <point x="600" y="40"/>
      <point x="596" y="39"/>
      <point x="504" y="31" type="curve"/>
      <point x="502" y="20"/>
      <point x="502" y="9"/>
    </contour>
  </outline>
  <guideline angle="90" x="29" y="0"/>
</glyph>
<glyph name="hbar" format="2">
  <advance width="601"/>
  <unicode hex="0127"/>
  <outline>
    <contour>
      <point x="25" y="-1" type="curve"/>
      <point x="65" y="-1"/>
      <point x="100" y="1"/>
      <point x="150" y="1" type="curve" smooth="yes"/>
      <point x="199" y="1"/>
      <point x="238" y="-1"/>
      <point x="272" y="-1" type="curve"/>
      <point x="275" y="9"/>
      <point x="275" y="20"/>
      <point x="272" y="30" type="curve"/>
      <point x="210" y="34"/>
      <point x="203" y="36"/>
      <point x="203" y="114" type="curve" smooth="yes"/>
      <point x="203" y="639" type="line" smooth="yes"/>
      <point x="203" y="683"/>
      <point x="203" y="719"/>
      <point x="205" y="749" type="curve"/>
      <point x="188" y="755" type="line"/>
      <point x="126" y="729"/>
      <point x="73" y="717"/>
      <point x="20" y="710" type="curve"/>
      <point x="18" y="700"/>
      <point x="18" y="692"/>
      <point x="20" y="683" type="curve"/>
      <point x="64" y="679"/>
      <point x="80" y="674"/>
      <point x="91" y="660" type="curve" smooth="yes"/>
      <point x="101" y="647"/>
      <point x="101" y="624"/>
      <point x="101" y="593" type="curve" smooth="yes"/>
      <point x="101" y="104" type="line" smooth="yes"/>
      <point x="101" y="38"/>
      <point x="93" y="34"/>
      <point x="25" y="30" type="curve"/>
      <point x="23" y="20"/>
      <point x="23" y="9"/>
    </contour>
    <contour>
      <point x="338" y="-1" type="curve"/>
      <point x="375" y="-1"/>
      <point x="409" y="1"/>
      <point x="458" y="1" type="curve" smooth="yes"/>
      <point x="509" y="1"/>
      <point x="543" y="-1"/>
      <point x="583" y="-1" type="curve"/>
      <point x="584" y="9"/>
      <point x="584" y="20"/>
      <point x="583" y="30" type="curve"/>
      <point x="517" y="34"/>
      <point x="511" y="36"/>
      <point x="511" y="114" type="curve" smooth="yes"/>
      <point x="511" y="324" type="line" smooth="yes"/>
      <point x="511" y="421"/>
      <point x="463" y="475"/>
      <point x="375" y="475" type="curve" smooth="yes"/>
      <point x="313" y="475"/>
      <point x="243" y="448"/>
      <point x="172" y="369" type="curve"/>
      <point x="176" y="332" type="line"/>
      <point x="231" y="391"/>
      <point x="271" y="408"/>
      <point x="317" y="408" type="curve" smooth="yes"/>
      <point x="390" y="408"/>
      <point x="409" y="369"/>
      <point x="409" y="289" type="curve" smooth="yes"/>
      <point x="409" y="104" type="line" smooth="yes"/>
      <point x="409" y="38"/>
      <point x="400" y="34"/>
      <point x="338" y="30" type="curve"/>
      <point x="337" y="20"/>
      <point x="337" y="9"/>
    </contour>
    <contour>
      <point x="378" y="548" type="line"/>
      <point x="380" y="564"/>
      <point x="380" y="578"/>
      <point x="378" y="593" type="curve"/>
      <point x="18" y="593" type="line"/>
      <point x="16" y="578"/>
      <point x="16" y="564"/>
      <point x="18" y="548" type="curve"/>
    </contour>
  </outline>
</glyph>
<glyph name="dotlessi" format="2">
  <advance width="298"/>
  <unicode hex="0131"/>
  <outline>
    <contour>
      <point x="27" y="-1" type="curve"/>
      <point x="67" y="-1"/>
      <point x="113" y="1"/>
      <point x="156" y="1" type="curve" smooth="yes"/>
      <point x="202" y="1"/>
      <point x="239" y="-1"/>
      <point x="277" y="-1" type="curve"/>
      <point x="279" y="9"/>
      <point x="279" y="20"/>
      <point x="277" y="30" type="curve"/>
      <point x="210" y="34"/>
      <point x="204" y="36"/>
      <point x="204" y="114" type="curve" smooth="yes"/>
      <point x="204" y="382" type="line" smooth="yes"/>
      <point x="204" y="414"/>
      <point x="205" y="449"/>
      <point x="206" y="491" type="curve"/>
      <point x="189" y="497" type="line"/>
      <point x="140" y="479"/>
      <point x="86" y="462"/>
      <point x="30" y="451" type="curve"/>
      <point x="28" y="443"/>
      <point x="28" y="434"/>
      <point x="30" y="425" type="curve"/>
      <point x="103" y="415"/>
      <point x="103" y="406"/>
      <point x="103" y="328" type="curve" smooth="yes"/>
      <point x="103" y="104" type="line" smooth="yes"/>
      <point x="103" y="38"/>
      <point x="95" y="34"/>
      <point x="27" y="30" type="curve"/>
      <point x="25" y="20"/>
      <point x="25" y="9"/>
    </contour>
  </outline>
</glyph>
<glyph name="Eng" format="2">
  <advance width="793"/>
  <unicode hex="014A"/>
  <outline>
    <contour>
      <point x="528" y="-189" type="curve"/>
      <point x="507" y="-148"/>
      <point x="475" y="-123"/>
      <point x="438" y="-123" type="curve" smooth="yes"/>
      <point x="403" y="-123"/>
      <point x="376" y="-144"/>
      <point x="376" y="-178" type="curve" smooth="yes"/>
      <point x="376" y="-223"/>
      <point x="421" y="-242"/>
      <point x="474" y="-242" type="curve" smooth="yes"/>
      <point x="530" y="-242"/>
      <point x="587" y="-221"/>
      <point x="625" y="-175" type="curve" smooth="yes"/>
      <point x="668" y="-122"/>
      <point x="678" y="-51"/>
      <point x="678" y="46" type="curve" smooth="yes"/>
      <point x="678" y="563" type="line" smooth="yes"/>
      <point x="678" y="652"/>
      <point x="682" y="657"/>
      <point x="778" y="669" type="curve"/>
      <point x="779" y="679"/>
      <point x="779" y="691"/>
      <point x="778" y="700" type="curve"/>
      <point x="739" y="700"/>
      <point x="683" y="698"/>
      <point x="650" y="698" type="curve" smooth="yes"/>
      <point x="618" y="698"/>
      <point x="550" y="700"/>
      <point x="512" y="700" type="curve"/>
      <point x="510" y="690"/>
      <point x="510" y="679"/>
      <point x="512" y="668" type="curve"/>
      <point x="566" y="664"/>
      <point x="599" y="655"/>
      <point x="613" y="640" type="curve" smooth="yes"/>
      <point x="627" y="626"/>
      <point x="627" y="600"/>
      <point x="627" y="550" type="curve" smooth="yes"/>
      <point x="627" y="146" type="line"/>
      <point x="637" y="153" type="line"/>
      <point x="221" y="700" type="line"/>
      <point x="198" y="699"/>
      <point x="160" y="699"/>
      <point x="154" y="699" type="curve" smooth="yes"/>
      <point x="107" y="699"/>
      <point x="59" y="701"/>
      <point x="18" y="701" type="curve"/>
      <point x="17" y="690"/>
      <point x="17" y="680"/>
      <point x="18" y="670" type="curve"/>
      <point x="119" y="659"/>
      <point x="125" y="652"/>
      <point x="125" y="546" type="curve" smooth="yes"/>
      <point x="125" y="136" type="line" smooth="yes"/>
      <point x="125" y="46"/>
      <point x="121" y="43"/>
      <point x="26" y="31" type="curve"/>
      <point x="24" y="20"/>
      <point x="24" y="9"/>
      <point x="26" y="-1" type="curve"/>
      <point x="64" y="-1"/>
      <point x="119" y="1"/>
      <point x="153" y="1" type="curve" smooth="yes"/>
      <point x="186" y="1"/>
      <point x="241" y="-1"/>
      <point x="281" y="-1" type="curve"/>
      <point x="282" y="9"/>
      <point x="282" y="21"/>
      <point x="281" y="31" type="curve"/>
      <point x="227" y="36"/>
      <point x="202" y="46"/>
      <point x="190" y="59" type="curve" smooth="yes"/>
      <point x="177" y="73"/>
      <point x="176" y="98"/>
      <point x="176" y="149" type="curve" smooth="yes"/>
      <point x="176" y="597" type="line"/>
      <point x="166" y="590" type="line"/>
      <point x="622" y="-8" type="line"/>
      <point x="620" y="-106"/>
      <point x="588" y="-174"/>
    </contour>
  </outline>
  <guideline angle="90" x="627" y="0"/>
</glyph>
<glyph name="eng" format="2">
  <advance width="591"/>
  <unicode hex="014B"/>
  <outline>
    <contour>
      <point x="309" y="-255" type="curve" smooth="yes"/>
      <point x="358" y="-255"/>
      <point x="407" y="-231"/>
      <point x="449" y="-186" type="curve" smooth="yes"/>
      <point x="494" y="-138"/>
      <point x="510" y="-86"/>
      <point x="510" y="51" type="curve" smooth="yes"/>
      <point x="510" y="341" type="line" smooth="yes"/>
      <point x="510" y="438"/>
      <point x="463" y="492"/>
      <point x="376" y="492" type="curve" smooth="yes"/>
      <point x="314" y="492"/>
      <point x="245" y="465"/>
      <point x="175" y="386" type="curve"/>
      <point x="179" y="349" type="line"/>
      <point x="233" y="408"/>
      <point x="272" y="425"/>
      <point x="318" y="425" type="curve" smooth="yes"/>
      <point x="389" y="425"/>
      <point x="408" y="386"/>
      <point x="408" y="306" type="curve" smooth="yes"/>
      <point x="408" y="-29" type="line" smooth="yes"/>
      <point x="408" y="-76"/>
      <point x="408" y="-193"/>
      <point x="359" y="-207" type="curve"/>
      <point x="371" y="-223" type="line"/>
      <point x="357" y="-179"/>
      <point x="325" y="-158"/>
      <point x="291" y="-158" type="curve" smooth="yes"/>
      <point x="255" y="-158"/>
      <point x="236" y="-180"/>
      <point x="236" y="-204" type="curve" smooth="yes"/>
      <point x="236" y="-228"/>
      <point x="256" y="-255"/>
    </contour>
    <contour>
      <point x="27" y="-1" type="curve"/>
      <point x="67" y="-1"/>
      <point x="108" y="1"/>
      <point x="151" y="1" type="curve" smooth="yes"/>
      <point x="197" y="1"/>
      <point x="237" y="-1"/>
      <point x="275" y="-1" type="curve"/>
      <point x="276" y="9"/>
      <point x="276" y="20"/>
      <point x="275" y="30" type="curve"/>
      <point x="211" y="34"/>
      <point x="204" y="36"/>
      <point x="204" y="114" type="curve" smooth="yes"/>
      <point x="204" y="386" type="line"/>
      <point x="203" y="403" type="line"/>
      <point x="203" y="491" type="line"/>
      <point x="186" y="497" type="line"/>
      <point x="139" y="478"/>
      <point x="84" y="462"/>
      <point x="28" y="451" type="curve"/>
      <point x="26" y="443"/>
      <point x="26" y="434"/>
      <point x="28" y="425" type="curve"/>
      <point x="102" y="415"/>
      <point x="103" y="406"/>
      <point x="103" y="328" type="curve" smooth="yes"/>
      <point x="103" y="104" type="line" smooth="yes"/>
      <point x="103" y="38"/>
      <point x="95" y="34"/>
      <point x="27" y="30" type="curve"/>
      <point x="25" y="20"/>
      <point x="25" y="9"/>
    </contour>
  </outline>
</glyph>
<glyph name="OE" format="2">
  <advance width="1049"/>
  <unicode hex="0152"/>
  <outline>
    <contour>
      <point x="397" y="-8" type="curve" smooth="yes"/>
      <point x="451" y="-8"/>
      <point x="484" y="1"/>
      <point x="633" y="1" type="curve" smooth="yes"/>
      <point x="684" y="1"/>
      <point x="875" y="0"/>
      <point x="990" y="0" type="curve"/>
      <point x="995" y="44"/>
      <point x="1005" y="104"/>
      <point x="1019" y="179" type="curve"/>
      <point x="1008" y="180"/>
      <point x="998" y="180"/>
      <point x="988" y="179" type="curve"/>
      <point x="966" y="131"/>
      <point x="938" y="92"/>
      <point x="917" y="74" type="curve" smooth="yes"/>
      <point x="893" y="54"/>
      <point x="856" y="43"/>
      <point x="788" y="43" type="curve" smooth="yes"/>
      <point x="635" y="43" type="line"/>
      <point x="551" y="78" type="line"/>
      <point x="518" y="48"/>
      <point x="464" y="33"/>
      <point x="410" y="33" type="curve" smooth="yes"/>
      <point x="237" y="33"/>
      <point x="175" y="192"/>
      <point x="175" y="351" type="curve" smooth="yes"/>
      <point x="175" y="512"/>
      <point x="238" y="663"/>
      <point x="411" y="663" type="curve" smooth="yes"/>
      <point x="470" y="663"/>
      <point x="520" y="646"/>
      <point x="550" y="620" type="curve"/>
      <point x="633" y="658" type="line"/>
      <point x="780" y="658" type="line" smooth="yes"/>
      <point x="832" y="658"/>
      <point x="867" y="649"/>
      <point x="892" y="630" type="curve" smooth="yes"/>
      <point x="914" y="613"/>
      <point x="935" y="582"/>
      <point x="952" y="542" type="curve"/>
      <point x="964" y="541"/>
      <point x="974" y="541"/>
      <point x="985" y="542" type="curve"/>
      <point x="976" y="600"/>
      <point x="969" y="652"/>
      <point x="963" y="701" type="curve"/>
      <point x="869" y="699"/>
      <point x="698" y="699"/>
      <point x="655" y="699" type="curve" smooth="yes"/>
      <point x="501" y="699"/>
      <point x="467" y="703"/>
      <point x="426" y="703" type="curve" smooth="yes"/>
      <point x="178" y="703"/>
      <point x="50" y="557"/>
      <point x="50" y="345" type="curve" smooth="yes"/>
      <point x="50" y="134"/>
      <point x="177" y="-8"/>
    </contour>
    <contour>
      <point x="654" y="23" type="line"/>
      <point x="650" y="41"/>
      <point x="649" y="70"/>
      <point x="649" y="124" type="curve" smooth="yes"/>
      <point x="649" y="689" type="line"/>
      <point x="540" y="689" type="line"/>
      <point x="540" y="23" type="line"/>
    </contour>
    <contour>
      <point x="833" y="230" type="curve"/>
      <point x="844" y="228"/>
      <point x="856" y="228"/>
      <point x="867" y="230" type="curve"/>
      <point x="865" y="316"/>
      <point x="865" y="339"/>
      <point x="865" y="362" type="curve" smooth="yes"/>
      <point x="865" y="384"/>
      <point x="865" y="407"/>
      <point x="867" y="492" type="curve"/>
      <point x="855" y="494"/>
      <point x="843" y="494"/>
      <point x="832" y="492" type="curve"/>
      <point x="819" y="394"/>
      <point x="799" y="385"/>
      <point x="703" y="385" type="curve" smooth="yes"/>
      <point x="618" y="385" type="line"/>
      <point x="618" y="342" type="line"/>
      <point x="712" y="342" type="line" smooth="yes"/>
      <point x="799" y="342"/>
      <point x="819" y="335"/>
    </contour>
  </outline>
</glyph>
<glyph name="tcaron" format="2">
  <advance width="452"/>
  <unicode hex="0165"/>
  <outline>
    <contour>
      <point x="219" y="-12" type="curve" smooth="yes"/>
      <point x="268" y="-12"/>
      <point x="313" y="3"/>
      <point x="352" y="32" type="curve"/>
      <point x="351" y="42"/>
      <point x="347" y="54"/>
      <point x="341" y="62" type="curve"/>
      <point x="320" y="49"/>
      <point x="297" y="43"/>
      <point x="274" y="43" type="curve" smooth="yes"/>
      <point x="219" y="43"/>
      <point x="190" y="71"/>
      <point x="190" y="124" type="curve" smooth="yes"/>
      <point x="190" y="297"/>
      <point x="193" y="473"/>
      <point x="196" y="589" type="curve"/>
      <point x="188" y="590"/>
      <point x="177" y="591"/>
      <point x="166" y="591" type="curve"/>
      <point x="133" y="528"/>
      <point x="85" y="483"/>
      <point x="17" y="454" type="curve"/>
      <point x="15" y="446"/>
      <point x="15" y="437"/>
      <point x="17" y="427" type="curve"/>
      <point x="93" y="427" type="line"/>
      <point x="92" y="325"/>
      <point x="89" y="216"/>
      <point x="89" y="99" type="curve" smooth="yes"/>
      <point x="89" y="27"/>
      <point x="139" y="-12"/>
    </contour>
    <contour>
      <point x="327" y="427" type="line"/>
      <point x="329" y="443"/>
      <point x="329" y="458"/>
      <point x="327" y="473" type="curve"/>
      <point x="182" y="473" type="line"/>
      <point x="182" y="427" type="line"/>
    </contour>
    <contour>
      <point x="369" y="485" type="line"/>
      <point x="360" y="484"/>
      <point x="346" y="486"/>
      <point x="338" y="487" type="curve"/>
      <point x="349" y="701" type="line"/>
      <point x="352" y="704"/>
      <point x="363" y="705"/>
      <point x="382" y="705" type="curve" smooth="yes"/>
      <point x="397" y="705"/>
      <point x="417" y="703"/>
      <point x="437" y="699" type="curve"/>
      <point x="437" y="695" type="line"/>
    </contour>
  </outline>
</glyph>
<glyph name="tbar" format="2">
  <advance width="368"/>
  <unicode hex="0167"/>
  <outline>
    <contour>
      <point x="222" y="-12" type="curve" smooth="yes"/>
      <point x="271" y="-12"/>
      <point x="316" y="3"/>
      <point x="355" y="32" type="curve"/>
      <point x="354" y="42"/>
      <point x="350" y="54"/>
      <point x="344" y="62" type="curve"/>
      <point x="323" y="49"/>
      <point x="300" y="43"/>
      <point x="277" y="43" type="curve" smooth="yes"/>
      <point x="222" y="43"/>
      <point x="193" y="71"/>
      <point x="193" y="124" type="curve" smooth="yes"/>
      <point x="193" y="297"/>
      <point x="196" y="473"/>
      <point x="199" y="589" type="curve"/>
      <point x="191" y="590"/>
      <point x="180" y="591"/>
      <point x="169" y="591" type="curve"/>
      <point x="136" y="528"/>
      <point x="88" y="483"/>
      <point x="20" y="454" type="curve"/>
      <point x="18" y="446"/>
      <point x="18" y="437"/>
      <point x="20" y="427" type="curve"/>
      <point x="96" y="427" type="line"/>
      <point x="95" y="325"/>
      <point x="92" y="216"/>
      <point x="92" y="99" type="curve" smooth="yes"/>
      <point x="92" y="27"/>
      <point x="142" y="-12"/>
    </contour>
    <contour>
      <point x="348" y="293" type="line"/>
      <point x="350" y="309"/>
      <point x="350" y="323"/>
      <point x="348" y="338" type="curve"/>
      <point x="20" y="338" type="line"/>
      <point x="18" y="323"/>
      <point x="18" y="309"/>
      <point x="20" y="293" type="curve"/>
    </contour>
    <contour>
      <point x="348" y="427" type="line"/>
      <point x="350" y="443"/>
      <point x="350" y="458"/>
      <point x="348" y="473" type="curve"/>
      <point x="185" y="473" type="line"/>
      <point x="185" y="427" type="line"/>
    </contour>
  </outline>
</glyph>
<glyph name="uogonek" format="2">
  <advance width="583"/>
  <unicode hex="0173"/>
  <outline>
    <contour>
      <point x="461" y="-250" type="curve" smooth="yes"/>
      <point x="496" y="-250"/>
      <point x="534" y="-238"/>
      <point x="567" y="-211" type="curve"/>
      <point x="566" y="-204"/>
      <point x="563" y="-196"/>
      <point x="559" y="-188" type="curve"/>
      <point x="547" y="-192"/>
      <point x="532" y="-196"/>
      <point x="514" y="-196" type="curve" smooth="yes"/>
      <point x="472" y="-196"/>
      <point x="445" y="-173"/>
      <point x="445" y="-132" type="curve" smooth="yes"/>
      <point x="445" y="-50"/>
      <point x="526" y="6"/>
      <point x="567" y="15" type="curve"/>
      <point x="568" y="24"/>
      <point x="568" y="32"/>
      <point x="567" y="40" type="curve"/>
      <point x="490" y="48"/>
      <point x="489" y="57"/>
      <point x="489" y="117" type="curve" smooth="yes"/>
      <point x="489" y="376" type="line" smooth="yes"/>
      <point x="489" y="408"/>
      <point x="490" y="444"/>
      <point x="491" y="486" type="curve"/>
      <point x="476" y="493" type="line"/>
      <point x="421" y="480"/>
      <point x="370" y="471"/>
      <point x="313" y="463" type="curve"/>
      <point x="311" y="455"/>
      <point x="311" y="446"/>
      <point x="313" y="438" type="curve"/>
      <point x="387" y="427"/>
      <point x="388" y="418"/>
      <point x="388" y="340" type="curve" smooth="yes"/>
      <point x="388" y="108" type="line"/>
      <point x="355" y="73"/>
      <point x="320" y="55"/>
      <point x="281" y="55" type="curve" smooth="yes"/>
      <point x="209" y="55"/>
      <point x="190" y="94"/>
      <point x="190" y="174" type="curve" smooth="yes"/>
      <point x="190" y="376" type="line" smooth="yes"/>
      <point x="190" y="408"/>
      <point x="191" y="444"/>
      <point x="192" y="486" type="curve"/>
      <point x="177" y="493" type="line"/>
      <point x="123" y="480"/>
      <point x="72" y="471"/>
      <point x="15" y="463" type="curve"/>
      <point x="12" y="455"/>
      <point x="12" y="446"/>
      <point x="15" y="438" type="curve"/>
      <point x="89" y="427"/>
      <point x="90" y="418"/>
      <point x="90" y="340" type="curve" smooth="yes"/>
      <point x="90" y="138" type="line" smooth="yes"/>
      <point x="90" y="40"/>
      <point x="139" y="-12"/>
      <point x="226" y="-12" type="curve" smooth="yes"/>
      <point x="282" y="-12"/>
      <point x="335" y="14"/>
      <point x="391" y="67" type="curve"/>
      <point x="393" y="-1" type="line"/>
      <point x="409" y="-8" type="line"/>
      <point x="434" y="-2"/>
      <point x="467" y="5"/>
      <point x="495" y="10" type="curve"/>
      <point x="496" y="7" type="line"/>
      <point x="399" y="-39"/>
      <point x="349" y="-96"/>
      <point x="349" y="-156" type="curve" smooth="yes"/>
      <point x="349" y="-211"/>
      <point x="388" y="-250"/>
    </contour>
  </outline>
</glyph>
<glyph name="florin" format="2">
  <advance width="473"/>
  <unicode hex="0192"/>
  <outline>
    <contour>
      <point x="12" y="-255" type="curve" smooth="yes"/>
      <point x="62" y="-255"/>
      <point x="113" y="-230"/>
      <point x="153" y="-186" type="curve" smooth="yes"/>
      <point x="198" y="-137"/>
      <point x="214" y="-86"/>
      <point x="214" y="47" type="curve" smooth="yes"/>
      <point x="214" y="79"/>
      <point x="212" y="362"/>
      <point x="212" y="437" type="curve" smooth="yes"/>
      <point x="212" y="545"/>
      <point x="240" y="587"/>
      <point x="303" y="587" type="curve" smooth="yes"/>
      <point x="321" y="587"/>
      <point x="333" y="583"/>
      <point x="345" y="578" type="curve"/>
      <point x="336" y="593" type="line"/>
      <point x="330" y="553"/>
      <point x="358" y="500"/>
      <point x="411" y="500" type="curve" smooth="yes"/>
      <point x="443" y="500"/>
      <point x="463" y="521"/>
      <point x="463" y="552" type="curve" smooth="yes"/>
      <point x="463" y="609"/>
      <point x="394" y="630"/>
      <point x="334" y="630" type="curve" smooth="yes"/>
      <point x="280" y="630"/>
      <point x="221" y="613"/>
      <point x="182" y="579" type="curve" smooth="yes"/>
      <point x="122" y="527"/>
      <point x="113" y="461"/>
      <point x="111" y="416" type="curve" smooth="yes"/>
      <point x="109" y="375"/>
      <point x="101" y="370"/>
      <point x="27" y="358" type="curve"/>
      <point x="25" y="350"/>
      <point x="25" y="341"/>
      <point x="27" y="331" type="curve"/>
      <point x="111" y="331" type="line"/>
      <point x="111" y="277"/>
      <point x="112" y="33"/>
      <point x="112" y="-36" type="curve" smooth="yes"/>
      <point x="112" y="-77"/>
      <point x="111" y="-201"/>
      <point x="59" y="-208" type="curve"/>
      <point x="74" y="-218" type="line"/>
      <point x="59" y="-177"/>
      <point x="28" y="-158"/>
      <point x="-5" y="-158" type="curve" smooth="yes"/>
      <point x="-41" y="-158"/>
      <point x="-60" y="-180"/>
      <point x="-60" y="-204" type="curve" smooth="yes"/>
      <point x="-60" y="-228"/>
      <point x="-39" y="-255"/>
    </contour>
    <contour>
      <point x="337" y="331" type="line"/>
      <point x="339" y="347"/>
      <point x="339" y="362"/>
      <point x="337" y="377" type="curve"/>
      <point x="201" y="377" type="line"/>
      <point x="201" y="331" type="line"/>
    </contour>
  </outline>
</glyph>
<glyph name="macroncomb" format="2">
  <unicode hex="0304"/>
  <outline>
    <contour>
      <point x="-428" y="661" type="line"/>
      <point x="-430" y="645"/>
      <point x="-430" y="627"/>
      <point x="-428" y="611" type="curve"/>
      <point x="-146" y="611" type="line"/>
      <point x="-144" y="627"/>
      <point x="-144" y="645"/>
      <point x="-146" y="661" type="curve"/>
    </contour>
  </outline>
</glyph>
<glyph name="brevecomb" format="2">
  <unicode hex="0306"/>
  <outline>
    <contour>
      <point x="-284" y="542" type="curve" smooth="yes"/>
      <point x="-199" y="542"/>
      <point x="-146" y="610"/>
      <point x="-135" y="735" type="curve"/>
      <point x="-144" y="739"/>
      <point x="-154" y="741"/>
      <point x="-165" y="742" type="curve"/>
      <point x="-176" y="662"/>
      <point x="-218" y="623"/>
      <point x="-283" y="623" type="curve" smooth="yes"/>
      <point x="-345" y="623"/>
      <point x="-386" y="657"/>
      <point x="-400" y="742" type="curve"/>
      <point x="-411" y="741"/>
      <point x="-421" y="739"/>
      <point x="-430" y="735" type="curve"/>
      <point x="-418" y="610"/>
      <point x="-369" y="542"/>
    </contour>
  </outline>
</glyph>
<glyph name="dotaccentcomb" format="2">
  <unicode hex="0307"/>
  <outline>
    <contour>
      <point x="-356" y="667" type="curve" smooth="yes"/>
      <point x="-356" y="630"/>
      <point x="-326" y="599"/>
      <point x="-288" y="599" type="curve" smooth="yes"/>
      <point x="-247" y="599"/>
      <point x="-217" y="633"/>
      <point x="-217" y="668" type="curve" smooth="yes"/>
      <point x="-217" y="705"/>
      <point x="-249" y="736"/>
      <point x="-286" y="736" type="curve" smooth="yes"/>
      <point x="-325" y="736"/>
      <point x="-356" y="705"/>
    </contour>
  </outline>
  <guideline angle="90" x="-286" y="0"/>
</glyph>
<glyph name="hungarumlautcomb" format="2">
  <unicode hex="030B"/>
  <outline>
    <contour>
      <point x="-91" y="742" type="line"/>
      <point x="-91" y="746" type="line"/>
      <point x="-114" y="750"/>
      <point x="-133" y="752"/>
      <point x="-160" y="752" type="curve" smooth="yes"/>
      <point x="-180" y="752"/>
      <point x="-191" y="750"/>
      <point x="-194" y="747" type="curve"/>
      <point x="-243" y="551" type="line"/>
      <point x="-235" y="548"/>
      <point x="-221" y="547"/>
      <point x="-214" y="548" type="curve"/>
    </contour>
    <contour>
      <point x="-245" y="742" type="line"/>
      <point x="-245" y="746" type="line"/>
      <point x="-268" y="750"/>
      <point x="-287" y="752"/>
      <point x="-314" y="752" type="curve" smooth="yes"/>
      <point x="-334" y="752"/>
      <point x="-345" y="750"/>
      <point x="-348" y="747" type="curve"/>
      <point x="-397" y="551" type="line"/>
      <point x="-389" y="548"/>
      <point x="-375" y="547"/>
      <point x="-368" y="548" type="curve"/>
    </contour>
  </outline>
</glyph>
<glyph name="caroncomb" format="2">
  <unicode hex="030C"/>
  <outline>
    <contour>
      <point x="-278" y="621" type="line"/>
      <point x="-320" y="662"/>
      <point x="-367" y="707"/>
      <point x="-418" y="752" type="curve"/>
      <point x="-428" y="750"/>
      <point x="-438" y="746"/>
      <point x="-447" y="739" type="curve"/>
      <point x="-409" y="684"/>
      <point x="-362" y="608"/>
      <point x="-331" y="552" type="curve"/>
      <point x="-318" y="549"/>
      <point x="-303" y="548"/>
      <point x="-287" y="548" type="curve" smooth="yes"/>
      <point x="-271" y="548"/>
      <point x="-256" y="549"/>
      <point x="-243" y="552" type="curve"/>
      <point x="-212" y="608"/>
      <point x="-165" y="684"/>
      <point x="-126" y="739" type="curve"/>
      <point x="-135" y="746"/>
      <point x="-146" y="750"/>
      <point x="-155" y="752" type="curve"/>
      <point x="-205" y="707"/>
      <point x="-252" y="662"/>
      <point x="-294" y="621" type="curve"/>
    </contour>
  </outline>
  <guideline angle="0" x="0" y="525"/>
  <guideline angle="0" x="0" y="735"/>
</glyph>
<glyph name="dotbelowcomb" format="2">
  <unicode hex="0323"/>
  <outline>
    <contour>
      <point x="-288" y="-220" type="curve" smooth="yes"/>
      <point x="-247" y="-220"/>
      <point x="-217" y="-186"/>
      <point x="-217" y="-151" type="curve" smooth="yes"/>
      <point x="-217" y="-114"/>
      <point x="-249" y="-83"/>
      <point x="-286" y="-83" type="curve" smooth="yes"/>
      <point x="-325" y="-83"/>
      <point x="-356" y="-114"/>
      <point x="-356" y="-152" type="curve" smooth="yes"/>
      <point x="-356" y="-189"/>
      <point x="-326" y="-220"/>
    </contour>
  </outline>
</glyph>
<glyph name="dieresisbelowcomb" format="2">
  <unicode hex="0324"/>
  <outline>
    <contour>
      <point x="-450" y="-152" type="curve" smooth="yes"/>
      <point x="-450" y="-187"/>
      <point x="-425" y="-215"/>
      <point x="-388" y="-215" type="curve" smooth="yes"/>
      <point x="-351" y="-215"/>
      <point x="-326" y="-187"/>
      <point x="-326" y="-152" type="curve" smooth="yes"/>
      <point x="-326" y="-117"/>
      <point x="-351" y="-90"/>
      <point x="-388" y="-90" type="curve" smooth="yes"/>
      <point x="-425" y="-90"/>
      <point x="-450" y="-117"/>
    </contour>
    <contour>
      <point x="-247" y="-152" type="curve" smooth="yes"/>
      <point x="-247" y="-187"/>
      <point x="-222" y="-215"/>
      <point x="-185" y="-215" type="curve" smooth="yes"/>
      <point x="-148" y="-215"/>
      <point x="-123" y="-187"/>
      <point x="-123" y="-152" type="curve" smooth="yes"/>
      <point x="-123" y="-117"/>
      <point x="-148" y="-90"/>
      <point x="-185" y="-90" type="curve" smooth="yes"/>
      <point x="-222" y="-90"/>
      <point x="-247" y="-117"/>
    </contour>
  </outline>
  <guideline angle="0" x="0" y="-97"/>
  <guideline angle="90" x="-154" y="0"/>
</glyph>
<glyph name="cedillacomb" format="2">
  <unicode hex="0327"/>
  <outline>
    <contour>
      <point x="-337" y="-260" type="curve" smooth="yes"/>
      <point x="-262" y="-260"/>
      <point x="-196" y="-218"/>
      <point x="-196" y="-146" type="curve" smooth="yes"/>
      <point x="-196" y="-103"/>
      <point x="-222" y="-66"/>
      <point x="-295" y="-51" type="curve"/>
      <point x="-292" y="-62" type="line"/>
      <point x="-245" y="10" type="line"/>
      <point x="-287" y="10" type="line"/>
      <point x="-366" y="-104" type="line"/>
      <point x="-364" y="-109" type="line"/>
      <point x="-300" y="-114"/>
      <point x="-259" y="-140"/>
      <point x="-259" y="-180" type="curve" smooth="yes"/>
      <point x="-259" y="-206"/>
      <point x="-276" y="-227"/>
      <point x="-325" y="-227" type="curve"/>
      <point x="-315" y="-234" type="line"/>
      <point x="-330" y="-188"/>
      <point x="-357" y="-174"/>
      <point x="-376" y="-174" type="curve" smooth="yes"/>
      <point x="-397" y="-174"/>
      <point x="-414" y="-190"/>
      <point x="-414" y="-210" type="curve" smooth="yes"/>
      <point x="-414" y="-233"/>
      <point x="-392" y="-260"/>
    </contour>
  </outline>
</glyph>
<glyph name="ogonekcomb" format="2">
  <unicode hex="0328"/>
  <outline>
    <contour>
      <point x="-270" y="-250" type="curve" smooth="yes"/>
      <point x="-235" y="-250"/>
      <point x="-197" y="-238"/>
      <point x="-164" y="-211" type="curve"/>
      <point x="-165" y="-204"/>
      <point x="-168" y="-196"/>
      <point x="-172" y="-188" type="curve"/>
      <point x="-184" y="-192"/>
      <point x="-199" y="-196"/>
      <point x="-217" y="-196" type="curve" smooth="yes"/>
      <point x="-259" y="-196"/>
      <point x="-286" y="-173"/>
      <point x="-286" y="-132" type="curve" smooth="yes"/>
      <point x="-286" y="-83"/>
      <point x="-256" y="-36"/>
      <point x="-195" y="12" type="curve"/>
      <point x="-232" y="12" type="line"/>
      <point x="-327" y="-38"/>
      <point x="-382" y="-93"/>
      <point x="-382" y="-156" type="curve" smooth="yes"/>
      <point x="-382" y="-211"/>
      <point x="-343" y="-250"/>
    </contour>
  </outline>
</glyph>
<glyph name="macronbelowcomb" format="2">
  <unicode hex="0331"/>
  <outline>
    <contour>
      <point x="-146" y="-153" type="line"/>
      <point x="-144" y="-137"/>
      <point x="-144" y="-119"/>
      <point x="-146" y="-103" type="curve"/>
      <point x="-428" y="-103" type="line"/>
      <point x="-430" y="-119"/>
      <point x="-430" y="-137"/>
      <point x="-428" y="-153" type="curve"/>
    </contour>
  </outline>
</glyph>
<glyph name="Germandbls" format="2">
  <advance width="743"/>
  <unicode hex="1E9E"/>
  <outline>
    <contour>
      <point x="14" y="-1" type="curve"/>
      <point x="53" y="-1"/>
      <point x="130" y="1"/>
      <point x="161" y="1" type="curve" smooth="yes"/>
      <point x="183" y="1"/>
      <point x="209" y="0"/>
      <point x="221" y="0" type="curve"/>
      <point x="223" y="11"/>
      <point x="223" y="25"/>
      <point x="223" y="38" type="curve" smooth="yes"/>
      <point x="223" y="437" type="line" smooth="yes"/>
      <point x="223" y="616"/>
      <point x="338" y="664"/>
      <point x="456" y="664" type="curve" smooth="yes"/>
      <point x="519" y="664"/>
      <point x="573" y="650"/>
      <point x="621" y="630" type="curve"/>
      <point x="652" y="670" type="line"/>
      <point x="598" y="692"/>
      <point x="534" y="711"/>
      <point x="436" y="711" type="curve" smooth="yes"/>
      <point x="252" y="711"/>
      <point x="113" y="645"/>
      <point x="113" y="444" type="curve" smooth="yes"/>
      <point x="113" y="123" type="line" smooth="yes"/>
      <point x="113" y="40"/>
      <point x="108" y="39"/>
      <point x="14" y="31" type="curve"/>
      <point x="12" y="20"/>
      <point x="12" y="9"/>
    </contour>
    <contour>
      <point x="466" y="-14" type="curve" smooth="yes"/>
      <point x="609" y="-14"/>
      <point x="701" y="62"/>
      <point x="701" y="183" type="curve" smooth="yes"/>
      <point x="701" y="320"/>
      <point x="570" y="367"/>
      <point x="456" y="382" type="curve"/>
      <point x="377" y="355" type="line"/>
      <point x="534" y="329"/>
      <point x="591" y="261"/>
      <point x="591" y="163" type="curve" smooth="yes"/>
      <point x="591" y="77"/>
      <point x="544" y="25"/>
      <point x="468" y="25" type="curve" smooth="yes"/>
      <point x="384" y="25"/>
      <point x="337" y="87"/>
      <point x="315" y="196" type="curve"/>
      <point x="305" y="196"/>
      <point x="295" y="196"/>
      <point x="285" y="195" type="curve"/>
      <point x="289" y="122"/>
      <point x="291" y="60"/>
      <point x="292" y="7" type="curve"/>
      <point x="310" y="7"/>
      <point x="335" y="3"/>
      <point x="378" y="-4" type="curve" smooth="yes"/>
      <point x="429" y="-12"/>
      <point x="444" y="-14"/>
    </contour>
    <contour>
      <point x="487" y="367" type="line"/>
      <point x="658" y="649" type="line"/>
      <point x="657" y="657"/>
      <point x="655" y="664"/>
      <point x="652" y="670" type="curve"/>
      <point x="541" y="665" type="line"/>
      <point x="373" y="375" type="line"/>
      <point x="373" y="368"/>
      <point x="374" y="362"/>
      <point x="377" y="355" type="curve"/>
    </contour>
  </outline>
</glyph>
<glyph name="endash" format="2">
  <advance width="500"/>
  <unicode hex="2013"/>
  <outline>
    <contour>
      <point x="484" y="223" type="line"/>
      <point x="485" y="244"/>
      <point x="485" y="262"/>
      <point x="484" y="281" type="curve"/>
      <point x="17" y="281" type="line"/>
      <point x="15" y="262"/>
      <point x="15" y="242"/>
      <point x="17" y="223" type="curve"/>
    </contour>
  </outline>
</glyph>
<glyph name="quoteright" format="2">
  <advance width="222"/>
  <unicode hex="2019"/>
  <outline>
    <contour>
      <point x="54" y="416" type="line"/>
      <point x="147" y="455"/>
      <point x="192" y="525"/>
      <point x="192" y="604" type="curve" smooth="yes"/>
      <point x="192" y="660"/>
      <point x="161" y="711"/>
      <point x="104" y="711" type="curve" smooth="yes"/>
      <point x="63" y="711"/>
      <point x="35" y="682"/>
      <point x="35" y="645" type="curve" smooth="yes"/>
      <point x="35" y="611"/>
      <point x="64" y="589"/>
      <point x="93" y="589" type="curve" smooth="yes"/>
      <point x="109" y="589"/>
      <point x="123" y="594"/>
      <point x="136" y="610" type="curve"/>
      <point x="119" y="613" type="line"/>
      <point x="131" y="595"/>
      <point x="134" y="579"/>
      <point x="134" y="563" type="curve" smooth="yes"/>
      <point x="134" y="510"/>
      <point x="84" y="465"/>
      <point x="38" y="445" type="curve"/>
    </contour>
  </outline>
</glyph>
<glyph name="quotereversed" format="2">
  <advance width="222"/>
  <unicode hex="201B"/>
  <outline>
    <contour>
      <point x="184" y="445" type="line"/>
      <point x="138" y="465"/>
      <point x="88" y="510"/>
      <point x="88" y="563" type="curve" smooth="yes"/>
      <point x="88" y="579"/>
      <point x="91" y="595"/>
      <point x="103" y="613" type="curve"/>
      <point x="86" y="610" type="line"/>
      <point x="99" y="594"/>
      <point x="113" y="589"/>
      <point x="129" y="589" type="curve" smooth="yes"/>
      <point x="158" y="589"/>
      <point x="187" y="611"/>
      <point x="187" y="645" type="curve" smooth="yes"/>
      <point x="187" y="682"/>
      <point x="159" y="711"/>
      <point x="118" y="711" type="curve" smooth="yes"/>
      <point x="61" y="711"/>
      <point x="30" y="660"/>
      <point x="30" y="604" type="curve" smooth="yes"/>
      <point x="30" y="525"/>
      <point x="75" y="455"/>
      <point x="168" y="416" type="curve"/>
    </contour>
  </outline>
</glyph>
<glyph name="dagger" format="2">
  <advance width="547"/>
  <unicode hex="2020"/>
  <outline>
    <contour>
      <point x="292" y="-180" type="line"/>
      <point x="292" y="66"/>
      <point x="329" y="249"/>
      <point x="329" y="273" type="curve" smooth="yes"/>
      <point x="329" y="285"/>
      <point x="291" y="348"/>
      <point x="291" y="431" type="curve" smooth="yes"/>
      <point x="291" y="533"/>
      <point x="328" y="639"/>
      <point x="328" y="656" type="curve" smooth="yes"/>
      <point x="328" y="692"/>
      <point x="302" y="711"/>
      <point x="274" y="711" type="curve" smooth="yes"/>
      <point x="245" y="711"/>
      <point x="218" y="692"/>
      <point x="218" y="656" type="curve" smooth="yes"/>
      <point x="218" y="639"/>
      <point x="257" y="533"/>
      <point x="257" y="431" type="curve" smooth="yes"/>
      <point x="257" y="348"/>
      <point x="217" y="285"/>
      <point x="217" y="273" type="curve" smooth="yes"/>
      <point x="217" y="249"/>
      <point x="256" y="66"/>
      <point x="256" y="-180" type="curve"/>
    </contour>
    <contour>
      <point x="89" y="380" type="curve" smooth="yes"/>
      <point x="106" y="380"/>
      <point x="180" y="416"/>
      <point x="274" y="416" type="curve" smooth="yes"/>
      <point x="365" y="416"/>
      <point x="440" y="380"/>
      <point x="458" y="380" type="curve" smooth="yes"/>
      <point x="490" y="380"/>
      <point x="507" y="403"/>
      <point x="507" y="428" type="curve" smooth="yes"/>
      <point x="507" y="452"/>
      <point x="490" y="475"/>
      <point x="458" y="475" type="curve" smooth="yes"/>
      <point x="436" y="475"/>
      <point x="372" y="443"/>
      <point x="274" y="443" type="curve" smooth="yes"/>
      <point x="179" y="443"/>
      <point x="106" y="475"/>
      <point x="89" y="475" type="curve" smooth="yes"/>
      <point x="57" y="475"/>
      <point x="40" y="452"/>
      <point x="40" y="428" type="curve" smooth="yes"/>
      <point x="40" y="403"/>
      <point x="57" y="380"/>
    </contour>
  </outline>
</glyph>
<glyph name="minute" format="2">
  <advance width="225"/>
  <unicode hex="2032"/>
  <outline>
    <contour>
      <point x="183" y="638" type="line" smooth="yes"/>
      <point x="190" y="657"/>
      <point x="195" y="671"/>
      <point x="195" y="676" type="curve" smooth="yes"/>
      <point x="195" y="696"/>
      <point x="169" y="711"/>
      <point x="140" y="711" type="curve" smooth="yes"/>
      <point x="116" y="711"/>
      <point x="85" y="697"/>
      <point x="84" y="678" type="curve" smooth="yes"/>
      <point x="70" y="418" type="line"/>
      <point x="100" y="418" type="line"/>
    </contour>
  </outline>
</glyph>
<glyph name="guilsinglleft" format="2">
  <advance width="322"/>
  <unicode hex="2039"/>
  <outline>
    <contour>
      <point x="129" y="239" type="line"/>
      <point x="175" y="276"/>
      <point x="248" y="353"/>
      <point x="287" y="409" type="curve"/>
      <point x="282" y="417"/>
      <point x="274" y="424"/>
      <point x="266" y="430" type="curve"/>
      <point x="204" y="374"/>
      <point x="122" y="313"/>
      <point x="42" y="263" type="curve"/>
      <point x="41" y="255"/>
      <point x="40" y="246"/>
      <point x="40" y="238" type="curve" smooth="yes"/>
      <point x="40" y="235"/>
      <point x="40" y="231"/>
      <point x="41" y="227" type="curve"/>
      <point x="117" y="180"/>
      <point x="197" y="118"/>
      <point x="261" y="61" type="curve"/>
      <point x="269" y="67"/>
      <point x="277" y="73"/>
      <point x="282" y="81" type="curve"/>
      <point x="244" y="136"/>
      <point x="175" y="213"/>
      <point x="129" y="251" type="curve"/>
    </contour>
  </outline>
</glyph>
<glyph name="fraction" format="2">
  <advance width="110"/>
  <unicode hex="2044"/>
  <outline>
    <contour>
      <point x="308" y="662" type="line"/>
      <point x="297" y="672"/>
      <point x="285" y="680"/>
      <point x="273" y="688" type="curve"/>
      <point x="-198" y="17" type="line"/>
      <point x="-187" y="7"/>
      <point x="-175" y="-2"/>
      <point x="-163" y="-9" type="curve"/>
    </contour>
  </outline>
</glyph>
<glyph name="foursuperior" format="2">
  <advance width="433"/>
  <unicode hex="2074"/>
  <outline>
    <contour>
      <point x="274" y="332" type="curve" smooth="yes"/>
      <point x="289" y="332"/>
      <point x="303" y="332"/>
      <point x="316" y="333" type="curve"/>
      <point x="316" y="713" type="line" smooth="yes"/>
      <point x="316" y="728"/>
      <point x="316" y="744"/>
      <point x="318" y="782" type="curve"/>
      <point x="299" y="786"/>
      <point x="276" y="788"/>
      <point x="254" y="788" type="curve"/>
      <point x="174" y="686"/>
      <point x="97" y="593"/>
      <point x="21" y="488" type="curve"/>
      <point x="21" y="475"/>
      <point x="22" y="453"/>
      <point x="24" y="440" type="curve"/>
      <point x="406" y="440" type="line"/>
      <point x="408" y="461"/>
      <point x="410" y="483"/>
      <point x="410" y="507" type="curve"/>
      <point x="51" y="507" type="line"/>
      <point x="59" y="482" type="line"/>
      <point x="121" y="565"/>
      <point x="185" y="645"/>
      <point x="254" y="728" type="curve"/>
      <point x="233" y="735" type="line"/>
      <point x="233" y="333" type="line"/>
      <point x="245" y="332"/>
      <point x="262" y="332"/>
    </contour>
  </outline>
</glyph>
<glyph name="fivesuperior" format="2">
  <advance width="391"/>
  <unicode hex="2075"/>
  <outline>
    <contour>
      <point x="101" y="783" type="line"/>
      <point x="68" y="547" type="line"/>
      <point x="74" y="544" type="line"/>
      <point x="99" y="554"/>
      <point x="126" y="557"/>
      <point x="149" y="557" type="curve" smooth="yes"/>
      <point x="239" y="557"/>
      <point x="271" y="511"/>
      <point x="271" y="463" type="curve" smooth="yes"/>
      <point x="271" y="406"/>
      <point x="227" y="356"/>
      <point x="168" y="356" type="curve" smooth="yes"/>
      <point x="153" y="356"/>
      <point x="141" y="359"/>
      <point x="128" y="365" type="curve"/>
      <point x="149" y="349" type="line"/>
      <point x="133" y="423"/>
      <point x="100" y="454"/>
      <point x="67" y="454" type="curve" smooth="yes"/>
      <point x="44" y="454"/>
      <point x="25" y="440"/>
      <point x="25" y="410" type="curve" smooth="yes"/>
      <point x="25" y="357"/>
      <point x="85" y="324"/>
      <point x="159" y="324" type="curve" smooth="yes"/>
      <point x="252" y="324"/>
      <point x="353" y="377"/>
      <point x="353" y="488" type="curve" smooth="yes"/>
      <point x="353" y="569"/>
      <point x="299" y="632"/>
      <point x="178" y="632" type="curve" smooth="yes"/>
      <point x="157" y="632"/>
      <point x="134" y="630"/>
      <point x="107" y="624" type="curve"/>
      <point x="115" y="617" type="line"/>
      <point x="130" y="713" type="line"/>
      <point x="119" y="701" type="line"/>
      <point x="317" y="699" type="line"/>
      <point x="325" y="725"/>
      <point x="330" y="759"/>
      <point x="334" y="785" type="curve"/>
    </contour>
  </outline>
</glyph>
<glyph name="sixsuperior" format="2">
  <advance width="433"/>
  <unicode hex="2076"/>
  <outline>
    <contour>
      <point x="220" y="324" type="curve" smooth="yes"/>
      <point x="310" y="324"/>
      <point x="398" y="376"/>
      <point x="398" y="482" type="curve" smooth="yes"/>
      <point x="398" y="578"/>
      <point x="324" y="622"/>
      <point x="249" y="622" type="curve" smooth="yes"/>
      <point x="209" y="622"/>
      <point x="169" y="610"/>
      <point x="136" y="586" type="curve"/>
      <point x="128" y="543" type="line"/>
      <point x="153" y="565"/>
      <point x="182" y="576"/>
      <point x="209" y="576" type="curve" smooth="yes"/>
      <point x="256" y="576"/>
      <point x="303" y="542"/>
      <point x="303" y="462" type="curve" smooth="yes"/>
      <point x="303" y="386"/>
      <point x="262" y="358"/>
      <point x="224" y="358" type="curve" smooth="yes"/>
      <point x="178" y="358"/>
      <point x="132" y="402"/>
      <point x="132" y="511" type="curve" smooth="yes"/>
      <point x="132" y="647"/>
      <point x="203" y="756"/>
      <point x="336" y="756" type="curve" smooth="yes"/>
      <point x="349" y="756"/>
      <point x="355" y="756"/>
      <point x="365" y="755" type="curve"/>
      <point x="366" y="767"/>
      <point x="367" y="775"/>
      <point x="367" y="787" type="curve"/>
      <point x="356" y="788"/>
      <point x="344" y="788"/>
      <point x="339" y="788" type="curve" smooth="yes"/>
      <point x="136" y="788"/>
      <point x="40" y="643"/>
      <point x="40" y="507" type="curve" smooth="yes"/>
      <point x="40" y="373"/>
      <point x="133" y="324"/>
    </contour>
  </outline>
</glyph>
<glyph name="sevensuperior" format="2">
  <advance width="350"/>
  <unicode hex="2077"/>
  <outline>
    <contour>
      <point x="89" y="326" type="line"/>
      <point x="104" y="325"/>
      <point x="116" y="325"/>
      <point x="131" y="325" type="curve" smooth="yes"/>
      <point x="146" y="325"/>
      <point x="165" y="325"/>
      <point x="178" y="326" type="curve"/>
      <point x="217" y="458"/>
      <point x="280" y="625"/>
      <point x="334" y="758" type="curve"/>
      <point x="334" y="769"/>
      <point x="333" y="774"/>
      <point x="331" y="783" type="curve"/>
      <point x="314" y="781"/>
      <point x="264" y="781"/>
      <point x="225" y="781" type="curve" smooth="yes"/>
      <point x="159" y="781"/>
      <point x="101" y="781"/>
      <point x="43" y="785" type="curve"/>
      <point x="37" y="735"/>
      <point x="28" y="680"/>
      <point x="16" y="623" type="curve"/>
      <point x="25" y="619"/>
      <point x="36" y="619"/>
      <point x="44" y="619" type="curve"/>
      <point x="72" y="697"/>
      <point x="82" y="701"/>
      <point x="127" y="703" type="curve" smooth="yes"/>
      <point x="144" y="704"/>
      <point x="160" y="704"/>
      <point x="172" y="704" type="curve" smooth="yes"/>
      <point x="227" y="704"/>
      <point x="275" y="703"/>
      <point x="276" y="703" type="curve"/>
      <point x="212" y="579"/>
      <point x="147" y="460"/>
      <point x="85" y="337" type="curve"/>
    </contour>
  </outline>
</glyph>
<glyph name="eightsuperior" format="2">
  <advance width="417"/>
  <unicode hex="2078"/>
  <outline>
    <contour>
      <point x="200" y="324" type="curve" smooth="yes"/>
      <point x="316" y="324"/>
      <point x="388" y="384"/>
      <point x="388" y="456" type="curve" smooth="yes"/>
      <point x="388" y="529"/>
      <point x="316" y="566"/>
      <point x="245" y="599" type="curve" smooth="yes"/>
      <point x="167" y="635"/>
      <point x="132" y="652"/>
      <point x="132" y="691" type="curve" smooth="yes"/>
      <point x="132" y="725"/>
      <point x="160" y="757"/>
      <point x="211" y="757" type="curve" smooth="yes"/>
      <point x="264" y="757"/>
      <point x="286" y="722"/>
      <point x="286" y="679" type="curve" smooth="yes"/>
      <point x="286" y="637"/>
      <point x="265" y="609"/>
      <point x="238" y="597" type="curve"/>
      <point x="276" y="578" type="line"/>
      <point x="276" y="586" type="line"/>
      <point x="321" y="603"/>
      <point x="371" y="637"/>
      <point x="371" y="687" type="curve" smooth="yes"/>
      <point x="371" y="739"/>
      <point x="317" y="788"/>
      <point x="216" y="788" type="curve" smooth="yes"/>
      <point x="113" y="788"/>
      <point x="48" y="736"/>
      <point x="48" y="669" type="curve" smooth="yes"/>
      <point x="48" y="598"/>
      <point x="120" y="564"/>
      <point x="188" y="533" type="curve" smooth="yes"/>
      <point x="256" y="502"/>
      <point x="301" y="482"/>
      <point x="301" y="434" type="curve" smooth="yes"/>
      <point x="301" y="394"/>
      <point x="270" y="356"/>
      <point x="210" y="356" type="curve" smooth="yes"/>
      <point x="147" y="356"/>
      <point x="118" y="398"/>
      <point x="118" y="449" type="curve" smooth="yes"/>
      <point x="118" y="494"/>
      <point x="140" y="528"/>
      <point x="179" y="550" type="curve"/>
      <point x="135" y="571" type="line"/>
      <point x="135" y="558" type="line"/>
      <point x="75" y="534"/>
      <point x="29" y="494"/>
      <point x="29" y="440" type="curve" smooth="yes"/>
      <point x="29" y="378"/>
      <point x="90" y="324"/>
    </contour>
  </outline>
</glyph>
<glyph name="ninesuperior" format="2">
  <advance width="432"/>
  <unicode hex="2079"/>
  <outline>
    <contour>
      <point x="99" y="324" type="curve"/>
      <point x="304" y="324"/>
      <point x="392" y="465"/>
      <point x="392" y="601" type="curve" smooth="yes"/>
      <point x="392" y="737"/>
      <point x="304" y="788"/>
      <point x="210" y="788" type="curve" smooth="yes"/>
      <point x="96" y="788"/>
      <point x="35" y="713"/>
      <point x="35" y="632" type="curve" smooth="yes"/>
      <point x="35" y="559"/>
      <point x="85" y="492"/>
      <point x="184" y="492" type="curve" smooth="yes"/>
      <point x="219" y="492"/>
      <point x="269" y="500"/>
      <point x="318" y="543" type="curve"/>
      <point x="312" y="575" type="line"/>
      <point x="278" y="544"/>
      <point x="246" y="538"/>
      <point x="225" y="538" type="curve" smooth="yes"/>
      <point x="160" y="538"/>
      <point x="129" y="595"/>
      <point x="129" y="652" type="curve" smooth="yes"/>
      <point x="129" y="709"/>
      <point x="160" y="755"/>
      <point x="207" y="755" type="curve" smooth="yes"/>
      <point x="253" y="755"/>
      <point x="300" y="712"/>
      <point x="300" y="594" type="curve" smooth="yes"/>
      <point x="300" y="451"/>
      <point x="231" y="357"/>
      <point x="89" y="357" type="curve"/>
      <point x="87" y="357"/>
      <point x="83" y="357"/>
      <point x="73" y="358" type="curve"/>
      <point x="70" y="347"/>
      <point x="70" y="337"/>
      <point x="71" y="326" type="curve"/>
      <point x="81" y="324"/>
      <point x="97" y="324"/>
    </contour>
  </outline>
</glyph>
<glyph name="rupees" format="2">
  <advance width="1017"/>
  <unicode hex="20A8"/>
  <outline>
    <contour>
      <point x="16" y="-1" type="curve"/>
      <point x="51" y="-1"/>
      <point x="122" y="1"/>
      <point x="155" y="1" type="curve" smooth="yes"/>
      <point x="189" y="1"/>
      <point x="255" y="-1"/>
      <point x="290" y="-1" type="curve"/>
      <point x="292" y="8"/>
      <point x="292" y="23"/>
      <point x="290" y="31" type="curve"/>
      <point x="207" y="39"/>
      <point x="206" y="39"/>
      <point x="206" y="114" type="curve" smooth="yes"/>
      <point x="206" y="579" type="line"/>
      <point x="215" y="580"/>
      <point x="233" y="583"/>
      <point x="254" y="583" type="curve" smooth="yes"/>
      <point x="340" y="583"/>
      <point x="384" y="540"/>
      <point x="384" y="454" type="curve" smooth="yes"/>
      <point x="384" y="366"/>
      <point x="336" y="319"/>
      <point x="241" y="319" type="curve" smooth="yes"/>
      <point x="218" y="319"/>
      <point x="194" y="323"/>
      <point x="181" y="328" type="curve"/>
      <point x="180" y="283" type="line"/>
      <point x="226" y="279" type="line" smooth="yes"/>
      <point x="251" y="277"/>
      <point x="257" y="272"/>
      <point x="278" y="242" type="curve" smooth="yes"/>
      <point x="443" y="0" type="line"/>
      <point x="461" y="0"/>
      <point x="475" y="1"/>
      <point x="494" y="1" type="curve" smooth="yes"/>
      <point x="519" y="1"/>
      <point x="575" y="-1"/>
      <point x="605" y="-1" type="curve"/>
      <point x="607" y="8"/>
      <point x="607" y="23"/>
      <point x="605" y="31" type="curve"/>
      <point x="543" y="38"/>
      <point x="531" y="45"/>
      <point x="475" y="126" type="curve" smooth="yes"/>
      <point x="382" y="261" type="line" smooth="yes"/>
      <point x="370" y="278"/>
      <point x="360" y="288"/>
      <point x="351" y="296" type="curve"/>
      <point x="351" y="298" type="line"/>
      <point x="444" y="328"/>
      <point x="494" y="386"/>
      <point x="494" y="467" type="curve" smooth="yes"/>
      <point x="494" y="582"/>
      <point x="390" y="623"/>
      <point x="285" y="623" type="curve" smooth="yes"/>
      <point x="255" y="623"/>
      <point x="185" y="620"/>
      <point x="154" y="620" type="curve" smooth="yes"/>
      <point x="129" y="620"/>
      <point x="50" y="622"/>
      <point x="16" y="622" type="curve"/>
      <point x="15" y="612"/>
      <point x="15" y="599"/>
      <point x="16" y="590" type="curve"/>
      <point x="100" y="583"/>
      <point x="105" y="581"/>
      <point x="105" y="508" type="curve" smooth="yes"/>
      <point x="105" y="102" type="line" smooth="yes"/>
      <point x="105" y="39"/>
      <point x="102" y="39"/>
      <point x="16" y="31" type="curve"/>
      <point x="15" y="22"/>
      <point x="15" y="8"/>
    </contour>
    <contour>
      <point x="793" y="-12" type="curve" smooth="yes"/>
      <point x="883" y="-12"/>
      <point x="972" y="35"/>
      <point x="972" y="144" type="curve" smooth="yes"/>
      <point x="972" y="246"/>
      <point x="894" y="278"/>
      <point x="825" y="307" type="curve" smooth="yes"/>
      <point x="770" y="330"/>
      <point x="720" y="351"/>
      <point x="720" y="403" type="curve" smooth="yes"/>
      <point x="720" y="447"/>
      <point x="754" y="474"/>
      <point x="810" y="474" type="curve" smooth="yes"/>
      <point x="870" y="474"/>
      <point x="903" y="440"/>
      <point x="920" y="363" type="curve"/>
      <point x="930" y="362"/>
      <point x="939" y="363"/>
      <point x="954" y="364" type="curve"/>
      <point x="950" y="415"/>
      <point x="949" y="460"/>
      <point x="949" y="505" type="curve"/>
      <point x="887" y="503"/>
      <point x="855" y="514"/>
      <point x="808" y="514" type="curve" smooth="yes"/>
      <point x="716" y="514"/>
      <point x="631" y="466"/>
      <point x="631" y="366" type="curve" smooth="yes"/>
      <point x="631" y="276"/>
      <point x="702" y="245"/>
      <point x="769" y="217" type="curve" smooth="yes"/>
      <point x="857" y="178"/>
      <point x="884" y="152"/>
      <point x="884" y="105" type="curve" smooth="yes"/>
      <point x="884" y="50"/>
      <point x="843" y="25"/>
      <point x="792" y="25" type="curve" smooth="yes"/>
      <point x="722" y="25"/>
      <point x="678" y="73"/>
      <point x="659" y="165" type="curve"/>
      <point x="649" y="166"/>
      <point x="640" y="165"/>
      <point x="626" y="164" type="curve"/>
      <point x="630" y="101"/>
      <point x="634" y="47"/>
      <point x="634" y="5" type="curve"/>
      <point x="696" y="4"/>
      <point x="734" y="-12"/>
    </contour>
  </outline>
</glyph>
<glyph name="Euro" format="2">
  <advance width="562"/>
  <unicode hex="20AC"/>
  <outline>
    <contour>
      <point x="334" y="-12" type="curve" smooth="yes"/>
      <point x="403" y="-12"/>
      <point x="468" y="15"/>
      <point x="527" y="58" type="curve"/>
      <point x="524" y="66"/>
      <point x="518" y="78"/>
      <point x="512" y="85" type="curve"/>
      <point x="461" y="59"/>
      <point x="417" y="48"/>
      <point x="379" y="48" type="curve" smooth="yes"/>
      <point x="253" y="48"/>
      <point x="192" y="175"/>
      <point x="192" y="318" type="curve" smooth="yes"/>
      <point x="192" y="470"/>
      <point x="248" y="591"/>
      <point x="349" y="591" type="curve" smooth="yes"/>
      <point x="375" y="591"/>
      <point x="394" y="584"/>
      <point x="416" y="568" type="curve"/>
      <point x="406" y="591" type="line"/>
      <point x="399" y="526"/>
      <point x="434" y="484"/>
      <point x="474" y="484" type="curve" smooth="yes"/>
      <point x="503" y="484"/>
      <point x="521" y="506"/>
      <point x="521" y="532" type="curve" smooth="yes"/>
      <point x="521" y="575"/>
      <point x="472" y="630"/>
      <point x="359" y="630" type="curve" smooth="yes"/>
      <point x="178" y="630"/>
      <point x="92" y="487"/>
      <point x="92" y="288" type="curve" smooth="yes"/>
      <point x="92" y="127"/>
      <point x="178" y="-12"/>
    </contour>
    <contour>
      <point x="389" y="219" type="line"/>
      <point x="394" y="232"/>
      <point x="398" y="249"/>
      <point x="399" y="263" type="curve"/>
      <point x="36" y="263" type="line"/>
      <point x="31" y="250"/>
      <point x="27" y="233"/>
      <point x="26" y="219" type="curve"/>
    </contour>
    <contour>
      <point x="416" y="333" type="line"/>
      <point x="421" y="346"/>
      <point x="425" y="363"/>
      <point x="426" y="377" type="curve"/>
      <point x="36" y="377" type="line"/>
      <point x="31" y="364"/>
      <point x="27" y="347"/>
      <point x="26" y="333" type="curve"/>
    </contour>
  </outline>
</glyph>
<glyph name="BASE" format="2">
  <advance width="724"/>
  <unicode hex="25CC"/>
  <outline>
    <contour>
      <point x="40" y="309" type="curve" smooth="yes"/>
      <point x="40" y="281"/>
      <point x="55" y="266"/>
      <point x="84" y="266" type="curve" smooth="yes"/>
      <point x="112" y="266"/>
      <point x="126" y="281"/>
      <point x="126" y="309" type="curve" smooth="yes"/>
      <point x="126" y="337"/>
      <point x="112" y="352"/>
      <point x="84" y="352" type="curve" smooth="yes"/>
      <point x="55" y="352"/>
      <point x="40" y="337"/>
    </contour>
    <contour>
      <point x="599" y="309" type="curve" smooth="yes"/>
      <point x="599" y="281"/>
      <point x="612" y="266"/>
      <point x="640" y="266" type="curve" smooth="yes"/>
      <point x="670" y="266"/>
      <point x="684" y="281"/>
      <point x="684" y="309" type="curve" smooth="yes"/>
      <point x="684" y="337"/>
      <point x="670" y="352"/>
      <point x="640" y="352" type="curve" smooth="yes"/>
      <point x="612" y="352"/>
      <point x="599" y="337"/>
    </contour>
    <contour>
      <point x="319" y="587" type="curve" smooth="yes"/>
      <point x="319" y="560"/>
      <point x="334" y="547"/>
      <point x="362" y="547" type="curve" smooth="yes"/>
      <point x="390" y="547"/>
      <point x="405" y="560"/>
      <point x="405" y="587" type="curve" smooth="yes"/>
      <point x="405" y="616"/>
      <point x="390" y="630"/>
      <point x="362" y="630" type="curve" smooth="yes"/>
      <point x="334" y="630"/>
      <point x="319" y="616"/>
    </contour>
    <contour>
      <point x="319" y="30" type="curve" smooth="yes"/>
      <point x="319" y="2"/>
      <point x="334" y="-12"/>
      <point x="362" y="-12" type="curve" smooth="yes"/>
      <point x="390" y="-12"/>
      <point x="405" y="2"/>
      <point x="405" y="30" type="curve" smooth="yes"/>
      <point x="405" y="59"/>
      <point x="390" y="73"/>
      <point x="362" y="73" type="curve" smooth="yes"/>
      <point x="334" y="73"/>
      <point x="319" y="59"/>
    </contour>
    <contour>
      <point x="563" y="448" type="curve" smooth="yes"/>
      <point x="563" y="421"/>
      <point x="577" y="406"/>
      <point x="605" y="406" type="curve" smooth="yes"/>
      <point x="633" y="406"/>
      <point x="648" y="421"/>
      <point x="648" y="448" type="curve" smooth="yes"/>
      <point x="648" y="477"/>
      <point x="633" y="491"/>
      <point x="605" y="491" type="curve" smooth="yes"/>
      <point x="577" y="491"/>
      <point x="563" y="477"/>
    </contour>
    <contour>
      <point x="563" y="169" type="curve" smooth="yes"/>
      <point x="563" y="141"/>
      <point x="577" y="127"/>
      <point x="605" y="127" type="curve" smooth="yes"/>
      <point x="633" y="127"/>
      <point x="648" y="141"/>
      <point x="648" y="169" type="curve" smooth="yes"/>
      <point x="648" y="198"/>
      <point x="633" y="212"/>
      <point x="605" y="212" type="curve" smooth="yes"/>
      <point x="577" y="212"/>
      <point x="563" y="198"/>
    </contour>
    <contour>
      <point x="77" y="448" type="curve" smooth="yes"/>
      <point x="77" y="421"/>
      <point x="91" y="406"/>
      <point x="119" y="406" type="curve" smooth="yes"/>
      <point x="148" y="406"/>
      <point x="162" y="421"/>
      <point x="162" y="448" type="curve" smooth="yes"/>
      <point x="162" y="477"/>
      <point x="148" y="491"/>
      <point x="119" y="491" type="curve" smooth="yes"/>
      <point x="91" y="491"/>
      <point x="77" y="477"/>
    </contour>
    <contour>
      <point x="77" y="169" type="curve" smooth="yes"/>
      <point x="77" y="141"/>
      <point x="91" y="127"/>
      <point x="119" y="127" type="curve" smooth="yes"/>
      <point x="148" y="127"/>
      <point x="162" y="141"/>
      <point x="162" y="169" type="curve" smooth="yes"/>
      <point x="162" y="198"/>
      <point x="148" y="212"/>
      <point x="119" y="212" type="curve" smooth="yes"/>
      <point x="91" y="212"/>
      <point x="77" y="198"/>
    </contour>
    <contour>
      <point x="180" y="552" type="curve" smooth="yes"/>
      <point x="180" y="523"/>
      <point x="194" y="509"/>
      <point x="223" y="509" type="curve" smooth="yes"/>
      <point x="251" y="509"/>
      <point x="266" y="523"/>
      <point x="266" y="552" type="curve" smooth="yes"/>
      <point x="266" y="580"/>
      <point x="251" y="594"/>
      <point x="223" y="594" type="curve" smooth="yes"/>
      <point x="194" y="594"/>
      <point x="180" y="580"/>
    </contour>
    <contour>
      <point x="459" y="552" type="curve" smooth="yes"/>
      <point x="459" y="523"/>
      <point x="473" y="509"/>
      <point x="501" y="509" type="curve" smooth="yes"/>
      <point x="531" y="509"/>
      <point x="545" y="523"/>
      <point x="545" y="552" type="curve" smooth="yes"/>
      <point x="545" y="580"/>
      <point x="531" y="594"/>
      <point x="501" y="594" type="curve" smooth="yes"/>
      <point x="473" y="594"/>
      <point x="459" y="580"/>
    </contour>
    <contour>
      <point x="180" y="66" type="curve" smooth="yes"/>
      <point x="180" y="38"/>
      <point x="194" y="24"/>
      <point x="223" y="24" type="curve" smooth="yes"/>
      <point x="251" y="24"/>
      <point x="266" y="38"/>
      <point x="266" y="66" type="curve" smooth="yes"/>
      <point x="266" y="95"/>
      <point x="251" y="109"/>
      <point x="223" y="109" type="curve" smooth="yes"/>
      <point x="194" y="109"/>
      <point x="180" y="95"/>
    </contour>
    <contour>
      <point x="459" y="66" type="curve" smooth="yes"/>
      <point x="459" y="38"/>
      <point x="473" y="24"/>
      <point x="501" y="24" type="curve" smooth="yes"/>
      <point x="531" y="24"/>
      <point x="545" y="38"/>
      <point x="545" y="66" type="curve" smooth="yes"/>
      <point x="545" y="95"/>
      <point x="531" y="109"/>
      <point x="501" y="109" type="curve" smooth="yes"/>
      <point x="473" y="109"/>
      <point x="459" y="95"/>
    </contour>
  </outline>
  <guideline angle="0" x="0" y="266"/>
  <guideline angle="0" x="0" y="502"/>
  <guideline angle="0" x="0" y="29"/>
  <guideline angle="0" x="0" y="384"/>
  <guideline angle="0" x="0" y="147"/>
  <guideline angle="0" x="0" y="472"/>
  <guideline angle="0" x="0" y="60"/>
  <guideline angle="90" x="313" y="0"/>
  <guideline angle="90" x="77" y="0"/>
  <guideline angle="90" x="549" y="0"/>
  <guideline angle="90" x="431" y="0"/>
  <guideline angle="90" x="195" y="0"/>
  <guideline angle="90" x="107" y="0"/>
  <guideline angle="90" x="519" y="0"/>
</glyph>
<glyph name="B.sc" format="2">
  <advance width="536"/>
  <outline>
    <contour>
      <point x="30" y="-1" type="curve"/>
      <point x="66" y="-1"/>
      <point x="143" y="1"/>
      <point x="171" y="1" type="curve" smooth="yes"/>
      <point x="205" y="1"/>
      <point x="242" y="-2"/>
      <point x="285" y="-2" type="curve" smooth="yes"/>
      <point x="320" y="-2"/>
      <point x="356" y="0"/>
      <point x="386" y="9" type="curve" smooth="yes"/>
      <point x="453" y="28"/>
      <point x="506" y="77"/>
      <point x="506" y="154" type="curve" smooth="yes"/>
      <point x="506" y="244"/>
      <point x="434" y="287"/>
      <point x="346" y="293" type="curve"/>
      <point x="346" y="294" type="line"/>
      <point x="433" y="317"/>
      <point x="477" y="364"/>
      <point x="477" y="429" type="curve" smooth="yes"/>
      <point x="477" y="507"/>
      <point x="414" y="550"/>
      <point x="283" y="550" type="curve" smooth="yes"/>
      <point x="255" y="550"/>
      <point x="207" y="548"/>
      <point x="173" y="548" type="curve" smooth="yes"/>
      <point x="138" y="548"/>
      <point x="69" y="550"/>
      <point x="30" y="550" type="curve"/>
      <point x="28" y="539"/>
      <point x="28" y="529"/>
      <point x="30" y="519" type="curve"/>
      <point x="115" y="511"/>
      <point x="119" y="509"/>
      <point x="119" y="429" type="curve" smooth="yes"/>
      <point x="119" y="108" type="line" smooth="yes"/>
      <point x="119" y="39"/>
      <point x="116" y="39"/>
      <point x="30" y="30" type="curve"/>
      <point x="28" y="19"/>
      <point x="28" y="9"/>
    </contour>
    <contour>
      <point x="279" y="36" type="curve" smooth="yes"/>
      <point x="259" y="36"/>
      <point x="242" y="39"/>
      <point x="221" y="44" type="curve"/>
      <point x="220" y="57"/>
      <point x="220" y="80"/>
      <point x="220" y="112" type="curve" smooth="yes"/>
      <point x="220" y="508" type="line"/>
      <point x="237" y="509"/>
      <point x="247" y="510"/>
      <point x="264" y="510" type="curve" smooth="yes"/>
      <point x="333" y="510"/>
      <point x="367" y="476"/>
      <point x="367" y="408" type="curve" smooth="yes"/>
      <point x="367" y="338"/>
      <point x="331" y="305"/>
      <point x="237" y="305" type="curve" smooth="yes"/>
      <point x="229" y="305"/>
      <point x="221" y="305"/>
      <point x="208" y="307" type="curve"/>
      <point x="208" y="263" type="line"/>
      <point x="226" y="265"/>
      <point x="247" y="266"/>
      <point x="262" y="266" type="curve" smooth="yes"/>
      <point x="352" y="266"/>
      <point x="394" y="232"/>
      <point x="394" y="154" type="curve" smooth="yes"/>
      <point x="394" y="74"/>
      <point x="350" y="36"/>
    </contour>
  </outline>
</glyph>
<glyph name="C.sc" format="2">
  <advance width="590"/>
  <outline>
    <contour>
      <point x="331" y="-14" type="curve" smooth="yes"/>
      <point x="404" y="-14"/>
      <point x="466" y="5"/>
      <point x="524" y="25" type="curve"/>
      <point x="528" y="83"/>
      <point x="532" y="134"/>
      <point x="540" y="189" type="curve"/>
      <point x="528" y="190"/>
      <point x="516" y="190"/>
      <point x="506" y="190" type="curve"/>
      <point x="483" y="69"/>
      <point x="430" y="26"/>
      <point x="349" y="26" type="curve" smooth="yes"/>
      <point x="219" y="26"/>
      <point x="160" y="139"/>
      <point x="160" y="274" type="curve" smooth="yes"/>
      <point x="160" y="401"/>
      <point x="212" y="521"/>
      <point x="343" y="521" type="curve" smooth="yes"/>
      <point x="428" y="521"/>
      <point x="482" y="472"/>
      <point x="501" y="358" type="curve"/>
      <point x="510" y="357"/>
      <point x="523" y="358"/>
      <point x="534" y="360" type="curve"/>
      <point x="530" y="424"/>
      <point x="528" y="478"/>
      <point x="526" y="533" type="curve"/>
      <point x="520" y="532"/>
      <point x="509" y="531"/>
      <point x="502" y="531" type="curve" smooth="yes"/>
      <point x="486" y="531"/>
      <point x="472" y="536"/>
      <point x="450" y="542" type="curve" smooth="yes"/>
      <point x="405" y="555"/>
      <point x="372" y="560"/>
      <point x="335" y="560" type="curve" smooth="yes"/>
      <point x="158" y="560"/>
      <point x="45" y="440"/>
      <point x="45" y="268" type="curve" smooth="yes"/>
      <point x="45" y="96"/>
      <point x="158" y="-14"/>
    </contour>
  </outline>
</glyph>
<glyph name="Eng.sc" format="2">
  <advance width="638"/>
  <outline>
    <contour>
      <point x="360" y="-200" type="curve" smooth="yes"/>
      <point x="409" y="-200"/>
      <point x="455" y="-182"/>
      <point x="488" y="-138" type="curve" smooth="yes"/>
      <point x="525" y="-89"/>
      <point x="533" y="-24"/>
      <point x="533" y="47" type="curve" smooth="yes"/>
      <point x="533" y="417" type="line" smooth="yes"/>
      <point x="533" y="504"/>
      <point x="536" y="509"/>
      <point x="624" y="520" type="curve"/>
      <point x="626" y="530"/>
      <point x="626" y="540"/>
      <point x="624" y="551" type="curve"/>
      <point x="589" y="550"/>
      <point x="537" y="548"/>
      <point x="507" y="548" type="curve" smooth="yes"/>
      <point x="477" y="548"/>
      <point x="415" y="550"/>
      <point x="380" y="550" type="curve"/>
      <point x="378" y="539"/>
      <point x="378" y="529"/>
      <point x="380" y="519" type="curve"/>
      <point x="428" y="515"/>
      <point x="459" y="508"/>
      <point x="473" y="492" type="curve" smooth="yes"/>
      <point x="486" y="478"/>
      <point x="486" y="453"/>
      <point x="486" y="405" type="curve" smooth="yes"/>
      <point x="486" y="142" type="line"/>
      <point x="499" y="142" type="line"/>
      <point x="203" y="549" type="line"/>
      <point x="182" y="548"/>
      <point x="147" y="548"/>
      <point x="141" y="548" type="curve" smooth="yes"/>
      <point x="98" y="548"/>
      <point x="54" y="550"/>
      <point x="17" y="550" type="curve"/>
      <point x="15" y="539"/>
      <point x="15" y="529"/>
      <point x="17" y="519" type="curve"/>
      <point x="109" y="509"/>
      <point x="115" y="503"/>
      <point x="115" y="400" type="curve" smooth="yes"/>
      <point x="115" y="132" type="line" smooth="yes"/>
      <point x="115" y="45"/>
      <point x="111" y="42"/>
      <point x="24" y="30" type="curve"/>
      <point x="22" y="19"/>
      <point x="22" y="9"/>
      <point x="24" y="-1" type="curve"/>
      <point x="59" y="-1"/>
      <point x="109" y="1"/>
      <point x="140" y="1" type="curve" smooth="yes"/>
      <point x="171" y="1"/>
      <point x="221" y="-1"/>
      <point x="258" y="-1" type="curve"/>
      <point x="259" y="9"/>
      <point x="259" y="20"/>
      <point x="258" y="30" type="curve"/>
      <point x="210" y="35"/>
      <point x="186" y="44"/>
      <point x="174" y="57" type="curve"/>
      <point x="163" y="71"/>
      <point x="162" y="95"/>
      <point x="162" y="144" type="curve" smooth="yes"/>
      <point x="162" y="449" type="line"/>
      <point x="149" y="449" type="line"/>
      <point x="480" y="-5" type="line"/>
      <point x="476" y="-98"/>
      <point x="441" y="-158"/>
      <point x="391" y="-154" type="curve"/>
      <point x="415" y="-163" type="line"/>
      <point x="409" y="-131"/>
      <point x="377" y="-85"/>
      <point x="328" y="-85" type="curve" smooth="yes"/>
      <point x="296" y="-85"/>
      <point x="272" y="-106"/>
      <point x="272" y="-139" type="curve" smooth="yes"/>
      <point x="272" y="-180"/>
      <point x="309" y="-200"/>
    </contour>
  </outline>
</glyph>
<glyph name="G.sc" format="2">
  <advance width="646"/>
  <outline>
    <contour>
      <point x="333" y="-15" type="curve" smooth="yes"/>
      <point x="396" y="-15"/>
      <point x="465" y="-1"/>
      <point x="549" y="24" type="curve"/>
      <point x="457" y="48" type="line"/>
      <point x="424" y="34"/>
      <point x="386" y="27"/>
      <point x="353" y="27" type="curve" smooth="yes"/>
      <point x="224" y="27"/>
      <point x="160" y="131"/>
      <point x="160" y="275" type="curve" smooth="yes"/>
      <point x="160" y="409"/>
      <point x="215" y="521"/>
      <point x="351" y="521" type="curve" smooth="yes"/>
      <point x="438" y="521"/>
      <point x="492" y="476"/>
      <point x="515" y="356" type="curve"/>
      <point x="524" y="355"/>
      <point x="538" y="356"/>
      <point x="549" y="358" type="curve"/>
      <point x="545" y="420"/>
      <point x="542" y="477"/>
      <point x="540" y="531" type="curve"/>
      <point x="533" y="529"/>
      <point x="524" y="528"/>
      <point x="517" y="528" type="curve" smooth="yes"/>
      <point x="501" y="528"/>
      <point x="482" y="534"/>
      <point x="463" y="540" type="curve" smooth="yes"/>
      <point x="431" y="550"/>
      <point x="394" y="560"/>
      <point x="341" y="560" type="curve" smooth="yes"/>
      <point x="161" y="560"/>
      <point x="45" y="444"/>
      <point x="45" y="267" type="curve" smooth="yes"/>
      <point x="45" y="89"/>
      <point x="161" y="-15"/>
    </contour>
    <contour>
      <point x="549" y="24" type="line"/>
      <point x="546" y="36"/>
      <point x="544" y="65"/>
      <point x="544" y="107" type="curve" smooth="yes"/>
      <point x="544" y="130" type="line" smooth="yes"/>
      <point x="544" y="200"/>
      <point x="546" y="199"/>
      <point x="622" y="209" type="curve"/>
      <point x="624" y="219"/>
      <point x="624" y="229"/>
      <point x="622" y="240" type="curve"/>
      <point x="586" y="239"/>
      <point x="530" y="237"/>
      <point x="492" y="237" type="curve" smooth="yes"/>
      <point x="455" y="237"/>
      <point x="382" y="239"/>
      <point x="343" y="239" type="curve"/>
      <point x="341" y="228"/>
      <point x="341" y="218"/>
      <point x="343" y="208" type="curve"/>
      <point x="440" y="200"/>
      <point x="444" y="199"/>
      <point x="444" y="118" type="curve" smooth="yes"/>
      <point x="444" y="27" type="line"/>
    </contour>
  </outline>
</glyph>
<glyph name="G_macronbelowcomb_H_macronbelowcomb" format="2">
  <advance width="1628"/>
  <outline>
    <component base="G"/>
    <component base="H" xOffset="788"/>
    <contour>
      <point x="1369" y="-153" type="line"/>
      <point x="1371" y="-137"/>
      <point x="1371" y="-119"/>
      <point x="1369" y="-103" type="curve"/>
      <point x="253" y="-103" type="line"/>
      <point x="251" y="-119"/>
      <point x="251" y="-137"/>
      <point x="253" y="-153" type="curve"/>
    </contour>
  </outline>
</glyph>
<glyph name="K.sc" format="2">
  <advance width="602"/>
  <outline>
    <contour>
      <point x="28" y="-1" type="curve"/>
      <point x="65" y="-1"/>
      <point x="133" y="1"/>
      <point x="168" y="1" type="curve" smooth="yes"/>
      <point x="203" y="1"/>
      <point x="271" y="-1"/>
      <point x="307" y="-1" type="curve"/>
      <point x="309" y="9"/>
      <point x="309" y="19"/>
      <point x="307" y="30" type="curve"/>
      <point x="225" y="37"/>
      <point x="220" y="38"/>
      <point x="220" y="120" type="curve" smooth="yes"/>
      <point x="220" y="440" type="line" smooth="yes"/>
      <point x="220" y="509"/>
      <point x="224" y="510"/>
      <point x="306" y="519" type="curve"/>
      <point x="308" y="529"/>
      <point x="308" y="539"/>
      <point x="306" y="550" type="curve"/>
      <point x="270" y="550"/>
      <point x="203" y="548"/>
      <point x="170" y="548" type="curve" smooth="yes"/>
      <point x="136" y="548"/>
      <point x="64" y="550"/>
      <point x="28" y="550" type="curve"/>
      <point x="26" y="539"/>
      <point x="26" y="529"/>
      <point x="28" y="519" type="curve"/>
      <point x="115" y="511"/>
      <point x="119" y="509"/>
      <point x="119" y="429" type="curve" smooth="yes"/>
      <point x="119" y="108" type="line" smooth="yes"/>
      <point x="119" y="39"/>
      <point x="116" y="39"/>
      <point x="28" y="30" type="curve"/>
      <point x="26" y="19"/>
      <point x="26" y="9"/>
    </contour>
    <contour>
      <point x="422" y="0" type="line"/>
      <point x="440" y="0"/>
      <point x="464" y="1"/>
      <point x="477" y="1" type="curve" smooth="yes"/>
      <point x="510" y="1"/>
      <point x="570" y="-1"/>
      <point x="605" y="-1" type="curve"/>
      <point x="607" y="9"/>
      <point x="607" y="19"/>
      <point x="605" y="30" type="curve"/>
      <point x="527" y="38"/>
      <point x="515" y="43"/>
      <point x="458" y="125" type="curve" smooth="yes"/>
      <point x="310" y="336" type="line"/>
      <point x="243" y="262" type="line"/>
    </contour>
    <contour>
      <point x="274" y="264" type="line"/>
      <point x="406" y="407" type="line" smooth="yes"/>
      <point x="492" y="500"/>
      <point x="506" y="511"/>
      <point x="581" y="519" type="curve"/>
      <point x="583" y="529"/>
      <point x="583" y="539"/>
      <point x="581" y="550" type="curve"/>
      <point x="540" y="550"/>
      <point x="508" y="548"/>
      <point x="469" y="548" type="curve" smooth="yes"/>
      <point x="439" y="548"/>
      <point x="375" y="550"/>
      <point x="346" y="550" type="curve"/>
      <point x="344" y="539"/>
      <point x="344" y="529"/>
      <point x="346" y="519" type="curve"/>
      <point x="394" y="515"/>
      <point x="413" y="509"/>
      <point x="413" y="493" type="curve" smooth="yes"/>
      <point x="413" y="481"/>
      <point x="406" y="468"/>
      <point x="379" y="439" type="curve" smooth="yes"/>
      <point x="204" y="246" type="line"/>
      <point x="204" y="185" type="line"/>
    </contour>
  </outline>
</glyph>
<glyph name="Klinebelow_H_macronbelowcomb.sc" format="2">
  <advance width="1414"/>
  <outline>
    <component base="K"/>
    <component base="H.sc" xOffset="715"/>
    <contour>
      <point x="1205" y="-153" type="line"/>
      <point x="1207" y="-137"/>
      <point x="1207" y="-119"/>
      <point x="1205" y="-103" type="curve"/>
      <point x="238" y="-103" type="line"/>
      <point x="236" y="-119"/>
      <point x="236" y="-137"/>
      <point x="238" y="-153" type="curve"/>
    </contour>
  </outline>
</glyph>
<glyph name="Klinebelow_hlinebelow.sc" format="2">
  <advance width="1301"/>
  <outline>
    <component base="K.sc"/>
    <component base="H.sc" xOffset="602"/>
    <contour>
      <point x="1092" y="-153" type="line"/>
      <point x="1094" y="-137"/>
      <point x="1094" y="-119"/>
      <point x="1092" y="-103" type="curve"/>
      <point x="208" y="-103" type="line"/>
      <point x="206" y="-119"/>
      <point x="206" y="-137"/>
      <point x="208" y="-153" type="curve"/>
    </contour>
  </outline>
</glyph>
<glyph name="L.sc" format="2">
  <advance width="518"/>
  <outline>
    <contour>
      <point x="30" y="-1" type="curve"/>
      <point x="72" y="-1"/>
      <point x="126" y="1"/>
      <point x="183" y="1" type="curve" smooth="yes"/>
      <point x="264" y="1"/>
      <point x="382" y="-3"/>
      <point x="481" y="-3" type="curve"/>
      <point x="486" y="38"/>
      <point x="497" y="100"/>
      <point x="511" y="175" type="curve"/>
      <point x="502" y="177"/>
      <point x="490" y="177"/>
      <point x="481" y="175" type="curve"/>
      <point x="459" y="128"/>
      <point x="439" y="90"/>
      <point x="418" y="70" type="curve" smooth="yes"/>
      <point x="396" y="49"/>
      <point x="366" y="41"/>
      <point x="325" y="41" type="curve" smooth="yes"/>
      <point x="222" y="41" type="line"/>
      <point x="220" y="49"/>
      <point x="220" y="77"/>
      <point x="220" y="120" type="curve" smooth="yes"/>
      <point x="220" y="442" type="line" smooth="yes"/>
      <point x="220" y="510"/>
      <point x="224" y="510"/>
      <point x="311" y="519" type="curve"/>
      <point x="313" y="529"/>
      <point x="313" y="539"/>
      <point x="311" y="550" type="curve"/>
      <point x="275" y="550"/>
      <point x="204" y="548"/>
      <point x="170" y="548" type="curve" smooth="yes"/>
      <point x="136" y="548"/>
      <point x="68" y="550"/>
      <point x="30" y="550" type="curve"/>
      <point x="28" y="539"/>
      <point x="28" y="529"/>
      <point x="30" y="519" type="curve"/>
      <point x="115" y="511"/>
      <point x="119" y="509"/>
      <point x="119" y="429" type="curve" smooth="yes"/>
      <point x="119" y="108" type="line" smooth="yes"/>
      <point x="119" y="39"/>
      <point x="116" y="39"/>
      <point x="30" y="30" type="curve"/>
      <point x="28" y="19"/>
      <point x="28" y="9"/>
    </contour>
  </outline>
</glyph>
<glyph name="Lcaron.sc" format="2">
  <advance width="518"/>
  <outline>
    <contour>
      <point x="30" y="-1" type="curve"/>
      <point x="72" y="-1"/>
      <point x="126" y="1"/>
      <point x="183" y="1" type="curve" smooth="yes"/>
      <point x="264" y="1"/>
      <point x="382" y="-3"/>
      <point x="481" y="-3" type="curve"/>
      <point x="486" y="38"/>
      <point x="497" y="100"/>
      <point x="511" y="175" type="curve"/>
      <point x="502" y="177"/>
      <point x="490" y="177"/>
      <point x="481" y="175" type="curve"/>
      <point x="459" y="128"/>
      <point x="439" y="90"/>
      <point x="418" y="70" type="curve" smooth="yes"/>
      <point x="396" y="49"/>
      <point x="366" y="41"/>
      <point x="325" y="41" type="curve" smooth="yes"/>
      <point x="222" y="41" type="line"/>
      <point x="220" y="49"/>
      <point x="220" y="77"/>
      <point x="220" y="120" type="curve" smooth="yes"/>
      <point x="220" y="442" type="line" smooth="yes"/>
      <point x="220" y="510"/>
      <point x="224" y="510"/>
      <point x="311" y="519" type="curve"/>
      <point x="313" y="529"/>
      <point x="313" y="539"/>
      <point x="311" y="550" type="curve"/>
      <point x="275" y="550"/>
      <point x="204" y="548"/>
      <point x="170" y="548" type="curve" smooth="yes"/>
      <point x="136" y="548"/>
      <point x="68" y="550"/>
      <point x="30" y="550" type="curve"/>
      <point x="28" y="539"/>
      <point x="28" y="529"/>
      <point x="30" y="519" type="curve"/>
      <point x="115" y="511"/>
      <point x="119" y="509"/>
      <point x="119" y="429" type="curve" smooth="yes"/>
      <point x="119" y="108" type="line" smooth="yes"/>
      <point x="119" y="39"/>
      <point x="116" y="39"/>
      <point x="30" y="30" type="curve"/>
      <point x="28" y="19"/>
      <point x="28" y="9"/>
    </contour>
    <contour>
      <point x="468" y="544" type="line"/>
      <point x="468" y="548" type="line"/>
      <point x="448" y="552"/>
      <point x="428" y="554"/>
      <point x="413" y="554" type="curve" smooth="yes"/>
      <point x="394" y="554"/>
      <point x="383" y="553"/>
      <point x="380" y="550" type="curve"/>
      <point x="369" y="343" type="line"/>
      <point x="377" y="341"/>
      <point x="390" y="340"/>
      <point x="399" y="341" type="curve"/>
    </contour>
  </outline>
</glyph>
<glyph name="Lslash.sc" format="2">
  <advance width="521"/>
  <outline>
    <contour>
      <point x="33" y="-1" type="curve"/>
      <point x="75" y="-1"/>
      <point x="129" y="1"/>
      <point x="186" y="1" type="curve" smooth="yes"/>
      <point x="267" y="1"/>
      <point x="385" y="-3"/>
      <point x="484" y="-3" type="curve"/>
      <point x="489" y="38"/>
      <point x="500" y="100"/>
      <point x="514" y="175" type="curve"/>
      <point x="505" y="177"/>
      <point x="493" y="177"/>
      <point x="484" y="175" type="curve"/>
      <point x="462" y="128"/>
      <point x="442" y="90"/>
      <point x="421" y="70" type="curve" smooth="yes"/>
      <point x="399" y="49"/>
      <point x="369" y="41"/>
      <point x="328" y="41" type="curve" smooth="yes"/>
      <point x="225" y="41" type="line"/>
      <point x="223" y="49"/>
      <point x="223" y="77"/>
      <point x="223" y="120" type="curve" smooth="yes"/>
      <point x="223" y="442" type="line" smooth="yes"/>
      <point x="223" y="510"/>
      <point x="227" y="510"/>
      <point x="314" y="519" type="curve"/>
      <point x="316" y="529"/>
      <point x="316" y="539"/>
      <point x="314" y="550" type="curve"/>
      <point x="278" y="550"/>
      <point x="207" y="548"/>
      <point x="173" y="548" type="curve" smooth="yes"/>
      <point x="139" y="548"/>
      <point x="71" y="550"/>
      <point x="33" y="550" type="curve"/>
      <point x="31" y="539"/>
      <point x="31" y="529"/>
      <point x="33" y="519" type="curve"/>
      <point x="118" y="511"/>
      <point x="122" y="509"/>
      <point x="122" y="429" type="curve" smooth="yes"/>
      <point x="122" y="108" type="line" smooth="yes"/>
      <point x="122" y="39"/>
      <point x="119" y="39"/>
      <point x="33" y="30" type="curve"/>
      <point x="31" y="19"/>
      <point x="31" y="9"/>
    </contour>
    <contour>
      <point x="373" y="341" type="line"/>
      <point x="368" y="356"/>
      <point x="364" y="367"/>
      <point x="356" y="379" type="curve"/>
      <point x="23" y="236" type="line"/>
      <point x="27" y="222"/>
      <point x="31" y="210"/>
      <point x="39" y="198" type="curve"/>
    </contour>
  </outline>
</glyph>
<glyph name="N.sc" format="2">
  <advance width="638"/>
  <outline>
    <contour>
      <point x="480" y="-6" type="line"/>
      <point x="496" y="-6"/>
      <point x="520" y="-4"/>
      <point x="533" y="-1" type="curve"/>
      <point x="533" y="417" type="line" smooth="yes"/>
      <point x="533" y="504"/>
      <point x="536" y="509"/>
      <point x="624" y="520" type="curve"/>
      <point x="626" y="530"/>
      <point x="626" y="540"/>
      <point x="624" y="551" type="curve"/>
      <point x="589" y="550"/>
      <point x="537" y="548"/>
      <point x="507" y="548" type="curve" smooth="yes"/>
      <point x="477" y="548"/>
      <point x="415" y="550"/>
      <point x="380" y="550" type="curve"/>
      <point x="378" y="539"/>
      <point x="378" y="529"/>
      <point x="380" y="519" type="curve"/>
      <point x="430" y="515"/>
      <point x="460" y="507"/>
      <point x="473" y="492" type="curve" smooth="yes"/>
      <point x="486" y="478"/>
      <point x="486" y="453"/>
      <point x="486" y="405" type="curve" smooth="yes"/>
      <point x="486" y="142" type="line"/>
      <point x="494" y="149" type="line"/>
      <point x="203" y="549" type="line"/>
      <point x="182" y="548"/>
      <point x="147" y="548"/>
      <point x="141" y="548" type="curve" smooth="yes"/>
      <point x="98" y="548"/>
      <point x="54" y="550"/>
      <point x="17" y="550" type="curve"/>
      <point x="15" y="539"/>
      <point x="15" y="529"/>
      <point x="17" y="519" type="curve"/>
      <point x="109" y="509"/>
      <point x="115" y="503"/>
      <point x="115" y="400" type="curve" smooth="yes"/>
      <point x="115" y="132" type="line" smooth="yes"/>
      <point x="115" y="45"/>
      <point x="111" y="42"/>
      <point x="24" y="30" type="curve"/>
      <point x="22" y="19"/>
      <point x="22" y="9"/>
      <point x="24" y="-1" type="curve"/>
      <point x="59" y="-1"/>
      <point x="109" y="1"/>
      <point x="140" y="1" type="curve" smooth="yes"/>
      <point x="171" y="1"/>
      <point x="221" y="-1"/>
      <point x="258" y="-1" type="curve"/>
      <point x="259" y="9"/>
      <point x="259" y="20"/>
      <point x="258" y="30" type="curve"/>
      <point x="210" y="35"/>
      <point x="186" y="44"/>
      <point x="174" y="57" type="curve"/>
      <point x="163" y="71"/>
      <point x="162" y="95"/>
      <point x="162" y="144" type="curve" smooth="yes"/>
      <point x="162" y="449" type="line"/>
      <point x="153" y="443" type="line"/>
    </contour>
  </outline>
</glyph>
<glyph name="O.sc" format="2">
  <advance width="648"/>
  <outline>
    <contour>
      <point x="320" y="-15" type="curve" smooth="yes"/>
      <point x="492" y="-15"/>
      <point x="603" y="107"/>
      <point x="603" y="277" type="curve" smooth="yes"/>
      <point x="603" y="442"/>
      <point x="498" y="560"/>
      <point x="329" y="560" type="curve" smooth="yes"/>
      <point x="156" y="560"/>
      <point x="45" y="437"/>
      <point x="45" y="268" type="curve" smooth="yes"/>
      <point x="45" y="104"/>
      <point x="147" y="-15"/>
    </contour>
    <contour>
      <point x="328" y="24" type="curve" smooth="yes"/>
      <point x="206" y="24"/>
      <point x="160" y="154"/>
      <point x="160" y="273" type="curve" smooth="yes"/>
      <point x="160" y="393"/>
      <point x="205" y="520"/>
      <point x="326" y="520" type="curve" smooth="yes"/>
      <point x="446" y="520"/>
      <point x="490" y="394"/>
      <point x="490" y="269" type="curve" smooth="yes"/>
      <point x="490" y="146"/>
      <point x="447" y="24"/>
    </contour>
  </outline>
</glyph>
<glyph name="OE.sc" format="2">
  <advance width="840"/>
  <outline>
    <contour>
      <point x="319" y="-8" type="curve" smooth="yes"/>
      <point x="367" y="-8"/>
      <point x="389" y="1"/>
      <point x="509" y="1" type="curve" smooth="yes"/>
      <point x="548" y="1"/>
      <point x="697" y="0"/>
      <point x="785" y="0" type="curve"/>
      <point x="791" y="42"/>
      <point x="799" y="97"/>
      <point x="812" y="167" type="curve"/>
      <point x="802" y="168"/>
      <point x="791" y="168"/>
      <point x="782" y="167" type="curve"/>
      <point x="764" y="123"/>
      <point x="742" y="87"/>
      <point x="725" y="70" type="curve" smooth="yes"/>
      <point x="707" y="53"/>
      <point x="679" y="42"/>
      <point x="611" y="42" type="curve" smooth="yes"/>
      <point x="511" y="42" type="line"/>
      <point x="447" y="72" type="line"/>
      <point x="424" y="45"/>
      <point x="384" y="32"/>
      <point x="340" y="32" type="curve" smooth="yes"/>
      <point x="207" y="32"/>
      <point x="161" y="154"/>
      <point x="161" y="275" type="curve" smooth="yes"/>
      <point x="161" y="398"/>
      <point x="208" y="513"/>
      <point x="342" y="513" type="curve" smooth="yes"/>
      <point x="385" y="513"/>
      <point x="423" y="501"/>
      <point x="446" y="476" type="curve"/>
      <point x="509" y="508" type="line"/>
      <point x="607" y="508" type="line" smooth="yes"/>
      <point x="654" y="508"/>
      <point x="686" y="501"/>
      <point x="708" y="482" type="curve" smooth="yes"/>
      <point x="726" y="467"/>
      <point x="741" y="440"/>
      <point x="754" y="402" type="curve"/>
      <point x="765" y="401"/>
      <point x="776" y="401"/>
      <point x="786" y="402" type="curve"/>
      <point x="777" y="456"/>
      <point x="770" y="505"/>
      <point x="766" y="550" type="curve"/>
      <point x="695" y="548"/>
      <point x="562" y="548"/>
      <point x="529" y="548" type="curve" smooth="yes"/>
      <point x="405" y="548"/>
      <point x="381" y="552"/>
      <point x="345" y="552" type="curve" smooth="yes"/>
      <point x="149" y="552"/>
      <point x="46" y="437"/>
      <point x="46" y="270" type="curve" smooth="yes"/>
      <point x="46" y="104"/>
      <point x="148" y="-8"/>
    </contour>
    <contour>
      <point x="529" y="22" type="line"/>
      <point x="525" y="40"/>
      <point x="524" y="68"/>
      <point x="524" y="120" type="curve" smooth="yes"/>
      <point x="524" y="539" type="line"/>
      <point x="424" y="539" type="line"/>
      <point x="424" y="22" type="line"/>
    </contour>
    <contour>
      <point x="654" y="168" type="curve"/>
      <point x="665" y="166"/>
      <point x="677" y="166"/>
      <point x="687" y="168" type="curve"/>
      <point x="686" y="212"/>
      <point x="685" y="245"/>
      <point x="685" y="284" type="curve" smooth="yes"/>
      <point x="685" y="300"/>
      <point x="685" y="320"/>
      <point x="687" y="398" type="curve"/>
      <point x="677" y="400"/>
      <point x="664" y="400"/>
      <point x="654" y="398" type="curve"/>
      <point x="641" y="314"/>
      <point x="629" y="306"/>
      <point x="542" y="306" type="curve" smooth="yes"/>
      <point x="507" y="306" type="line"/>
      <point x="507" y="263" type="line"/>
      <point x="550" y="263" type="line" smooth="yes"/>
      <point x="629" y="263"/>
      <point x="642" y="259"/>
    </contour>
  </outline>
</glyph>
